mtllib Link5.mtl
v 0.844211364746094 1.2286083984375 0.015
vn -0.70710676908493 0.70710676908493 0
v 0.836391662597656 1.22078857421875 0.015
vn -0.70710676908493 0.70710676908493 0
v 0.836391662597656 1.22078857421875 0.018
vn -0.70710676908493 0.70710676908493 0
v 0.844211364746094 1.2286083984375 0.018
vn -0.70710676908493 0.70710676908493 0
v 0.903608337402344 1.22078857421875 0.018
vn 0 0 1
v 0.895788635253906 1.2286083984375 0.018
vn 0 0 1
v 0.886211364746094 1.23413781738281 0.018
vn 0 0 1
v 0.875529418945313 1.237 0.018
vn 0 0 1
v 0.864470581054688 1.237 0.018
vn 0 0 1
v 0.853788635253906 1.23413781738281 0.018
vn 0 0 1
v 0.844211364746094 1.2286083984375 0.018
vn 0 0 1
v 0.836391662597656 1.22078857421875 0.018
vn 0 0 1
v 0.830862243652344 1.21121142578125 0.018
vn 0 0 1
v 0.828 1.20052941894531 0.018
vn 0 0 1
v 0.828 1.18947058105469 0.018
vn 0 0 1
v 0.830862243652344 1.17878857421875 0.018
vn 0 0 1
v 0.836391662597656 1.16921142578125 0.018
vn 0 0 1
v 0.844211364746094 1.1613916015625 0.018
vn 0 0 1
v 0.853788635253906 1.15586218261719 0.018
vn 0 0 1
v 0.864470581054688 1.153 0.018
vn 0 0 1
v 0.875529418945313 1.153 0.018
vn 0 0 1
v 0.886211364746094 1.15586218261719 0.018
vn 0 0 1
v 0.895788635253906 1.1613916015625 0.018
vn 0 0 1
v 0.903608337402344 1.16921142578125 0.018
vn 0 0 1
v 0.909137756347656 1.17878857421875 0.018
vn 0 0 1
v 0.912 1.18947058105469 0.018
vn 0 0 1
v 0.912 1.20052941894531 0.018
vn 0 0 1
v 0.909137756347656 1.21121142578125 0.018
vn 0 0 1
v 0.853788635253906 1.23413781738281 0.015
vn -0.5 0.866025388240814 0
v 0.844211364746094 1.2286083984375 0.015
vn -0.5 0.866025388240814 0
v 0.844211364746094 1.2286083984375 0.018
vn -0.5 0.866025388240814 0
v 0.853788635253906 1.23413781738281 0.018
vn -0.5 0.866025388240814 0
v 0.836391662597656 1.22078857421875 0.015
vn -0.866025388240814 0.5 0
v 0.830862243652344 1.21121142578125 0.015
vn -0.866025388240814 0.5 0
v 0.830862243652344 1.21121142578125 0.018
vn -0.866025388240814 0.5 0
v 0.836391662597656 1.22078857421875 0.018
vn -0.866025388240814 0.5 0
v 0.886211364746094 1.23413781738281 0.015
vn 0 0 1
v 0.895788635253906 1.2286083984375 0.015
vn 0 0 1
v 0.903608337402344 1.22078857421875 0.015
vn 0 0 1
v 0.909137756347656 1.21121142578125 0.015
vn 0 0 1
v 0.912 1.20052941894531 0.015
vn 0 0 1
v 0.912 1.18947058105469 0.015
vn 0 0 1
v 0.909137756347656 1.17878857421875 0.015
vn 0 0 1
v 0.903608337402344 1.16921142578125 0.015
vn 0 0 1
v 0.895788635253906 1.1613916015625 0.015
vn 0 0 1
v 0.886211364746094 1.15586218261719 0.015
vn 0 0 1
v 0.875529418945313 1.153 0.015
vn 0 0 1
v 0.864470581054688 1.153 0.015
vn 0 0 1
v 0.853788635253906 1.15586218261719 0.015
vn 0 0 1
v 0.844211364746094 1.1613916015625 0.015
vn 0 0 1
v 0.836391662597656 1.16921142578125 0.015
vn 0 0 1
v 0.830862243652344 1.17878857421875 0.015
vn 0 0 1
v 0.828 1.18947058105469 0.015
vn 0 0 1
v 0.828 1.20052941894531 0.015
vn 0 0 1
v 0.830862243652344 1.21121142578125 0.015
vn 0 0 1
v 0.836391662597656 1.22078857421875 0.015
vn 0 0 1
v 0.844211364746094 1.2286083984375 0.015
vn 0 0 1
v 0.853788635253906 1.23413781738281 0.015
vn 0 0 1
v 0.864470581054688 1.237 0.015
vn 0 0 1
v 0.875529418945313 1.237 0.015
vn 0 0 1
v 0.902511779785156 1.15892236328125 0.015
vn 0 0 1
v 0.908809631347656 1.16522033691406 0.015
vn 0 0 1
v 0.91519482421875 1.17627966308594 0.015
vn 0 0 1
v 0.9185 1.18861486816406 0.015
vn 0 0 1
v 0.9185 1.20138513183594 0.015
vn 0 0 1
v 0.91519482421875 1.21372033691406 0.015
vn 0 0 1
v 0.908809631347656 1.22477966308594 0.015
vn 0 0 1
v 0.902511779785156 1.23107763671875 0.015
vn 0 0 1
v 0.888334289550781 1.23926293945312 0.015
vn 0 0 1
v 0.876253479003906 1.2425 0.015
vn 0 0 1
v 0.863746520996094 1.2425 0.015
vn 0 0 1
v 0.851665710449219 1.23926293945312 0.015
vn 0 0 1
v 0.840834289550781 1.23300939941406 0.015
vn 0 0 1
v 0.831990539550781 1.22416564941406 0.015
vn 0 0 1
v 0.825737060546875 1.21333435058594 0.015
vn 0 0 1
v 0.8225 1.20125354003906 0.015
vn 0 0 1
v 0.8225 1.18874645996094 0.015
vn 0 0 1
v 0.825737060546875 1.17666564941406 0.015
vn 0 0 1
v 0.831990539550781 1.16583435058594 0.015
vn 0 0 1
v 0.840834289550781 1.15699060058594 0.015
vn 0 0 1
v 0.851665710449219 1.15073706054687 0.015
vn 0 0 1
v 0.863746520996094 1.1475 0.015
vn 0 0 1
v 0.876253479003906 1.1475 0.015
vn 0 0 1
v 0.888334289550781 1.15073706054687 0.015
vn 0 0 1
v 0.864470581054688 1.237 0.015
vn -0.258819043636322 0.965925812721252 0
v 0.853788635253906 1.23413781738281 0.015
vn -0.258819043636322 0.965925812721252 0
v 0.853788635253906 1.23413781738281 0.018
vn -0.258819043636322 0.965925812721252 0
v 0.864470581054688 1.237 0.018
vn -0.258819043636322 0.965925812721252 0
v 0.909137756347656 1.21121142578125 0.015
vn 0.866025388240814 0.5 0
v 0.903608337402344 1.22078857421875 0.015
vn 0.866025388240814 0.5 0
v 0.903608337402344 1.22078857421875 0.018
vn 0.866025388240814 0.5 0
v 0.909137756347656 1.21121142578125 0.018
vn 0.866025388240814 0.5 0
v 0.895788635253906 1.2286083984375 0.015
vn 0.5 0.866025388240814 0
v 0.886211364746094 1.23413781738281 0.015
vn 0.5 0.866025388240814 0
v 0.886211364746094 1.23413781738281 0.018
vn 0.5 0.866025388240814 0
v 0.895788635253906 1.2286083984375 0.018
vn 0.5 0.866025388240814 0
v 0.909137756347656 1.17878857421875 0.015
vn 0.965925812721252 -0.258819043636322 0
v 0.912 1.18947058105469 0.015
vn 0.965925812721252 -0.258819043636322 0
v 0.912 1.18947058105469 0.018
vn 0.965925812721252 -0.258819043636322 0
v 0.909137756347656 1.17878857421875 0.018
vn 0.965925812721252 -0.258819043636322 0
v 0.895788635253906 1.1613916015625 0.015
vn 0.70710676908493 -0.70710676908493 0
v 0.903608337402344 1.16921142578125 0.015
vn 0.70710676908493 -0.70710676908493 0
v 0.903608337402344 1.16921142578125 0.018
vn 0.70710676908493 -0.70710676908493 0
v 0.895788635253906 1.1613916015625 0.018
vn 0.70710676908493 -0.70710676908493 0
v 0.903608337402344 1.22078857421875 0.015
vn 0.70710676908493 0.70710676908493 0
v 0.895788635253906 1.2286083984375 0.015
vn 0.70710676908493 0.70710676908493 0
v 0.895788635253906 1.2286083984375 0.018
vn 0.70710676908493 0.70710676908493 0
v 0.903608337402344 1.22078857421875 0.018
vn 0.70710676908493 0.70710676908493 0
v 0.912 1.20052941894531 0.015
vn 0.965925812721252 0.258819043636322 0
v 0.909137756347656 1.21121142578125 0.015
vn 0.965925812721252 0.258819043636322 0
v 0.909137756347656 1.21121142578125 0.018
vn 0.965925812721252 0.258819043636322 0
v 0.912 1.20052941894531 0.018
vn 0.965925812721252 0.258819043636322 0
v 0.844211364746094 1.1613916015625 0.015
vn -0.5 -0.866025388240814 0
v 0.853788635253906 1.15586218261719 0.015
vn -0.5 -0.866025388240814 0
v 0.853788635253906 1.15586218261719 0.018
vn -0.5 -0.866025388240814 0
v 0.844211364746094 1.1613916015625 0.018
vn -0.5 -0.866025388240814 0
v 0.864470581054688 1.153 0.015
vn 0 -1 0
v 0.875529418945313 1.153 0.015
vn 0 -1 0
v 0.875529418945313 1.153 0.018
vn 0 -1 0
v 0.864470581054688 1.153 0.018
vn 0 -1 0
v 0.903608337402344 1.16921142578125 0.015
vn 0.866025388240814 -0.5 0
v 0.909137756347656 1.17878857421875 0.015
vn 0.866025388240814 -0.5 0
v 0.909137756347656 1.17878857421875 0.018
vn 0.866025388240814 -0.5 0
v 0.903608337402344 1.16921142578125 0.018
vn 0.866025388240814 -0.5 0
v 0.886211364746094 1.15586218261719 0.015
vn 0.5 -0.866025388240814 0
v 0.895788635253906 1.1613916015625 0.015
vn 0.5 -0.866025388240814 0
v 0.895788635253906 1.1613916015625 0.018
vn 0.5 -0.866025388240814 0
v 0.886211364746094 1.15586218261719 0.018
vn 0.5 -0.866025388240814 0
v 0.912 1.18947058105469 0.015
vn 1 0 0
v 0.912 1.20052941894531 0.015
vn 1 0 0
v 0.912 1.20052941894531 0.018
vn 1 0 0
v 0.912 1.18947058105469 0.018
vn 1 0 0
v 0.830862243652344 1.21121142578125 0.015
vn -0.965925812721252 0.258819043636322 0
v 0.828 1.20052941894531 0.015
vn -0.965925812721252 0.258819043636322 0
v 0.828 1.20052941894531 0.018
vn -0.965925812721252 0.258819043636322 0
v 0.830862243652344 1.21121142578125 0.018
vn -0.965925812721252 0.258819043636322 0
v 0.836391662597656 1.16921142578125 0.015
vn -0.70710676908493 -0.70710676908493 0
v 0.844211364746094 1.1613916015625 0.015
vn -0.70710676908493 -0.70710676908493 0
v 0.844211364746094 1.1613916015625 0.018
vn -0.70710676908493 -0.70710676908493 0
v 0.836391662597656 1.16921142578125 0.018
vn -0.70710676908493 -0.70710676908493 0
v 0.828 1.18947058105469 0.015
vn -0.965925812721252 -0.258819043636322 0
v 0.830862243652344 1.17878857421875 0.015
vn -0.965925812721252 -0.258819043636322 0
v 0.830862243652344 1.17878857421875 0.018
vn -0.965925812721252 -0.258819043636322 0
v 0.828 1.18947058105469 0.018
vn -0.965925812721252 -0.258819043636322 0
v 0.853788635253906 1.15586218261719 0.015
vn -0.258819043636322 -0.965925812721252 0
v 0.864470581054688 1.153 0.015
vn -0.258819043636322 -0.965925812721252 0
v 0.864470581054688 1.153 0.018
vn -0.258819043636322 -0.965925812721252 0
v 0.853788635253906 1.15586218261719 0.018
vn -0.258819043636322 -0.965925812721252 0
v 0.875529418945313 1.153 0.015
vn 0.258819043636322 -0.965925812721252 0
v 0.886211364746094 1.15586218261719 0.015
vn 0.258819043636322 -0.965925812721252 0
v 0.886211364746094 1.15586218261719 0.018
vn 0.258819043636322 -0.965925812721252 0
v 0.875529418945313 1.153 0.018
vn 0.258819043636322 -0.965925812721252 0
v 0.875529418945313 1.237 0.015
vn 0 1 0
v 0.864470581054688 1.237 0.015
vn 0 1 0
v 0.864470581054688 1.237 0.018
vn 0 1 0
v 0.875529418945313 1.237 0.018
vn 0 1 0
v 0.830862243652344 1.17878857421875 0.015
vn -0.866025388240814 -0.5 0
v 0.836391662597656 1.16921142578125 0.015
vn -0.866025388240814 -0.5 0
v 0.836391662597656 1.16921142578125 0.018
vn -0.866025388240814 -0.5 0
v 0.830862243652344 1.17878857421875 0.018
vn -0.866025388240814 -0.5 0
v 0.828 1.20052941894531 0.015
vn -1 0 0
v 0.828 1.18947058105469 0.015
vn -1 0 0
v 0.828 1.18947058105469 0.018
vn -1 0 0
v 0.828 1.20052941894531 0.018
vn -1 0 0
v 0.886211364746094 1.23413781738281 0.015
vn 0.258819043636322 0.965925812721252 0
v 0.875529418945313 1.237 0.015
vn 0.258819043636322 0.965925812721252 0
v 0.875529418945313 1.237 0.018
vn 0.258819043636322 0.965925812721252 0
v 0.886211364746094 1.23413781738281 0.018
vn 0.258819043636322 0.965925812721252 0
v 0.840220275878906 1.15619030761719 0
vn -0.705540657043457 -0.705540657043457 0.0665190070867538
v 0.840834289550781 1.15699060058594 0.015
vn -0.705540657043457 -0.705540657043457 0.0665190070867538
v 0.831990539550781 1.16583435058594 0.015
vn -0.705540657043457 -0.705540657043457 0.0665190070867538
v 0.831190368652344 1.16522033691406 0
vn -0.705540657043457 -0.705540657043457 0.0665190070867538
v 0.863614868164063 1.2435 0
vn 0 0.997785151004791 0.0665190070867538
v 0.863746520996094 1.2425 0.015
vn 0 0.997785151004791 0.0665190070867538
v 0.876253479003906 1.2425 0.015
vn 0 0.997785151004791 0.0665190070867538
v 0.876385131835937 1.2435 0
vn 0 0.997785151004791 0.0665190070867538
v 0.840220275878906 1.23380969238281 0
vn -0.498892575502396 0.864107310771942 0.0665190070867538
v 0.840834289550781 1.23300939941406 0.015
vn -0.498892575502396 0.864107310771942 0.0665190070867538
v 0.851665710449219 1.23926293945312 0.015
vn -0.498892575502396 0.864107310771942 0.0665190070867538
v 0.851279724121094 1.24019482421875 0
vn -0.498892575502396 0.864107310771942 0.0665190070867538
v 0.876385131835937 1.2435 0
vn 0.258245795965195 0.963786482810974 0.0665190070867538
v 0.876253479003906 1.2425 0.015
vn 0.258245795965195 0.963786482810974 0.0665190070867538
v 0.888334289550781 1.23926293945312 0.015
vn 0.258245795965195 0.963786482810974 0.0665190070867538
v 0.888720275878906 1.24019482421875 -8.67361737988404E-19
vn 0.258245795965195 0.963786482810974 0.0665190070867538
v 0.930626953125 1.21523022460938 0.01
vn 0.498892575502396 0.864107310771942 0.0665190070867538
v 0.930626953125 1.21570141601562 0.00387915945053101
vn 0.498892575502396 0.864107310771942 0.0665190070867538
v 0.93025830078125 1.216 0.00276470255851746
vn 0.498892575502396 0.864107310771942 0.0665190070867538
v 0.930626953125 1.216 0
vn 0.498892575502396 0.864107310771942 0.0665190070867538
v 0.888720275878906 1.24019482421875 -8.67361737988404E-19
vn 0.498892575502396 0.864107310771942 0.0665190070867538
v 0.888334289550781 1.23926293945312 0.015
vn 0.498892575502396 0.864107310771942 0.0665190070867538
v 0.902511779785156 1.23107763671875 0.015
vn 0.498892575502396 0.864107310771942 0.0665190070867538
v 0.90160107421875 1.23198828125 0.01
vn 0.498892575502396 0.864107310771942 0.0665190070867538
v 0.888720275878906 1.14980517578125 0
vn 0.258245795965195 -0.963786482810974 0.0665190070867538
v 0.888334289550781 1.15073706054687 0.015
vn 0.258245795965195 -0.963786482810974 0.0665190070867538
v 0.876253479003906 1.1475 0.015
vn 0.258245795965195 -0.963786482810974 0.0665190070867538
v 0.876385131835937 1.1465 8.67361737988404E-19
vn 0.258245795965195 -0.963786482810974 0.0665190070867538
v 0.8215 1.20138513183594 8.67361737988404E-19
vn -0.963786482810974 0.258245795965195 0.0665190070867538
v 0.8225 1.20125354003906 0.015
vn -0.963786482810974 0.258245795965195 0.0665190070867538
v 0.825737060546875 1.21333435058594 0.015
vn -0.963786482810974 0.258245795965195 0.0665190070867538
v 0.82480517578125 1.21372033691406 8.67361737988404E-19
vn -0.963786482810974 0.258245795965195 0.0665190070867538
v 0.90160107421875 1.23198828125 0.01
vn 0.70710676908493 0.70710676908493 0
v 0.902511779785156 1.23107763671875 0.015
vn 0.70710676908493 0.70710676908493 0
v 0.908809631347656 1.22477966308594 0.015
vn 0.70710676908493 0.70710676908493 0
v 0.908809631347656 1.22477966308594 0.01
vn 0.70710676908493 0.70710676908493 0
v 0.8215 1.18861486816406 0
vn -0.997785151004791 -5.42158737422725E-16 0.0665190070867538
v 0.8225 1.18874645996094 0.015
vn -0.997785151004791 -5.42158737422725E-16 0.0665190070867538
v 0.8225 1.20125354003906 0.015
vn -0.997785151004791 -5.42158737422725E-16 0.0665190070867538
v 0.8215 1.20138513183594 8.67361737988404E-19
vn -0.997785151004791 -5.42158737422725E-16 0.0665190070867538
v 0.82480517578125 1.17627966308594 0
vn -0.963786482810974 -0.258245795965195 0.0665190070867538
v 0.825737060546875 1.17666564941406 0.015
vn -0.963786482810974 -0.258245795965195 0.0665190070867538
v 0.8225 1.18874645996094 0.015
vn -0.963786482810974 -0.258245795965195 0.0665190070867538
v 0.8215 1.18861486816406 0
vn -0.963786482810974 -0.258245795965195 0.0665190070867538
v 0.851279724121094 1.24019482421875 0
vn -0.258245795965195 0.963786482810974 0.0665190070867538
v 0.851665710449219 1.23926293945312 0.015
vn -0.258245795965195 0.963786482810974 0.0665190070867538
v 0.863746520996094 1.2425 0.015
vn -0.258245795965195 0.963786482810974 0.0665190070867538
v 0.863614868164063 1.2435 0
vn -0.258245795965195 0.963786482810974 0.0665190070867538
v 0.902511779785156 1.15892236328125 0.015
vn 0.70710676908493 -0.70710676908493 0
v 0.90160107421875 1.15801171875 0.01
vn 0.70710676908493 -0.70710676908493 0
v 0.908809631347656 1.16522033691406 0.01
vn 0.70710676908493 -0.70710676908493 0
v 0.908809631347656 1.16522033691406 0.015
vn 0.70710676908493 -0.70710676908493 0
v 0.851279724121094 1.14980517578125 0
vn -0.498892575502396 -0.864107310771942 0.0665190070867538
v 0.851665710449219 1.15073706054687 0.015
vn -0.498892575502396 -0.864107310771942 0.0665190070867538
v 0.840834289550781 1.15699060058594 0.015
vn -0.498892575502396 -0.864107310771942 0.0665190070867538
v 0.840220275878906 1.15619030761719 0
vn -0.498892575502396 -0.864107310771942 0.0665190070867538
v 0.908809631347656 1.22477966308594 0.015
vn 0.866025388240814 0.5 0
v 0.91519482421875 1.21372033691406 0.015
vn 0.866025388240814 0.5 0
v 0.91519482421875 1.21372033691406 0.01
vn 0.866025388240814 0.5 0
v 0.908809631347656 1.22477966308594 0.01
vn 0.866025388240814 0.5 0
v 0.863614868164063 1.1465 8.67361737988404E-19
vn -0.258245795965195 -0.963786482810974 0.0665190070867538
v 0.863746520996094 1.1475 0.015
vn -0.258245795965195 -0.963786482810974 0.0665190070867538
v 0.851665710449219 1.15073706054687 0.015
vn -0.258245795965195 -0.963786482810974 0.0665190070867538
v 0.851279724121094 1.14980517578125 0
vn -0.258245795965195 -0.963786482810974 0.0665190070867538
v 0.876385131835937 1.1465 8.67361737988404E-19
vn 0 -0.997785151004791 0.0665190070867538
v 0.876253479003906 1.1475 0.015
vn 0 -0.997785151004791 0.0665190070867538
v 0.863746520996094 1.1475 0.015
vn 0 -0.997785151004791 0.0665190070867538
v 0.863614868164063 1.1465 8.67361737988404E-19
vn 0 -0.997785151004791 0.0665190070867538
v 0.831190368652344 1.22477966308594 -8.67361737988404E-19
vn -0.705540657043457 0.705540657043457 0.0665190070867538
v 0.831990539550781 1.22416564941406 0.015
vn -0.705540657043457 0.705540657043457 0.0665190070867538
v 0.840834289550781 1.23300939941406 0.015
vn -0.705540657043457 0.705540657043457 0.0665190070867538
v 0.840220275878906 1.23380969238281 0
vn -0.705540657043457 0.705540657043457 0.0665190070867538
v 0.82480517578125 1.21372033691406 8.67361737988404E-19
vn -0.864107310771942 0.498892575502396 0.0665190070867538
v 0.825737060546875 1.21333435058594 0.015
vn -0.864107310771942 0.498892575502396 0.0665190070867538
v 0.831990539550781 1.22416564941406 0.015
vn -0.864107310771942 0.498892575502396 0.0665190070867538
v 0.831190368652344 1.22477966308594 -8.67361737988404E-19
vn -0.864107310771942 0.498892575502396 0.0665190070867538
v 0.888720275878906 1.14980517578125 0
vn 0.498892575502396 -0.864107310771942 0.0665190070867538
v 0.930626953125 1.174 0
vn 0.498892575502396 -0.864107310771942 0.0665190070867538
v 0.93025830078125 1.174 0.00276470255851746
vn 0.498892575502396 -0.864107310771942 0.0665190070867538
v 0.930626953125 1.17429858398437 0.00387915945053101
vn 0.498892575502396 -0.864107310771942 0.0665190070867538
v 0.930626953125 1.17476977539062 0.01
vn 0.498892575502396 -0.864107310771942 0.0665190070867538
v 0.90160107421875 1.15801171875 0.01
vn 0.498892575502396 -0.864107310771942 0.0665190070867538
v 0.902511779785156 1.15892236328125 0.015
vn 0.498892575502396 -0.864107310771942 0.0665190070867538
v 0.888334289550781 1.15073706054687 0.015
vn 0.498892575502396 -0.864107310771942 0.0665190070867538
v 0.91519482421875 1.17627966308594 0.015
vn 0.866025388240814 -0.5 0
v 0.908809631347656 1.16522033691406 0.015
vn 0.866025388240814 -0.5 0
v 0.908809631347656 1.16522033691406 0.01
vn 0.866025388240814 -0.5 0
v 0.91519482421875 1.17627966308594 0.01
vn 0.866025388240814 -0.5 0
v 0.9185 1.18861486816406 0.015
vn 0.965925812721252 -0.258819043636322 0
v 0.91519482421875 1.17627966308594 0.015
vn 0.965925812721252 -0.258819043636322 0
v 0.91519482421875 1.17627966308594 0.01
vn 0.965925812721252 -0.258819043636322 0
v 0.9185 1.18861486816406 0.01
vn 0.965925812721252 -0.258819043636322 0
v 0.831190368652344 1.16522033691406 0
vn -0.864107310771942 -0.498892575502396 0.0665190070867538
v 0.831990539550781 1.16583435058594 0.015
vn -0.864107310771942 -0.498892575502396 0.0665190070867538
v 0.825737060546875 1.17666564941406 0.015
vn -0.864107310771942 -0.498892575502396 0.0665190070867538
v 0.82480517578125 1.17627966308594 0
vn -0.864107310771942 -0.498892575502396 0.0665190070867538
v 0.91519482421875 1.21372033691406 0.015
vn 0.965925812721252 0.258819043636322 0
v 0.9185 1.20138513183594 0.015
vn 0.965925812721252 0.258819043636322 0
v 0.9185 1.20138513183594 0.01
vn 0.965925812721252 0.258819043636322 0
v 0.91519482421875 1.21372033691406 0.01
vn 0.965925812721252 0.258819043636322 0
v 0.9185 1.18861486816406 0.01
vn -1 0 0
v 0.9185 1.17652478027344 0.01
vn -1 0 0
v 0.9185 1.17819580078125 0.0128943023681641
vn -1 0 0
v 0.9185 1.18210571289062 0.0168041820526123
vn -1 0 0
v 0.9185 1.18689428710938 0.019568883895874
vn -1 0 0
v 0.9185 1.1922353515625 0.021
vn -1 0 0
v 0.9185 1.1977646484375 0.021
vn -1 0 0
v 0.9185 1.20310571289063 0.019568883895874
vn -1 0 0
v 0.9185 1.20789428710937 0.0168041820526123
vn -1 0 0
v 0.9185 1.21180419921875 0.0128943023681641
vn -1 0 0
v 0.9185 1.21347521972656 0.01
vn -1 0 0
v 0.9185 1.20138513183594 0.01
vn -1 0 0
v 0.9185 1.20138513183594 0.015
vn -1 0 0
v 0.9185 1.18861486816406 0.015
vn -1 0 0
v 0.840834289550781 1.15699060058594 -0.015
vn -0.705540657043457 -0.705540657043457 -0.0665190070867538
v 0.840220275878906 1.15619030761719 0
vn -0.705540657043457 -0.705540657043457 -0.0665190070867538
v 0.831190368652344 1.16522033691406 0
vn -0.705540657043457 -0.705540657043457 -0.0665190070867538
v 0.831990539550781 1.16583435058594 -0.015
vn -0.705540657043457 -0.705540657043457 -0.0665190070867538
v 0.863746520996094 1.2425 -0.015
vn 0 0.997785151004791 -0.0665190070867538
v 0.863614868164063 1.2435 0
vn 0 0.997785151004791 -0.0665190070867538
v 0.876385131835937 1.2435 0
vn 0 0.997785151004791 -0.0665190070867538
v 0.876253479003906 1.2425 -0.015
vn 0 0.997785151004791 -0.0665190070867538
v 0.840834289550781 1.23300939941406 -0.015
vn -0.498892575502396 0.864107310771942 -0.0665190070867538
v 0.840220275878906 1.23380969238281 0
vn -0.498892575502396 0.864107310771942 -0.0665190070867538
v 0.851279724121094 1.24019482421875 0
vn -0.498892575502396 0.864107310771942 -0.0665190070867538
v 0.851665710449219 1.23926293945312 -0.015
vn -0.498892575502396 0.864107310771942 -0.0665190070867538
v 0.876253479003906 1.2425 -0.015
vn 0.258245795965195 0.963786482810974 -0.0665190070867538
v 0.876385131835937 1.2435 0
vn 0.258245795965195 0.963786482810974 -0.0665190070867538
v 0.888720275878906 1.24019482421875 -8.67361737988404E-19
vn 0.258245795965195 0.963786482810974 -0.0665190070867538
v 0.888334289550781 1.23926293945312 -0.015
vn 0.258245795965195 0.963786482810974 -0.0665190070867538
v 0.930626953125 1.216 0
vn 0 1 0
v 0.93025830078125 1.216 0.00276470255851746
vn 0 1 0
v 0.9435 1.216 0.00276470255851746
vn 0 1 0
v 0.9435 1.216 -0.00276470255851746
vn 0 1 0
v 0.93025830078125 1.216 -0.00276470255851746
vn 0 1 0
v 0.930626953125 1.21523022460938 0.01
vn 1 -1.74824622463082E-16 -4.7605093932352E-16
v 0.930626953125 1.21347521972656 0.01
vn 1 -1.74824622463082E-16 -4.7605093932352E-16
v 0.930626953125 1.21456884765625 0.00810569763183594
vn 1 -1.74824622463082E-16 -4.7605093932352E-16
v 0.930626953125 1.21570141601562 0.00387915945053101
vn 1 -1.74824622463082E-16 -4.7605093932352E-16
v 0.888720275878906 1.24019482421875 -8.67361737988404E-19
vn 0.498892575502396 0.864107310771942 -0.0665190070867538
v 0.930626953125 1.216 0
vn 0.498892575502396 0.864107310771942 -0.0665190070867538
v 0.93025830078125 1.216 -0.00276470255851746
vn 0.498892575502396 0.864107310771942 -0.0665190070867538
v 0.930626953125 1.21570141601562 -0.00387915945053101
vn 0.498892575502396 0.864107310771942 -0.0665190070867538
v 0.930626953125 1.21523022460938 -0.01
vn 0.498892575502396 0.864107310771942 -0.0665190070867538
v 0.90160107421875 1.23198828125 -0.01
vn 0.498892575502396 0.864107310771942 -0.0665190070867538
v 0.902511779785156 1.23107763671875 -0.015
vn 0.498892575502396 0.864107310771942 -0.0665190070867538
v 0.888334289550781 1.23926293945312 -0.015
vn 0.498892575502396 0.864107310771942 -0.0665190070867538
v 0.9185 1.21347521972656 0.01
vn 0 0 1
v 0.930626953125 1.21347521972656 0.01
vn 0 0 1
v 0.930626953125 1.21523022460938 0.01
vn 0 0 1
v 0.90160107421875 1.23198828125 0.01
vn 0 0 1
v 0.908809631347656 1.22477966308594 0.01
vn 0 0 1
v 0.91519482421875 1.21372033691406 0.01
vn 0 0 1
v 0.9185 1.20138513183594 0.01
vn 0 0 1
v 0.930626953125 1.21570141601562 0.00387915945053101
vn 0 0.965925812721252 0.258819043636322
v 0.930626953125 1.21456884765625 0.00810569763183594
vn 0 0.965925812721252 0.258819043636322
v 0.9435 1.21456884765625 0.00810569763183594
vn 0 0.965925812721252 0.258819043636322
v 0.9435 1.216 0.00276470255851746
vn 0 0.965925812721252 0.258819043636322
v 0.93025830078125 1.216 0.00276470255851746
vn 0 0.965925812721252 0.258819043636322
v 0.888334289550781 1.15073706054687 -0.015
vn 0.258245795965195 -0.963786482810974 -0.0665190070867538
v 0.888720275878906 1.14980517578125 0
vn 0.258245795965195 -0.963786482810974 -0.0665190070867538
v 0.876385131835937 1.1465 8.67361737988404E-19
vn 0.258245795965195 -0.963786482810974 -0.0665190070867538
v 0.876253479003906 1.1475 -0.015
vn 0.258245795965195 -0.963786482810974 -0.0665190070867538
v 0.8225 1.20125354003906 -0.015
vn -0.963786482810974 0.258245795965195 -0.0665190070867538
v 0.8215 1.20138513183594 8.67361737988404E-19
vn -0.963786482810974 0.258245795965195 -0.0665190070867538
v 0.82480517578125 1.21372033691406 8.67361737988404E-19
vn -0.963786482810974 0.258245795965195 -0.0665190070867538
v 0.825737060546875 1.21333435058594 -0.015
vn -0.963786482810974 0.258245795965195 -0.0665190070867538
v 0.8225 1.18874645996094 -0.015
vn -0.997785151004791 -5.42158737422725E-16 -0.0665190070867538
v 0.8215 1.18861486816406 0
vn -0.997785151004791 -5.42158737422725E-16 -0.0665190070867538
v 0.8215 1.20138513183594 8.67361737988404E-19
vn -0.997785151004791 -5.42158737422725E-16 -0.0665190070867538
v 0.8225 1.20125354003906 -0.015
vn -0.997785151004791 -5.42158737422725E-16 -0.0665190070867538
v 0.825737060546875 1.17666564941406 -0.015
vn -0.963786482810974 -0.258245795965195 -0.0665190070867538
v 0.82480517578125 1.17627966308594 0
vn -0.963786482810974 -0.258245795965195 -0.0665190070867538
v 0.8215 1.18861486816406 0
vn -0.963786482810974 -0.258245795965195 -0.0665190070867538
v 0.8225 1.18874645996094 -0.015
vn -0.963786482810974 -0.258245795965195 -0.0665190070867538
v 0.851665710449219 1.23926293945312 -0.015
vn -0.258245795965195 0.963786482810974 -0.0665190070867538
v 0.851279724121094 1.24019482421875 0
vn -0.258245795965195 0.963786482810974 -0.0665190070867538
v 0.863614868164063 1.2435 0
vn -0.258245795965195 0.963786482810974 -0.0665190070867538
v 0.863746520996094 1.2425 -0.015
vn -0.258245795965195 0.963786482810974 -0.0665190070867538
v 0.930626953125 1.17652478027344 0.01
vn 0 0 1
v 0.9185 1.17652478027344 0.01
vn 0 0 1
v 0.9185 1.18861486816406 0.01
vn 0 0 1
v 0.91519482421875 1.17627966308594 0.01
vn 0 0 1
v 0.908809631347656 1.16522033691406 0.01
vn 0 0 1
v 0.90160107421875 1.15801171875 0.01
vn 0 0 1
v 0.930626953125 1.17476977539062 0.01
vn 0 0 1
v 0.851665710449219 1.15073706054687 -0.015
vn -0.498892575502396 -0.864107310771942 -0.0665190070867538
v 0.851279724121094 1.14980517578125 0
vn -0.498892575502396 -0.864107310771942 -0.0665190070867538
v 0.840220275878906 1.15619030761719 0
vn -0.498892575502396 -0.864107310771942 -0.0665190070867538
v 0.840834289550781 1.15699060058594 -0.015
vn -0.498892575502396 -0.864107310771942 -0.0665190070867538
v 0.863746520996094 1.1475 -0.015
vn -0.258245795965195 -0.963786482810974 -0.0665190070867538
v 0.863614868164063 1.1465 8.67361737988404E-19
vn -0.258245795965195 -0.963786482810974 -0.0665190070867538
v 0.851279724121094 1.14980517578125 0
vn -0.258245795965195 -0.963786482810974 -0.0665190070867538
v 0.851665710449219 1.15073706054687 -0.015
vn -0.258245795965195 -0.963786482810974 -0.0665190070867538
v 0.876253479003906 1.1475 -0.015
vn 0 -0.997785151004791 -0.0665190070867538
v 0.876385131835937 1.1465 8.67361737988404E-19
vn 0 -0.997785151004791 -0.0665190070867538
v 0.863614868164063 1.1465 8.67361737988404E-19
vn 0 -0.997785151004791 -0.0665190070867538
v 0.863746520996094 1.1475 -0.015
vn 0 -0.997785151004791 -0.0665190070867538
v 0.831990539550781 1.22416564941406 -0.015
vn -0.705540657043457 0.705540657043457 -0.0665190070867538
v 0.831190368652344 1.22477966308594 -8.67361737988404E-19
vn -0.705540657043457 0.705540657043457 -0.0665190070867538
v 0.840220275878906 1.23380969238281 0
vn -0.705540657043457 0.705540657043457 -0.0665190070867538
v 0.840834289550781 1.23300939941406 -0.015
vn -0.705540657043457 0.705540657043457 -0.0665190070867538
v 0.825737060546875 1.21333435058594 -0.015
vn -0.864107310771942 0.498892575502396 -0.0665190070867538
v 0.82480517578125 1.21372033691406 8.67361737988404E-19
vn -0.864107310771942 0.498892575502396 -0.0665190070867538
v 0.831190368652344 1.22477966308594 -8.67361737988404E-19
vn -0.864107310771942 0.498892575502396 -0.0665190070867538
v 0.831990539550781 1.22416564941406 -0.015
vn -0.864107310771942 0.498892575502396 -0.0665190070867538
v 0.930626953125 1.17543115234375 0.00810569763183594
vn 0 -0.965925812721252 0.258819043636322
v 0.930626953125 1.17429858398437 0.00387915945053101
vn 0 -0.965925812721252 0.258819043636322
v 0.93025830078125 1.174 0.00276470255851746
vn 0 -0.965925812721252 0.258819043636322
v 0.9435 1.174 0.00276470255851746
vn 0 -0.965925812721252 0.258819043636322
v 0.9435 1.17543115234375 0.00810569763183594
vn 0 -0.965925812721252 0.258819043636322
v 0.930626953125 1.17476977539062 0.01
vn 1 -1.74824622463082E-16 -4.7605093932352E-16
v 0.930626953125 1.17429858398437 0.00387915945053101
vn 1 -1.74824622463082E-16 -4.7605093932352E-16
v 0.930626953125 1.17543115234375 0.00810569763183594
vn 1 -1.74824622463082E-16 -4.7605093932352E-16
v 0.930626953125 1.17652478027344 0.01
vn 1 -1.74824622463082E-16 -4.7605093932352E-16
v 0.930626953125 1.17476977539062 -0.01
vn 0.498892575502396 -0.864107310771942 -0.0665190070867538
v 0.930626953125 1.17429858398437 -0.00387915945053101
vn 0.498892575502396 -0.864107310771942 -0.0665190070867538
v 0.93025830078125 1.174 -0.00276470255851746
vn 0.498892575502396 -0.864107310771942 -0.0665190070867538
v 0.930626953125 1.174 0
vn 0.498892575502396 -0.864107310771942 -0.0665190070867538
v 0.888720275878906 1.14980517578125 0
vn 0.498892575502396 -0.864107310771942 -0.0665190070867538
v 0.888334289550781 1.15073706054687 -0.015
vn 0.498892575502396 -0.864107310771942 -0.0665190070867538
v 0.902511779785156 1.15892236328125 -0.015
vn 0.498892575502396 -0.864107310771942 -0.0665190070867538
v 0.90160107421875 1.15801171875 -0.01
vn 0.498892575502396 -0.864107310771942 -0.0665190070867538
v 0.93025830078125 1.174 0.00276470255851746
vn 0 -1 0
v 0.930626953125 1.174 0
vn 0 -1 0
v 0.93025830078125 1.174 -0.00276470255851746
vn 0 -1 0
v 0.9435 1.174 -0.00276470255851746
vn 0 -1 0
v 0.9435 1.174 0.00276470255851746
vn 0 -1 0
v 0.831990539550781 1.16583435058594 -0.015
vn -0.864107310771942 -0.498892575502396 -0.0665190070867538
v 0.831190368652344 1.16522033691406 0
vn -0.864107310771942 -0.498892575502396 -0.0665190070867538
v 0.82480517578125 1.17627966308594 0
vn -0.864107310771942 -0.498892575502396 -0.0665190070867538
v 0.825737060546875 1.17666564941406 -0.015
vn -0.864107310771942 -0.498892575502396 -0.0665190070867538
v 0.9185 1.21180419921875 0.0128943023681641
vn 0 0.70710676908493 0.70710676908493
v 0.9185 1.20789428710937 0.0168041820526123
vn 0 0.70710676908493 0.70710676908493
v 0.9435 1.20789428710937 0.0168041820526123
vn 0 0.70710676908493 0.70710676908493
v 0.9435 1.21180419921875 0.0128943023681641
vn 0 0.70710676908493 0.70710676908493
v 0.9185 1.20310571289063 0.019568883895874
vn 0 0.258819043636322 0.965925812721252
v 0.9185 1.1977646484375 0.021
vn 0 0.258819043636322 0.965925812721252
v 0.9435 1.1977646484375 0.021
vn 0 0.258819043636322 0.965925812721252
v 0.9435 1.20310571289063 0.019568883895874
vn 0 0.258819043636322 0.965925812721252
v 0.9185 1.1922353515625 0.021
vn 0 -0.258819043636322 0.965925812721252
v 0.9185 1.18689428710938 0.019568883895874
vn 0 -0.258819043636322 0.965925812721252
v 0.9435 1.18689428710938 0.019568883895874
vn 0 -0.258819043636322 0.965925812721252
v 0.9435 1.1922353515625 0.021
vn 0 -0.258819043636322 0.965925812721252
v 0.9185 1.1977646484375 0.021
vn 0 -6.27453949359608E-16 1
v 0.9185 1.1922353515625 0.021
vn 0 -6.27453949359608E-16 1
v 0.9435 1.1922353515625 0.021
vn 0 -6.27453949359608E-16 1
v 0.9435 1.1977646484375 0.021
vn 0 -6.27453949359608E-16 1
v 0.9185 1.18689428710938 0.019568883895874
vn 0 -0.5 0.866025388240814
v 0.9185 1.18210571289062 0.0168041820526123
vn 0 -0.5 0.866025388240814
v 0.9435 1.18210571289062 0.0168041820526123
vn 0 -0.5 0.866025388240814
v 0.9435 1.18689428710938 0.019568883895874
vn 0 -0.5 0.866025388240814
v 0.9185 1.20789428710937 0.0168041820526123
vn 0 0.5 0.866025388240814
v 0.9185 1.20310571289063 0.019568883895874
vn 0 0.5 0.866025388240814
v 0.9435 1.20310571289063 0.019568883895874
vn 0 0.5 0.866025388240814
v 0.9435 1.20789428710937 0.0168041820526123
vn 0 0.5 0.866025388240814
v 0.9185 1.18210571289062 0.0168041820526123
vn 0 -0.70710676908493 0.70710676908493
v 0.9185 1.17819580078125 0.0128943023681641
vn 0 -0.70710676908493 0.70710676908493
v 0.9435 1.17819580078125 0.0128943023681641
vn 0 -0.70710676908493 0.70710676908493
v 0.9435 1.18210571289062 0.0168041820526123
vn 0 -0.70710676908493 0.70710676908493
v 0.930626953125 1.21456884765625 0.00810569763183594
vn 0 0.866025388240814 0.5
v 0.930626953125 1.21347521972656 0.01
vn 0 0.866025388240814 0.5
v 0.9185 1.21347521972656 0.01
vn 0 0.866025388240814 0.5
v 0.9185 1.21180419921875 0.0128943023681641
vn 0 0.866025388240814 0.5
v 0.9435 1.21180419921875 0.0128943023681641
vn 0 0.866025388240814 0.5
v 0.9435 1.21456884765625 0.00810569763183594
vn 0 0.866025388240814 0.5
v 0.930626953125 1.17652478027344 0.01
vn 0 -0.866025388240814 0.5
v 0.930626953125 1.17543115234375 0.00810569763183594
vn 0 -0.866025388240814 0.5
v 0.9435 1.17543115234375 0.00810569763183594
vn 0 -0.866025388240814 0.5
v 0.9435 1.17819580078125 0.0128943023681641
vn 0 -0.866025388240814 0.5
v 0.9185 1.17819580078125 0.0128943023681641
vn 0 -0.866025388240814 0.5
v 0.9185 1.17652478027344 0.01
vn 0 -0.866025388240814 0.5
v 0.888334289550781 1.23926293945312 -0.015
vn 0 0 -1
v 0.902511779785156 1.23107763671875 -0.015
vn 0 0 -1
v 0.908809631347656 1.22477966308594 -0.015
vn 0 0 -1
v 0.91519482421875 1.21372033691406 -0.015
vn 0 0 -1
v 0.9185 1.20138513183594 -0.015
vn 0 0 -1
v 0.9185 1.18861486816406 -0.015
vn 0 0 -1
v 0.91519482421875 1.17627966308594 -0.015
vn 0 0 -1
v 0.908809631347656 1.16522033691406 -0.015
vn 0 0 -1
v 0.902511779785156 1.15892236328125 -0.015
vn 0 0 -1
v 0.888334289550781 1.15073706054687 -0.015
vn 0 0 -1
v 0.876253479003906 1.1475 -0.015
vn 0 0 -1
v 0.863746520996094 1.1475 -0.015
vn 0 0 -1
v 0.851665710449219 1.15073706054687 -0.015
vn 0 0 -1
v 0.840834289550781 1.15699060058594 -0.015
vn 0 0 -1
v 0.831990539550781 1.16583435058594 -0.015
vn 0 0 -1
v 0.825737060546875 1.17666564941406 -0.015
vn 0 0 -1
v 0.8225 1.18874645996094 -0.015
vn 0 0 -1
v 0.8225 1.20125354003906 -0.015
vn 0 0 -1
v 0.825737060546875 1.21333435058594 -0.015
vn 0 0 -1
v 0.831990539550781 1.22416564941406 -0.015
vn 0 0 -1
v 0.840834289550781 1.23300939941406 -0.015
vn 0 0 -1
v 0.851665710449219 1.23926293945312 -0.015
vn 0 0 -1
v 0.863746520996094 1.2425 -0.015
vn 0 0 -1
v 0.876253479003906 1.2425 -0.015
vn 0 0 -1
v 0.903608337402344 1.22078857421875 -0.015
vn 0 0 -1
v 0.895788635253906 1.2286083984375 -0.015
vn 0 0 -1
v 0.886211364746094 1.23413781738281 -0.015
vn 0 0 -1
v 0.875529418945313 1.237 -0.015
vn 0 0 -1
v 0.864470581054688 1.237 -0.015
vn 0 0 -1
v 0.853788635253906 1.23413781738281 -0.015
vn 0 0 -1
v 0.844211364746094 1.2286083984375 -0.015
vn 0 0 -1
v 0.836391662597656 1.22078857421875 -0.015
vn 0 0 -1
v 0.830862243652344 1.21121142578125 -0.015
vn 0 0 -1
v 0.828 1.20052941894531 -0.015
vn 0 0 -1
v 0.828 1.18947058105469 -0.015
vn 0 0 -1
v 0.830862243652344 1.17878857421875 -0.015
vn 0 0 -1
v 0.836391662597656 1.16921142578125 -0.015
vn 0 0 -1
v 0.844211364746094 1.1613916015625 -0.015
vn 0 0 -1
v 0.853788635253906 1.15586218261719 -0.015
vn 0 0 -1
v 0.864470581054688 1.153 -0.015
vn 0 0 -1
v 0.875529418945313 1.153 -0.015
vn 0 0 -1
v 0.886211364746094 1.15586218261719 -0.015
vn 0 0 -1
v 0.895788635253906 1.1613916015625 -0.015
vn 0 0 -1
v 0.903608337402344 1.16921142578125 -0.015
vn 0 0 -1
v 0.909137756347656 1.17878857421875 -0.015
vn 0 0 -1
v 0.912 1.18947058105469 -0.015
vn 0 0 -1
v 0.912 1.20052941894531 -0.015
vn 0 0 -1
v 0.909137756347656 1.21121142578125 -0.015
vn 0 0 -1
v 0.9435 1.21180419921875 0.0128943023681641
vn 1 0 0
v 0.9435 1.20789428710937 0.0168041820526123
vn 1 0 0
v 0.9435 1.20310571289063 0.019568883895874
vn 1 0 0
v 0.9435 1.1977646484375 0.021
vn 1 0 0
v 0.9435 1.1922353515625 0.021
vn 1 0 0
v 0.9435 1.18689428710938 0.019568883895874
vn 1 0 0
v 0.9435 1.18210571289062 0.0168041820526123
vn 1 0 0
v 0.9435 1.17819580078125 0.0128943023681641
vn 1 0 0
v 0.9435 1.17543115234375 0.00810569763183594
vn 1 0 0
v 0.9435 1.174 0.00276470255851746
vn 1 0 0
v 0.9435 1.174 -0.00276470255851746
vn 1 0 0
v 0.9435 1.17543115234375 -0.00810569763183594
vn 1 0 0
v 0.9435 1.17819580078125 -0.0128943023681641
vn 1 0 0
v 0.9435 1.18210571289062 -0.0168041820526123
vn 1 0 0
v 0.9435 1.18689428710938 -0.019568883895874
vn 1 0 0
v 0.9435 1.1922353515625 -0.021
vn 1 0 0
v 0.9435 1.1977646484375 -0.021
vn 1 0 0
v 0.9435 1.20310571289063 -0.019568883895874
vn 1 0 0
v 0.9435 1.20789428710937 -0.0168041820526123
vn 1 0 0
v 0.9435 1.21180419921875 -0.0128943023681641
vn 1 0 0
v 0.9435 1.21456884765625 -0.00810569763183594
vn 1 0 0
v 0.9435 1.216 -0.00276470255851746
vn 1 0 0
v 0.9435 1.216 0.00276470255851746
vn 1 0 0
v 0.9435 1.21456884765625 0.00810569763183594
vn 1 0 0
v 0.930626953125 1.21456884765625 -0.00810569763183594
vn 0 0.965925812721252 -0.258819043636322
v 0.930626953125 1.21570141601562 -0.00387915945053101
vn 0 0.965925812721252 -0.258819043636322
v 0.93025830078125 1.216 -0.00276470255851746
vn 0 0.965925812721252 -0.258819043636322
v 0.9435 1.216 -0.00276470255851746
vn 0 0.965925812721252 -0.258819043636322
v 0.9435 1.21456884765625 -0.00810569763183594
vn 0 0.965925812721252 -0.258819043636322
v 0.90160107421875 1.23198828125 -0.01
vn 0.70710676908493 0.70710676908493 0
v 0.908809631347656 1.22477966308594 -0.01
vn 0.70710676908493 0.70710676908493 0
v 0.908809631347656 1.22477966308594 -0.015
vn 0.70710676908493 0.70710676908493 0
v 0.902511779785156 1.23107763671875 -0.015
vn 0.70710676908493 0.70710676908493 0
v 0.930626953125 1.21523022460938 -0.01
vn 1 -1.74824622463082E-16 -4.7605093932352E-16
v 0.930626953125 1.21570141601562 -0.00387915945053101
vn 1 -1.74824622463082E-16 -4.7605093932352E-16
v 0.930626953125 1.21456884765625 -0.00810569763183594
vn 1 -1.74824622463082E-16 -4.7605093932352E-16
v 0.930626953125 1.21347521972656 -0.01
vn 1 -1.74824622463082E-16 -4.7605093932352E-16
v 0.930626953125 1.21347521972656 -0.01
vn 0 0 -1
v 0.9185 1.21347521972656 -0.01
vn 0 0 -1
v 0.9185 1.20138513183594 -0.01
vn 0 0 -1
v 0.91519482421875 1.21372033691406 -0.01
vn 0 0 -1
v 0.908809631347656 1.22477966308594 -0.01
vn 0 0 -1
v 0.90160107421875 1.23198828125 -0.01
vn 0 0 -1
v 0.930626953125 1.21523022460938 -0.01
vn 0 0 -1
v 0.902511779785156 1.15892236328125 -0.015
vn 0.70710676908493 -0.70710676908493 0
v 0.908809631347656 1.16522033691406 -0.015
vn 0.70710676908493 -0.70710676908493 0
v 0.908809631347656 1.16522033691406 -0.01
vn 0.70710676908493 -0.70710676908493 0
v 0.90160107421875 1.15801171875 -0.01
vn 0.70710676908493 -0.70710676908493 0
v 0.930626953125 1.17429858398437 -0.00387915945053101
vn 0 -0.965925812721252 -0.258819043636322
v 0.930626953125 1.17543115234375 -0.00810569763183594
vn 0 -0.965925812721252 -0.258819043636322
v 0.9435 1.17543115234375 -0.00810569763183594
vn 0 -0.965925812721252 -0.258819043636322
v 0.9435 1.174 -0.00276470255851746
vn 0 -0.965925812721252 -0.258819043636322
v 0.93025830078125 1.174 -0.00276470255851746
vn 0 -0.965925812721252 -0.258819043636322
v 0.930626953125 1.17476977539062 -0.01
vn 1 -1.74824622463082E-16 -4.7605093932352E-16
v 0.930626953125 1.17652478027344 -0.01
vn 1 -1.74824622463082E-16 -4.7605093932352E-16
v 0.930626953125 1.17543115234375 -0.00810569763183594
vn 1 -1.74824622463082E-16 -4.7605093932352E-16
v 0.930626953125 1.17429858398437 -0.00387915945053101
vn 1 -1.74824622463082E-16 -4.7605093932352E-16
v 0.9185 1.17652478027344 -0.01
vn 0 0 -1
v 0.930626953125 1.17652478027344 -0.01
vn 0 0 -1
v 0.930626953125 1.17476977539062 -0.01
vn 0 0 -1
v 0.90160107421875 1.15801171875 -0.01
vn 0 0 -1
v 0.908809631347656 1.16522033691406 -0.01
vn 0 0 -1
v 0.91519482421875 1.17627966308594 -0.01
vn 0 0 -1
v 0.9185 1.18861486816406 -0.01
vn 0 0 -1
v 0.828 1.20052941894531 -0.015
vn -0.965925812721252 0.258819043636322 0
v 0.830862243652344 1.21121142578125 -0.015
vn -0.965925812721252 0.258819043636322 0
v 0.830862243652344 1.21121142578125 -0.018
vn -0.965925812721252 0.258819043636322 0
v 0.828 1.20052941894531 -0.018
vn -0.965925812721252 0.258819043636322 0
v 0.895788635253906 1.2286083984375 -0.015
vn 0.70710676908493 0.70710676908493 0
v 0.903608337402344 1.22078857421875 -0.015
vn 0.70710676908493 0.70710676908493 0
v 0.903608337402344 1.22078857421875 -0.018
vn 0.70710676908493 0.70710676908493 0
v 0.895788635253906 1.2286083984375 -0.018
vn 0.70710676908493 0.70710676908493 0
v 0.836391662597656 1.22078857421875 -0.015
vn -0.70710676908493 0.70710676908493 0
v 0.844211364746094 1.2286083984375 -0.015
vn -0.70710676908493 0.70710676908493 0
v 0.844211364746094 1.2286083984375 -0.018
vn -0.70710676908493 0.70710676908493 0
v 0.836391662597656 1.22078857421875 -0.018
vn -0.70710676908493 0.70710676908493 0
v 0.853788635253906 1.23413781738281 -0.015
vn -0.258819043636322 0.965925812721252 0
v 0.864470581054688 1.237 -0.015
vn -0.258819043636322 0.965925812721252 0
v 0.864470581054688 1.237 -0.018
vn -0.258819043636322 0.965925812721252 0
v 0.853788635253906 1.23413781738281 -0.018
vn -0.258819043636322 0.965925812721252 0
v 0.853788635253906 1.15586218261719 -0.015
vn -0.5 -0.866025388240814 0
v 0.844211364746094 1.1613916015625 -0.015
vn -0.5 -0.866025388240814 0
v 0.844211364746094 1.1613916015625 -0.018
vn -0.5 -0.866025388240814 0
v 0.853788635253906 1.15586218261719 -0.018
vn -0.5 -0.866025388240814 0
v 0.875529418945313 1.237 -0.015
vn 0.258819043636322 0.965925812721252 0
v 0.886211364746094 1.23413781738281 -0.015
vn 0.258819043636322 0.965925812721252 0
v 0.886211364746094 1.23413781738281 -0.018
vn 0.258819043636322 0.965925812721252 0
v 0.875529418945313 1.237 -0.018
vn 0.258819043636322 0.965925812721252 0
v 0.836391662597656 1.16921142578125 -0.015
vn -0.866025388240814 -0.5 0
v 0.830862243652344 1.17878857421875 -0.015
vn -0.866025388240814 -0.5 0
v 0.830862243652344 1.17878857421875 -0.018
vn -0.866025388240814 -0.5 0
v 0.836391662597656 1.16921142578125 -0.018
vn -0.866025388240814 -0.5 0
v 0.828 1.18947058105469 -0.015
vn -1 0 0
v 0.828 1.20052941894531 -0.015
vn -1 0 0
v 0.828 1.20052941894531 -0.018
vn -1 0 0
v 0.828 1.18947058105469 -0.018
vn -1 0 0
v 0.830862243652344 1.21121142578125 -0.015
vn -0.866025388240814 0.5 0
v 0.836391662597656 1.22078857421875 -0.015
vn -0.866025388240814 0.5 0
v 0.836391662597656 1.22078857421875 -0.018
vn -0.866025388240814 0.5 0
v 0.830862243652344 1.21121142578125 -0.018
vn -0.866025388240814 0.5 0
v 0.903608337402344 1.16921142578125 -0.015
vn 0.70710676908493 -0.70710676908493 0
v 0.895788635253906 1.1613916015625 -0.015
vn 0.70710676908493 -0.70710676908493 0
v 0.895788635253906 1.1613916015625 -0.018
vn 0.70710676908493 -0.70710676908493 0
v 0.903608337402344 1.16921142578125 -0.018
vn 0.70710676908493 -0.70710676908493 0
v 0.844211364746094 1.2286083984375 -0.015
vn -0.5 0.866025388240814 0
v 0.853788635253906 1.23413781738281 -0.015
vn -0.5 0.866025388240814 0
v 0.853788635253906 1.23413781738281 -0.018
vn -0.5 0.866025388240814 0
v 0.844211364746094 1.2286083984375 -0.018
vn -0.5 0.866025388240814 0
v 0.886211364746094 1.15586218261719 -0.015
vn 0.258819043636322 -0.965925812721252 0
v 0.875529418945313 1.153 -0.015
vn 0.258819043636322 -0.965925812721252 0
v 0.875529418945313 1.153 -0.018
vn 0.258819043636322 -0.965925812721252 0
v 0.886211364746094 1.15586218261719 -0.018
vn 0.258819043636322 -0.965925812721252 0
v 0.864470581054688 1.153 -0.015
vn -0.258819043636322 -0.965925812721252 0
v 0.853788635253906 1.15586218261719 -0.015
vn -0.258819043636322 -0.965925812721252 0
v 0.853788635253906 1.15586218261719 -0.018
vn -0.258819043636322 -0.965925812721252 0
v 0.864470581054688 1.153 -0.018
vn -0.258819043636322 -0.965925812721252 0
v 0.908809631347656 1.16522033691406 -0.015
vn 0.866025388240814 -0.5 0
v 0.91519482421875 1.17627966308594 -0.015
vn 0.866025388240814 -0.5 0
v 0.91519482421875 1.17627966308594 -0.01
vn 0.866025388240814 -0.5 0
v 0.908809631347656 1.16522033691406 -0.01
vn 0.866025388240814 -0.5 0
v 0.903608337402344 1.22078857421875 -0.015
vn 0.866025388240814 0.5 0
v 0.909137756347656 1.21121142578125 -0.015
vn 0.866025388240814 0.5 0
v 0.909137756347656 1.21121142578125 -0.018
vn 0.866025388240814 0.5 0
v 0.903608337402344 1.22078857421875 -0.018
vn 0.866025388240814 0.5 0
v 0.844211364746094 1.1613916015625 -0.015
vn -0.70710676908493 -0.70710676908493 0
v 0.836391662597656 1.16921142578125 -0.015
vn -0.70710676908493 -0.70710676908493 0
v 0.836391662597656 1.16921142578125 -0.018
vn -0.70710676908493 -0.70710676908493 0
v 0.844211364746094 1.1613916015625 -0.018
vn -0.70710676908493 -0.70710676908493 0
v 0.830862243652344 1.17878857421875 -0.015
vn -0.965925812721252 -0.258819043636322 0
v 0.828 1.18947058105469 -0.015
vn -0.965925812721252 -0.258819043636322 0
v 0.828 1.18947058105469 -0.018
vn -0.965925812721252 -0.258819043636322 0
v 0.830862243652344 1.17878857421875 -0.018
vn -0.965925812721252 -0.258819043636322 0
v 0.912 1.20052941894531 -0.015
vn 1 0 0
v 0.912 1.18947058105469 -0.015
vn 1 0 0
v 0.912 1.18947058105469 -0.018
vn 1 0 0
v 0.912 1.20052941894531 -0.018
vn 1 0 0
v 0.909137756347656 1.17878857421875 -0.015
vn 0.866025388240814 -0.5 0
v 0.903608337402344 1.16921142578125 -0.015
vn 0.866025388240814 -0.5 0
v 0.903608337402344 1.16921142578125 -0.018
vn 0.866025388240814 -0.5 0
v 0.909137756347656 1.17878857421875 -0.018
vn 0.866025388240814 -0.5 0
v 0.895788635253906 1.1613916015625 -0.015
vn 0.5 -0.866025388240814 0
v 0.886211364746094 1.15586218261719 -0.015
vn 0.5 -0.866025388240814 0
v 0.886211364746094 1.15586218261719 -0.018
vn 0.5 -0.866025388240814 0
v 0.895788635253906 1.1613916015625 -0.018
vn 0.5 -0.866025388240814 0
v 0.875529418945313 1.153 -0.015
vn 0 -1 0
v 0.864470581054688 1.153 -0.015
vn 0 -1 0
v 0.864470581054688 1.153 -0.018
vn 0 -1 0
v 0.875529418945313 1.153 -0.018
vn 0 -1 0
v 0.91519482421875 1.21372033691406 -0.015
vn 0.866025388240814 0.5 0
v 0.908809631347656 1.22477966308594 -0.015
vn 0.866025388240814 0.5 0
v 0.908809631347656 1.22477966308594 -0.01
vn 0.866025388240814 0.5 0
v 0.91519482421875 1.21372033691406 -0.01
vn 0.866025388240814 0.5 0
v 0.9185 1.20138513183594 -0.015
vn 0.965925812721252 0.258819043636322 0
v 0.91519482421875 1.21372033691406 -0.015
vn 0.965925812721252 0.258819043636322 0
v 0.91519482421875 1.21372033691406 -0.01
vn 0.965925812721252 0.258819043636322 0
v 0.9185 1.20138513183594 -0.01
vn 0.965925812721252 0.258819043636322 0
v 0.909137756347656 1.21121142578125 -0.015
vn 0.965925812721252 0.258819043636322 0
v 0.912 1.20052941894531 -0.015
vn 0.965925812721252 0.258819043636322 0
v 0.912 1.20052941894531 -0.018
vn 0.965925812721252 0.258819043636322 0
v 0.909137756347656 1.21121142578125 -0.018
vn 0.965925812721252 0.258819043636322 0
v 0.91519482421875 1.17627966308594 -0.015
vn 0.965925812721252 -0.258819043636322 0
v 0.9185 1.18861486816406 -0.015
vn 0.965925812721252 -0.258819043636322 0
v 0.9185 1.18861486816406 -0.01
vn 0.965925812721252 -0.258819043636322 0
v 0.91519482421875 1.17627966308594 -0.01
vn 0.965925812721252 -0.258819043636322 0
v 0.912 1.18947058105469 -0.015
vn 0.965925812721252 -0.258819043636322 0
v 0.909137756347656 1.17878857421875 -0.015
vn 0.965925812721252 -0.258819043636322 0
v 0.909137756347656 1.17878857421875 -0.018
vn 0.965925812721252 -0.258819043636322 0
v 0.912 1.18947058105469 -0.018
vn 0.965925812721252 -0.258819043636322 0
v 0.864470581054688 1.237 -0.015
vn 0 1 0
v 0.875529418945313 1.237 -0.015
vn 0 1 0
v 0.875529418945313 1.237 -0.018
vn 0 1 0
v 0.864470581054688 1.237 -0.018
vn 0 1 0
v 0.9185 1.20138513183594 -0.01
vn -1 0 0
v 0.9185 1.21347521972656 -0.01
vn -1 0 0
v 0.9185 1.21180419921875 -0.0128943023681641
vn -1 0 0
v 0.9185 1.20789428710937 -0.0168041820526123
vn -1 0 0
v 0.9185 1.20310571289063 -0.019568883895874
vn -1 0 0
v 0.9185 1.1977646484375 -0.021
vn -1 0 0
v 0.9185 1.1922353515625 -0.021
vn -1 0 0
v 0.9185 1.18689428710938 -0.019568883895874
vn -1 0 0
v 0.9185 1.18210571289062 -0.0168041820526123
vn -1 0 0
v 0.9185 1.17819580078125 -0.0128943023681641
vn -1 0 0
v 0.9185 1.17652478027344 -0.01
vn -1 0 0
v 0.9185 1.18861486816406 -0.01
vn -1 0 0
v 0.9185 1.18861486816406 -0.015
vn -1 0 0
v 0.9185 1.20138513183594 -0.015
vn -1 0 0
v 0.886211364746094 1.23413781738281 -0.015
vn 0.5 0.866025388240814 0
v 0.895788635253906 1.2286083984375 -0.015
vn 0.5 0.866025388240814 0
v 0.895788635253906 1.2286083984375 -0.018
vn 0.5 0.866025388240814 0
v 0.886211364746094 1.23413781738281 -0.018
vn 0.5 0.866025388240814 0
v 0.9185 1.20310571289063 -0.019568883895874
vn 0 0.5 -0.866025388240814
v 0.9185 1.20789428710937 -0.0168041820526123
vn 0 0.5 -0.866025388240814
v 0.9435 1.20789428710937 -0.0168041820526123
vn 0 0.5 -0.866025388240814
v 0.9435 1.20310571289063 -0.019568883895874
vn 0 0.5 -0.866025388240814
v 0.9185 1.1922353515625 -0.021
vn 0 0 -1
v 0.9185 1.1977646484375 -0.021
vn 0 0 -1
v 0.9435 1.1977646484375 -0.021
vn 0 0 -1
v 0.9435 1.1922353515625 -0.021
vn 0 0 -1
v 0.9185 1.18210571289062 -0.0168041820526123
vn 0 -0.5 -0.866025388240814
v 0.9185 1.18689428710938 -0.019568883895874
vn 0 -0.5 -0.866025388240814
v 0.9435 1.18689428710938 -0.019568883895874
vn 0 -0.5 -0.866025388240814
v 0.9435 1.18210571289062 -0.0168041820526123
vn 0 -0.5 -0.866025388240814
v 0.930626953125 1.21347521972656 -0.01
vn 0 0.866025388240814 -0.5
v 0.930626953125 1.21456884765625 -0.00810569763183594
vn 0 0.866025388240814 -0.5
v 0.9435 1.21456884765625 -0.00810569763183594
vn 0 0.866025388240814 -0.5
v 0.9435 1.21180419921875 -0.0128943023681641
vn 0 0.866025388240814 -0.5
v 0.9185 1.21180419921875 -0.0128943023681641
vn 0 0.866025388240814 -0.5
v 0.9185 1.21347521972656 -0.01
vn 0 0.866025388240814 -0.5
v 0.930626953125 1.17543115234375 -0.00810569763183594
vn 0 -0.866025388240814 -0.5
v 0.930626953125 1.17652478027344 -0.01
vn 0 -0.866025388240814 -0.5
v 0.9185 1.17652478027344 -0.01
vn 0 -0.866025388240814 -0.5
v 0.9185 1.17819580078125 -0.0128943023681641
vn 0 -0.866025388240814 -0.5
v 0.9435 1.17819580078125 -0.0128943023681641
vn 0 -0.866025388240814 -0.5
v 0.9435 1.17543115234375 -0.00810569763183594
vn 0 -0.866025388240814 -0.5
v 0.9185 1.20789428710937 -0.0168041820526123
vn 0 0.70710676908493 -0.70710676908493
v 0.9185 1.21180419921875 -0.0128943023681641
vn 0 0.70710676908493 -0.70710676908493
v 0.9435 1.21180419921875 -0.0128943023681641
vn 0 0.70710676908493 -0.70710676908493
v 0.9435 1.20789428710937 -0.0168041820526123
vn 0 0.70710676908493 -0.70710676908493
v 0.9185 1.1977646484375 -0.021
vn 0 0.258819043636322 -0.965925812721252
v 0.9185 1.20310571289063 -0.019568883895874
vn 0 0.258819043636322 -0.965925812721252
v 0.9435 1.20310571289063 -0.019568883895874
vn 0 0.258819043636322 -0.965925812721252
v 0.9435 1.1977646484375 -0.021
vn 0 0.258819043636322 -0.965925812721252
v 0.9185 1.18689428710938 -0.019568883895874
vn 0 -0.258819043636322 -0.965925812721252
v 0.9185 1.1922353515625 -0.021
vn 0 -0.258819043636322 -0.965925812721252
v 0.9435 1.1922353515625 -0.021
vn 0 -0.258819043636322 -0.965925812721252
v 0.9435 1.18689428710938 -0.019568883895874
vn 0 -0.258819043636322 -0.965925812721252
v 0.9185 1.17819580078125 -0.0128943023681641
vn 0 -0.70710676908493 -0.70710676908493
v 0.9185 1.18210571289062 -0.0168041820526123
vn 0 -0.70710676908493 -0.70710676908493
v 0.9435 1.18210571289062 -0.0168041820526123
vn 0 -0.70710676908493 -0.70710676908493
v 0.9435 1.17819580078125 -0.0128943023681641
vn 0 -0.70710676908493 -0.70710676908493
v 0.895788635253906 1.2286083984375 -0.018
vn 0 0 -1
v 0.903608337402344 1.22078857421875 -0.018
vn 0 0 -1
v 0.909137756347656 1.21121142578125 -0.018
vn 0 0 -1
v 0.912 1.20052941894531 -0.018
vn 0 0 -1
v 0.912 1.18947058105469 -0.018
vn 0 0 -1
v 0.909137756347656 1.17878857421875 -0.018
vn 0 0 -1
v 0.903608337402344 1.16921142578125 -0.018
vn 0 0 -1
v 0.895788635253906 1.1613916015625 -0.018
vn 0 0 -1
v 0.886211364746094 1.15586218261719 -0.018
vn 0 0 -1
v 0.875529418945313 1.153 -0.018
vn 0 0 -1
v 0.864470581054688 1.153 -0.018
vn 0 0 -1
v 0.853788635253906 1.15586218261719 -0.018
vn 0 0 -1
v 0.844211364746094 1.1613916015625 -0.018
vn 0 0 -1
v 0.836391662597656 1.16921142578125 -0.018
vn 0 0 -1
v 0.830862243652344 1.17878857421875 -0.018
vn 0 0 -1
v 0.828 1.18947058105469 -0.018
vn 0 0 -1
v 0.828 1.20052941894531 -0.018
vn 0 0 -1
v 0.830862243652344 1.21121142578125 -0.018
vn 0 0 -1
v 0.836391662597656 1.22078857421875 -0.018
vn 0 0 -1
v 0.844211364746094 1.2286083984375 -0.018
vn 0 0 -1
v 0.853788635253906 1.23413781738281 -0.018
vn 0 0 -1
v 0.864470581054688 1.237 -0.018
vn 0 0 -1
v 0.875529418945313 1.237 -0.018
vn 0 0 -1
v 0.886211364746094 1.23413781738281 -0.018
vn 0 0 -1
usemtl Mat0
f 1//1 2//2 4//4
f 4//4 2//2 3//3
f 8//8 9//9 7//7
f 7//7 9//9 10//10
f 6//6 10//10 11//11
f 5//5 11//11 12//12
f 28//28 12//12 13//13
f 27//27 13//13 14//14
f 26//26 14//14 15//15
f 25//25 15//15 16//16
f 24//24 16//16 17//17
f 23//23 17//17 18//18
f 22//22 18//18 19//19
f 21//21 19//19 20//20
f 21//21 22//22 19//19
f 6//6 7//7 10//10
f 22//22 23//23 18//18
f 23//23 24//24 17//17
f 24//24 25//25 16//16
f 25//25 26//26 15//15
f 26//26 27//27 14//14
f 27//27 28//28 13//13
f 28//28 5//5 12//12
f 6//6 11//11 5//5
f 29//29 30//30 32//32
f 32//32 30//30 31//31
f 33//33 34//34 36//36
f 36//36 34//34 35//35
f 60//60 37//37 69//69
f 70//70 60//60 69//69
f 70//70 71//71 60//60
f 60//60 71//71 59//59
f 59//59 71//71 72//72
f 58//58 72//72 73//73
f 57//57 73//73 74//74
f 56//56 74//74 75//75
f 55//55 75//75 76//76
f 54//54 76//76 53//53
f 54//54 55//55 76//76
f 66//66 67//67 39//39
f 40//40 66//66 39//39
f 40//40 65//65 66//66
f 40//40 41//41 65//65
f 65//65 41//41 42//42
f 64//64 42//42 43//43
f 63//63 43//43 44//44
f 62//62 44//44 61//61
f 62//62 63//63 44//44
f 44//44 45//45 61//61
f 61//61 45//45 84//84
f 84//84 45//45 46//46
f 47//47 84//84 46//46
f 47//47 83//83 84//84
f 47//47 48//48 83//83
f 83//83 48//48 82//82
f 82//82 48//48 81//81
f 81//81 48//48 49//49
f 80//80 49//49 50//50
f 79//79 50//50 51//51
f 78//78 51//51 52//52
f 77//77 52//52 53//53
f 76//76 77//77 53//53
f 55//55 56//56 75//75
f 56//56 57//57 74//74
f 57//57 58//58 73//73
f 58//58 59//59 72//72
f 63//63 64//64 43//43
f 64//64 65//65 42//42
f 67//67 68//68 39//39
f 39//39 68//68 38//38
f 38//38 68//68 69//69
f 37//37 38//38 69//69
f 77//77 78//78 52//52
f 78//78 79//79 51//51
f 79//79 80//80 50//50
f 80//80 81//81 49//49
f 85//85 86//86 88//88
f 88//88 86//86 87//87
f 89//89 90//90 92//92
f 92//92 90//90 91//91
f 93//93 94//94 96//96
f 96//96 94//94 95//95
f 97//97 98//98 100//100
f 100//100 98//98 99//99
f 101//101 102//102 104//104
f 104//104 102//102 103//103
f 105//105 106//106 108//108
f 108//108 106//106 107//107
f 109//109 110//110 112//112
f 112//112 110//110 111//111
f 113//113 114//114 116//116
f 116//116 114//114 115//115
f 118//118 119//119 117//117
f 117//117 119//119 120//120
f 121//121 122//122 124//124
f 124//124 122//122 123//123
f 125//125 126//126 128//128
f 128//128 126//126 127//127
f 130//130 131//131 129//129
f 129//129 131//131 132//132
f 133//133 134//134 136//136
f 136//136 134//134 135//135
f 137//137 138//138 140//140
f 140//140 138//138 139//139
f 141//141 142//142 144//144
f 144//144 142//142 143//143
f 145//145 146//146 148//148
f 148//148 146//146 147//147
f 149//149 150//150 152//152
f 152//152 150//150 151//151
f 154//154 155//155 153//153
f 153//153 155//155 156//156
f 157//157 158//158 160//160
f 160//160 158//158 159//159
f 162//162 163//163 161//161
f 161//161 163//163 164//164
f 165//165 166//166 168//168
f 168//168 166//166 167//167
f 170//170 171//171 169//169
f 169//169 171//171 172//172
f 173//173 174//174 176//176
f 176//176 174//174 175//175
f 178//178 179//179 177//177
f 177//177 179//179 180//180
f 182//182 183//183 181//181
f 181//181 183//183 184//184
f 186//186 187//187 185//185
f 185//185 187//187 192//192
f 192//192 187//187 188//188
f 189//189 192//192 188//188
f 189//189 190//190 192//192
f 192//192 190//190 191//191
f 194//194 195//195 193//193
f 193//193 195//195 196//196
f 198//198 199//199 197//197
f 197//197 199//199 200//200
f 201//201 202//202 204//204
f 204//204 202//202 203//203
f 205//205 206//206 208//208
f 208//208 206//206 207//207
f 210//210 211//211 209//209
f 209//209 211//211 212//212
f 214//214 215//215 213//213
f 213//213 215//215 216//216
f 218//218 219//219 217//217
f 217//217 219//219 220//220
f 222//222 223//223 221//221
f 221//221 223//223 224//224
f 225//225 226//226 228//228
f 228//228 226//226 227//227
f 230//230 231//231 229//229
f 229//229 231//231 232//232
f 234//234 235//235 233//233
f 233//233 235//235 236//236
f 238//238 239//239 237//237
f 237//237 239//239 240//240
f 242//242 243//243 241//241
f 241//241 243//243 244//244
f 252//252 245//245 250//250
f 251//251 252//252 250//250
f 245//245 246//246 250//250
f 250//250 246//246 247//247
f 249//249 247//247 248//248
f 249//249 250//250 247//247
f 253//253 254//254 256//256
f 256//256 254//254 255//255
f 257//257 258//258 260//260
f 260//260 258//258 259//259
f 262//262 263//263 261//261
f 261//261 263//263 264//264
f 265//265 266//266 268//268
f 268//268 266//266 267//267
f 270//270 271//271 269//269
f 269//269 271//271 272//272
f 282//282 272//272 273//273
f 274//274 282//282 273//273
f 274//274 275//275 282//282
f 282//282 275//275 281//281
f 281//281 275//275 276//276
f 277//277 281//281 276//276
f 277//277 280//280 281//281
f 277//277 278//278 280//280
f 280//280 278//278 279//279
f 282//282 269//269 272//272
f 284//284 285//285 283//283
f 283//283 285//285 286//286
f 287//287 288//288 290//290
f 290//290 288//288 289//289
f 292//292 293//293 291//291
f 291//291 293//293 294//294
f 296//296 297//297 295//295
f 295//295 297//297 298//298
f 300//300 301//301 299//299
f 299//299 301//301 302//302
f 303//303 299//299 302//302
f 305//305 306//306 304//304
f 304//304 306//306 307//307
f 315//315 308//308 313//313
f 314//314 315//315 313//313
f 308//308 309//309 313//313
f 313//313 309//309 310//310
f 312//312 310//310 311//311
f 312//312 313//313 310//310
f 317//317 318//318 316//316
f 316//316 318//318 320//320
f 321//321 316//316 320//320
f 321//321 322//322 316//316
f 318//318 319//319 320//320
f 324//324 325//325 323//323
f 323//323 325//325 326//326
f 327//327 323//323 326//326
f 329//329 330//330 328//328
f 328//328 330//330 331//331
f 333//333 334//334 332//332
f 332//332 334//334 335//335
f 336//336 337//337 339//339
f 339//339 337//337 338//338
f 341//341 342//342 340//340
f 340//340 342//342 343//343
f 345//345 346//346 344//344
f 344//344 346//346 347//347
f 348//348 349//349 354//354
f 354//354 349//349 352//352
f 353//353 354//354 352//352
f 350//350 351//351 349//349
f 349//349 351//351 352//352
f 356//356 357//357 355//355
f 355//355 357//357 358//358
f 360//360 361//361 359//359
f 359//359 361//361 362//362
f 364//364 365//365 363//363
f 363//363 365//365 366//366
f 368//368 369//369 367//367
f 367//367 369//369 370//370
f 372//372 373//373 371//371
f 371//371 373//373 374//374
f 375//375 376//376 379//379
f 379//379 376//376 378//378
f 378//378 376//376 377//377
f 381//381 382//382 380//380
f 380//380 382//382 383//383
f 385//385 386//386 384//384
f 384//384 386//386 391//391
f 391//391 386//386 387//387
f 388//388 391//391 387//387
f 388//388 389//389 391//391
f 391//391 389//389 390//390
f 392//392 393//393 396//396
f 396//396 393//393 395//395
f 395//395 393//393 394//394
f 398//398 399//399 397//397
f 397//397 399//399 400//400
f 401//401 402//402 404//404
f 404//404 402//402 403//403
f 405//405 406//406 408//408
f 408//408 406//406 407//407
f 409//409 410//410 412//412
f 412//412 410//410 411//411
f 413//413 414//414 416//416
f 416//416 414//414 415//415
f 417//417 418//418 420//420
f 420//420 418//418 419//419
f 421//421 422//422 424//424
f 424//424 422//422 423//423
f 425//425 426//426 428//428
f 428//428 426//426 427//427
f 429//429 430//430 434//434
f 434//434 430//430 433//433
f 433//433 430//430 432//432
f 432//432 430//430 431//431
f 436//436 437//437 435//435
f 435//435 437//437 438//438
f 439//439 435//435 438//438
f 439//439 440//440 435//435
f 443//443 465//465 442//442
f 443//443 444//444 465//465
f 465//465 444//444 488//488
f 488//488 444//444 445//445
f 487//487 445//445 446//446
f 486//486 446//446 485//485
f 486//486 487//487 446//446
f 446//446 447//447 485//485
f 485//485 447//447 484//484
f 484//484 447//447 448//448
f 449//449 484//484 448//448
f 449//449 483//483 484//484
f 449//449 450//450 483//483
f 483//483 450//450 482//482
f 482//482 450//450 481//481
f 481//481 450//450 451//451
f 452//452 481//481 451//451
f 452//452 480//480 481//481
f 452//452 453//453 480//480
f 480//480 453//453 479//479
f 479//479 453//453 454//454
f 478//478 454//454 455//455
f 477//477 455//455 456//456
f 476//476 456//456 457//457
f 475//475 457//457 474//474
f 475//475 476//476 457//457
f 457//457 458//458 474//474
f 474//474 458//458 473//473
f 473//473 458//458 459//459
f 472//472 459//459 460//460
f 471//471 460//460 461//461
f 470//470 461//461 462//462
f 469//469 462//462 463//463
f 464//464 469//469 463//463
f 464//464 468//468 469//469
f 464//464 441//441 468//468
f 468//468 441//441 467//467
f 467//467 441//441 466//466
f 466//466 441//441 442//442
f 465//465 466//466 442//442
f 469//469 470//470 462//462
f 470//470 471//471 461//461
f 471//471 472//472 460//460
f 472//472 473//473 459//459
f 476//476 477//477 456//456
f 477//477 478//478 455//455
f 478//478 479//479 454//454
f 487//487 488//488 445//445
f 498//498 499//499 497//497
f 497//497 499//499 500//500
f 496//496 500//500 501//501
f 495//495 501//501 502//502
f 494//494 502//502 503//503
f 493//493 503//503 504//504
f 492//492 504//504 505//505
f 491//491 505//505 506//506
f 490//490 506//506 507//507
f 489//489 507//507 508//508
f 512//512 508//508 509//509
f 511//511 509//509 510//510
f 511//511 512//512 509//509
f 490//490 491//491 506//506
f 491//491 492//492 505//505
f 492//492 493//493 504//504
f 493//493 494//494 503//503
f 494//494 495//495 502//502
f 495//495 496//496 501//501
f 496//496 497//497 500//500
f 512//512 489//489 508//508
f 490//490 507//507 489//489
f 513//513 514//514 517//517
f 517//517 514//514 516//516
f 516//516 514//514 515//515
f 518//518 519//519 521//521
f 521//521 519//519 520//520
f 523//523 524//524 522//522
f 522//522 524//524 525//525
f 526//526 527//527 532//532
f 532//532 527//527 530//530
f 531//531 532//532 530//530
f 528//528 529//529 527//527
f 527//527 529//529 530//530
f 534//534 535//535 533//533
f 533//533 535//535 536//536
f 538//538 539//539 537//537
f 537//537 539//539 540//540
f 541//541 537//537 540//540
f 543//543 544//544 542//542
f 542//542 544//544 545//545
f 547//547 548//548 546//546
f 546//546 548//548 550//550
f 551//551 546//546 550//550
f 551//551 552//552 546//546
f 548//548 549//549 550//550
f 553//553 554//554 556//556
f 556//556 554//554 555//555
f 557//557 558//558 560//560
f 560//560 558//558 559//559
f 561//561 562//562 564//564
f 564//564 562//562 563//563
f 565//565 566//566 568//568
f 568//568 566//566 567//567
f 569//569 570//570 572//572
f 572//572 570//570 571//571
f 573//573 574//574 576//576
f 576//576 574//574 575//575
f 577//577 578//578 580//580
f 580//580 578//578 579//579
f 582//582 583//583 581//581
f 581//581 583//583 584//584
f 585//585 586//586 588//588
f 588//588 586//586 587//587
f 589//589 590//590 592//592
f 592//592 590//590 591//591
f 593//593 594//594 596//596
f 596//596 594//594 595//595
f 597//597 598//598 600//600
f 600//600 598//598 599//599
f 601//601 602//602 604//604
f 604//604 602//602 603//603
f 605//605 606//606 608//608
f 608//608 606//606 607//607
f 609//609 610//610 612//612
f 612//612 610//610 611//611
f 613//613 614//614 616//616
f 616//616 614//614 615//615
f 617//617 618//618 620//620
f 620//620 618//618 619//619
f 622//622 623//623 621//621
f 621//621 623//623 624//624
f 625//625 626//626 628//628
f 628//628 626//626 627//627
f 629//629 630//630 632//632
f 632//632 630//630 631//631
f 634//634 635//635 633//633
f 633//633 635//635 636//636
f 637//637 638//638 640//640
f 640//640 638//638 639//639
f 641//641 642//642 644//644
f 644//644 642//642 643//643
f 645//645 646//646 648//648
f 648//648 646//646 647//647
f 649//649 650//650 652//652
f 652//652 650//650 651//651
f 653//653 654//654 656//656
f 656//656 654//654 655//655
f 658//658 659//659 657//657
f 657//657 659//659 660//660
f 662//662 663//663 661//661
f 661//661 663//663 664//664
f 674//674 664//664 665//665
f 666//666 674//674 665//665
f 666//666 673//673 674//674
f 666//666 667//667 673//673
f 673//673 667//667 668//668
f 669//669 673//673 668//668
f 669//669 672//672 673//673
f 669//669 670//670 672//672
f 672//672 670//670 671//671
f 674//674 661//661 664//664
f 675//675 676//676 678//678
f 678//678 676//676 677//677
f 679//679 680//680 682//682
f 682//682 680//680 681//681
f 684//684 685//685 683//683
f 683//683 685//685 686//686
f 687//687 688//688 690//690
f 690//690 688//688 689//689
f 692//692 693//693 691//691
f 691//691 693//693 694//694
f 695//695 691//691 694//694
f 695//695 696//696 691//691
f 697//697 698//698 702//702
f 702//702 698//698 701//701
f 701//701 698//698 700//700
f 700//700 698//698 699//699
f 703//703 704//704 706//706
f 706//706 704//704 705//705
f 707//707 708//708 710//710
f 710//710 708//708 709//709
f 711//711 712//712 714//714
f 714//714 712//712 713//713
f 715//715 716//716 718//718
f 718//718 716//716 717//717
f 728//728 729//729 727//727
f 727//727 729//729 730//730
f 726//726 730//730 731//731
f 725//725 731//731 732//732
f 724//724 732//732 733//733
f 723//723 733//733 734//734
f 722//722 734//734 735//735
f 721//721 735//735 736//736
f 720//720 736//736 737//737
f 719//719 737//737 738//738
f 742//742 738//738 739//739
f 741//741 739//739 740//740
f 741//741 742//742 739//739
f 720//720 721//721 736//736
f 721//721 722//722 735//735
f 722//722 723//723 734//734
f 723//723 724//724 733//733
f 724//724 725//725 732//732
f 725//725 726//726 731//731
f 726//726 727//727 730//730
f 742//742 719//719 738//738
f 720//720 737//737 719//719
