mtllib Link6.mtl
v 0.955 1.20694592285156 0.0119459829330444
vn 0 0.5 0.866025388240814
v 0.955 1.20833825683594 0.0111421356201172
vn 0 0.5 0.866025388240814
v 0.945 1.20833825683594 0.0111421356201172
vn 0 0.5 0.866025388240814
v 0.945 1.20694592285156 0.0119459829330444
vn 0 0.5 0.866025388240814
v 0.955 1.20614208984375 0.0133382883071899
vn 0 0.866025388240814 0.5
v 0.955 1.20694592285156 0.0119459829330444
vn 0 0.866025388240814 0.5
v 0.945 1.20694592285156 0.0119459829330444
vn 0 0.866025388240814 0.5
v 0.945 1.20614208984375 0.0133382883071899
vn 0 0.866025388240814 0.5
v 0.955 1.20833825683594 0.0111421356201172
vn 0 1.22460635382238E-16 1
v 0.955 1.20994592285156 0.0111421356201172
vn 0 1.22460635382238E-16 1
v 0.945 1.20994592285156 0.0111421356201172
vn 0 1.22460635382238E-16 1
v 0.945 1.20833825683594 0.0111421356201172
vn 0 1.22460635382238E-16 1
v 0.955 1.20614208984375 0.0133382883071899
vn 1 0 0
v 0.955 1.20614208984375 0.0149459829330444
vn 1 0 0
v 0.955 1.20694592285156 0.0163382873535156
vn 1 0 0
v 0.955 1.20833825683594 0.0171421356201172
vn 1 0 0
v 0.955 1.20994592285156 0.0171421356201172
vn 1 0 0
v 0.955 1.21133825683594 0.0163382873535156
vn 1 0 0
v 0.955 1.21214208984375 0.0149459829330444
vn 1 0 0
v 0.955 1.21214208984375 0.0133382883071899
vn 1 0 0
v 0.955 1.21133825683594 0.0119459829330444
vn 1 0 0
v 0.955 1.20994592285156 0.0111421356201172
vn 1 0 0
v 0.955 1.20833825683594 0.0111421356201172
vn 1 0 0
v 0.955 1.20694592285156 0.0119459829330444
vn 1 0 0
v 0.955 1.17866174316406 0.0119459829330444
vn 1 0 0
v 0.955 1.17785791015625 0.0133382883071899
vn 1 0 0
v 0.955 1.17785791015625 0.0149459829330444
vn 1 0 0
v 0.955 1.17866174316406 0.0163382873535156
vn 1 0 0
v 0.955 1.18005407714844 0.0171421356201172
vn 1 0 0
v 0.955 1.18166174316406 0.0171421356201172
vn 1 0 0
v 0.955 1.18305407714844 0.0163382873535156
vn 1 0 0
v 0.955 1.18385791015625 0.0149459829330444
vn 1 0 0
v 0.955 1.18385791015625 0.0133382883071899
vn 1 0 0
v 0.955 1.18305407714844 0.0119459829330444
vn 1 0 0
v 0.955 1.18166174316406 0.0111421356201172
vn 1 0 0
v 0.955 1.18005407714844 0.0111421356201172
vn 1 0 0
v 0.955 1.17866174316406 -0.0163382873535156
vn 1 0 0
v 0.955 1.17785791015625 -0.0149459829330444
vn 1 0 0
v 0.955 1.17785791015625 -0.0133382883071899
vn 1 0 0
v 0.955 1.17866174316406 -0.0119459829330444
vn 1 0 0
v 0.955 1.18005407714844 -0.0111421356201172
vn 1 0 0
v 0.955 1.18166174316406 -0.0111421356201172
vn 1 0 0
v 0.955 1.18305407714844 -0.0119459829330444
vn 1 0 0
v 0.955 1.18385791015625 -0.0133382883071899
vn 1 0 0
v 0.955 1.18385791015625 -0.0149459829330444
vn 1 0 0
v 0.955 1.18305407714844 -0.0163382873535156
vn 1 0 0
v 0.955 1.18166174316406 -0.0171421356201172
vn 1 0 0
v 0.955 1.18005407714844 -0.0171421356201172
vn 1 0 0
v 0.955 1.21280383300781 -0.00219615244865417
vn 1 0 0
v 0.955 1.212 -0.000803847551345825
vn 1 0 0
v 0.955 1.212 0.000803847551345825
vn 1 0 0
v 0.955 1.21280383300781 0.00219615244865417
vn 1 0 0
v 0.955 1.21419616699219 0.003
vn 1 0 0
v 0.955 1.21580383300781 0.003
vn 1 0 0
v 0.955 1.21719616699219 0.00219615244865417
vn 1 0 0
v 0.955 1.218 0.000803847551345825
vn 1 0 0
v 0.955 1.218 -0.000803847551345825
vn 1 0 0
v 0.955 1.21719616699219 -0.00219615244865417
vn 1 0 0
v 0.955 1.21580383300781 -0.003
vn 1 0 0
v 0.955 1.21419616699219 -0.003
vn 1 0 0
v 0.955 1.20694592285156 -0.0163382873535156
vn 1 0 0
v 0.955 1.20614208984375 -0.0149459829330444
vn 1 0 0
v 0.955 1.20614208984375 -0.0133382883071899
vn 1 0 0
v 0.955 1.20694592285156 -0.0119459829330444
vn 1 0 0
v 0.955 1.20833825683594 -0.0111421356201172
vn 1 0 0
v 0.955 1.20994592285156 -0.0111421356201172
vn 1 0 0
v 0.955 1.21133825683594 -0.0119459829330444
vn 1 0 0
v 0.955 1.21214208984375 -0.0133382883071899
vn 1 0 0
v 0.955 1.21214208984375 -0.0149459829330444
vn 1 0 0
v 0.955 1.21133825683594 -0.0163382873535156
vn 1 0 0
v 0.955 1.20994592285156 -0.0171421356201172
vn 1 0 0
v 0.955 1.20833825683594 -0.0171421356201172
vn 1 0 0
v 0.955 1.195 0.0125
vn 1 0 0
v 0.955 1.19852160644531 0.0119936618804932
vn 1 0 0
v 0.955 1.20175805664062 0.0105156688690186
vn 1 0 0
v 0.955 1.20444689941406 0.00818575954437256
vn 1 0 0
v 0.955 1.20637036132812 0.00519268751144409
vn 1 0 0
v 0.955 1.20737280273438 0.00177893543243408
vn 1 0 0
v 0.955 1.20737280273438 -0.00177893543243408
vn 1 0 0
v 0.955 1.20637036132812 -0.00519268751144409
vn 1 0 0
v 0.955 1.20444689941406 -0.00818575954437256
vn 1 0 0
v 0.955 1.20175805664062 -0.0105156688690186
vn 1 0 0
v 0.955 1.19852160644531 -0.0119936618804932
vn 1 0 0
v 0.955 1.195 -0.0125
vn 1 0 0
v 0.955 1.19147839355469 -0.0119936618804932
vn 1 0 0
v 0.955 1.18824194335937 -0.0105156688690186
vn 1 0 0
v 0.955 1.18555310058594 -0.00818575954437256
vn 1 0 0
v 0.955 1.18362963867187 -0.00519268751144409
vn 1 0 0
v 0.955 1.18262719726563 -0.00177893543243408
vn 1 0 0
v 0.955 1.18262719726563 0.00177893543243408
vn 1 0 0
v 0.955 1.18362963867187 0.00519268751144409
vn 1 0 0
v 0.955 1.18555310058594 0.00818575954437256
vn 1 0 0
v 0.955 1.18824194335937 0.0105156688690186
vn 1 0 0
v 0.955 1.19147839355469 0.0119936618804932
vn 1 0 0
v 0.955 1.195 0.025
vn 1 0 0
v 0.955 1.18980224609375 0.0244536895751953
vn 1 0 0
v 0.955 1.18483154296875 0.0228386363983154
vn 1 0 0
v 0.955 1.18030541992187 0.0202254257202148
vn 1 0 0
v 0.955 1.17642138671875 0.0167282657623291
vn 1 0 0
v 0.955 1.17334936523437 0.0125
vn 1 0 0
v 0.955 1.1712236328125 0.00772542476654053
vn 1 0 0
v 0.955 1.17013696289063 0.0026132116317749
vn 1 0 0
v 0.955 1.17013696289063 -0.0026132116317749
vn 1 0 0
v 0.955 1.1712236328125 -0.00772542476654053
vn 1 0 0
v 0.955 1.17334936523437 -0.0125
vn 1 0 0
v 0.955 1.17642138671875 -0.0167282657623291
vn 1 0 0
v 0.955 1.18030541992187 -0.0202254257202148
vn 1 0 0
v 0.955 1.18483154296875 -0.0228386363983154
vn 1 0 0
v 0.955 1.18980224609375 -0.0244536895751953
vn 1 0 0
v 0.955 1.195 -0.025
vn 1 0 0
v 0.955 1.20019775390625 -0.0244536895751953
vn 1 0 0
v 0.955 1.20516845703125 -0.0228386363983154
vn 1 0 0
v 0.955 1.20969458007812 -0.0202254257202148
vn 1 0 0
v 0.955 1.21357861328125 -0.0167282657623291
vn 1 0 0
v 0.955 1.21665063476562 -0.0125
vn 1 0 0
v 0.955 1.2187763671875 -0.00772542476654053
vn 1 0 0
v 0.955 1.21986303710938 -0.0026132116317749
vn 1 0 0
v 0.955 1.21986303710938 0.0026132116317749
vn 1 0 0
v 0.955 1.2187763671875 0.00772542476654053
vn 1 0 0
v 0.955 1.21665063476562 0.0125
vn 1 0 0
v 0.955 1.21357861328125 0.0167282657623291
vn 1 0 0
v 0.955 1.20969458007812 0.0202254257202148
vn 1 0 0
v 0.955 1.20516845703125 0.0228386363983154
vn 1 0 0
v 0.955 1.20019775390625 0.0244536895751953
vn 1 0 0
v 0.945 1.195 -0.025
vn -1 0 0
v 0.945 1.18980224609375 -0.0244536895751953
vn -1 0 0
v 0.945 1.18483154296875 -0.0228386363983154
vn -1 0 0
v 0.945 1.18030541992187 -0.0202254257202148
vn -1 0 0
v 0.945 1.17642138671875 -0.0167282657623291
vn -1 0 0
v 0.945 1.17334936523437 -0.0125
vn -1 0 0
v 0.945 1.1712236328125 -0.00772542476654053
vn -1 0 0
v 0.945 1.17013696289063 -0.0026132116317749
vn -1 0 0
v 0.945 1.17013696289063 0.0026132116317749
vn -1 0 0
v 0.945 1.1712236328125 0.00772542476654053
vn -1 0 0
v 0.945 1.17334936523437 0.0125
vn -1 0 0
v 0.945 1.17642138671875 0.0167282657623291
vn -1 0 0
v 0.945 1.18030541992187 0.0202254257202148
vn -1 0 0
v 0.945 1.18483154296875 0.0228386363983154
vn -1 0 0
v 0.945 1.18980224609375 0.0244536895751953
vn -1 0 0
v 0.945 1.195 0.025
vn -1 0 0
v 0.945 1.20019775390625 0.0244536895751953
vn -1 0 0
v 0.945 1.20516845703125 0.0228386363983154
vn -1 0 0
v 0.945 1.20969458007812 0.0202254257202148
vn -1 0 0
v 0.945 1.21357861328125 0.0167282657623291
vn -1 0 0
v 0.945 1.21665063476562 0.0125
vn -1 0 0
v 0.945 1.2187763671875 0.00772542476654053
vn -1 0 0
v 0.945 1.21986303710938 0.0026132116317749
vn -1 0 0
v 0.945 1.21986303710938 -0.0026132116317749
vn -1 0 0
v 0.945 1.2187763671875 -0.00772542476654053
vn -1 0 0
v 0.945 1.21665063476562 -0.0125
vn -1 0 0
v 0.945 1.21357861328125 -0.0167282657623291
vn -1 0 0
v 0.945 1.20969458007812 -0.0202254257202148
vn -1 0 0
v 0.945 1.20516845703125 -0.0228386363983154
vn -1 0 0
v 0.945 1.20019775390625 -0.0244536895751953
vn -1 0 0
v 0.945 1.20614208984375 -0.0133382883071899
vn -1 0 0
v 0.945 1.20614208984375 -0.0149459829330444
vn -1 0 0
v 0.945 1.20694592285156 -0.0163382873535156
vn -1 0 0
v 0.945 1.20833825683594 -0.0171421356201172
vn -1 0 0
v 0.945 1.20994592285156 -0.0171421356201172
vn -1 0 0
v 0.945 1.21133825683594 -0.0163382873535156
vn -1 0 0
v 0.945 1.21214208984375 -0.0149459829330444
vn -1 0 0
v 0.945 1.21214208984375 -0.0133382883071899
vn -1 0 0
v 0.945 1.21133825683594 -0.0119459829330444
vn -1 0 0
v 0.945 1.20994592285156 -0.0111421356201172
vn -1 0 0
v 0.945 1.20833825683594 -0.0111421356201172
vn -1 0 0
v 0.945 1.20694592285156 -0.0119459829330444
vn -1 0 0
v 0.945 1.212 0.000803847551345825
vn -1 0 0
v 0.945 1.212 -0.000803847551345825
vn -1 0 0
v 0.945 1.21280383300781 -0.00219615244865417
vn -1 0 0
v 0.945 1.21419616699219 -0.003
vn -1 0 0
v 0.945 1.21580383300781 -0.003
vn -1 0 0
v 0.945 1.21719616699219 -0.00219615244865417
vn -1 0 0
v 0.945 1.218 -0.000803847551345825
vn -1 0 0
v 0.945 1.218 0.000803847551345825
vn -1 0 0
v 0.945 1.21719616699219 0.00219615244865417
vn -1 0 0
v 0.945 1.21580383300781 0.003
vn -1 0 0
v 0.945 1.21419616699219 0.003
vn -1 0 0
v 0.945 1.21280383300781 0.00219615244865417
vn -1 0 0
v 0.945 1.17785791015625 -0.0133382883071899
vn -1 0 0
v 0.945 1.17785791015625 -0.0149459829330444
vn -1 0 0
v 0.945 1.17866174316406 -0.0163382873535156
vn -1 0 0
v 0.945 1.18005407714844 -0.0171421356201172
vn -1 0 0
v 0.945 1.18166174316406 -0.0171421356201172
vn -1 0 0
v 0.945 1.18305407714844 -0.0163382873535156
vn -1 0 0
v 0.945 1.18385791015625 -0.0149459829330444
vn -1 0 0
v 0.945 1.18385791015625 -0.0133382883071899
vn -1 0 0
v 0.945 1.18305407714844 -0.0119459829330444
vn -1 0 0
v 0.945 1.18166174316406 -0.0111421356201172
vn -1 0 0
v 0.945 1.18005407714844 -0.0111421356201172
vn -1 0 0
v 0.945 1.17866174316406 -0.0119459829330444
vn -1 0 0
v 0.945 1.17785791015625 0.0149459829330444
vn -1 0 0
v 0.945 1.17785791015625 0.0133382883071899
vn -1 0 0
v 0.945 1.17866174316406 0.0119459829330444
vn -1 0 0
v 0.945 1.18005407714844 0.0111421356201172
vn -1 0 0
v 0.945 1.18166174316406 0.0111421356201172
vn -1 0 0
v 0.945 1.18305407714844 0.0119459829330444
vn -1 0 0
v 0.945 1.18385791015625 0.0133382883071899
vn -1 0 0
v 0.945 1.18385791015625 0.0149459829330444
vn -1 0 0
v 0.945 1.18305407714844 0.0163382873535156
vn -1 0 0
v 0.945 1.18166174316406 0.0171421356201172
vn -1 0 0
v 0.945 1.18005407714844 0.0171421356201172
vn -1 0 0
v 0.945 1.17866174316406 0.0163382873535156
vn -1 0 0
v 0.945 1.20694592285156 0.0163382873535156
vn -1 0 0
v 0.945 1.20614208984375 0.0149459829330444
vn -1 0 0
v 0.945 1.20614208984375 0.0133382883071899
vn -1 0 0
v 0.945 1.20694592285156 0.0119459829330444
vn -1 0 0
v 0.945 1.20833825683594 0.0111421356201172
vn -1 0 0
v 0.945 1.20994592285156 0.0111421356201172
vn -1 0 0
v 0.945 1.21133825683594 0.0119459829330444
vn -1 0 0
v 0.945 1.21214208984375 0.0133382883071899
vn -1 0 0
v 0.945 1.21214208984375 0.0149459829330444
vn -1 0 0
v 0.945 1.21133825683594 0.0163382873535156
vn -1 0 0
v 0.945 1.20994592285156 0.0171421356201172
vn -1 0 0
v 0.945 1.20833825683594 0.0171421356201172
vn -1 0 0
v 0.945 1.18971398925781 0.0103743000030518
vn -1 0 0
v 0.945 1.18676696777344 0.00823309135437012
vn -1 0 0
v 0.945 1.18462573242187 0.00528596973419189
vn -1 0 0
v 0.945 1.1835 0.00182142102718353
vn -1 0 0
v 0.945 1.1835 -0.00182142102718353
vn -1 0 0
v 0.945 1.18462573242187 -0.00528596973419189
vn -1 0 0
v 0.945 1.18676696777344 -0.00823309135437012
vn -1 0 0
v 0.945 1.18971398925781 -0.0103743000030518
vn -1 0 0
v 0.945 1.19317858886719 -0.0115
vn -1 0 0
v 0.945 1.19682141113281 -0.0115
vn -1 0 0
v 0.945 1.20028601074219 -0.0103743000030518
vn -1 0 0
v 0.945 1.20323303222656 -0.00823309135437012
vn -1 0 0
v 0.945 1.20537426757812 -0.00528596973419189
vn -1 0 0
v 0.945 1.2065 -0.00182142102718353
vn -1 0 0
v 0.945 1.2065 0.00182142102718353
vn -1 0 0
v 0.945 1.20537426757812 0.00528596973419189
vn -1 0 0
v 0.945 1.20323303222656 0.00823309135437012
vn -1 0 0
v 0.945 1.20028601074219 0.0103743000030518
vn -1 0 0
v 0.945 1.19682141113281 0.0115
vn -1 0 0
v 0.945 1.19317858886719 0.0115
vn -1 0 0
v 0.955 1.20614208984375 0.0149459829330444
vn 0 1 -1.22460635382238E-16
v 0.955 1.20614208984375 0.0133382883071899
vn 0 1 -1.22460635382238E-16
v 0.945 1.20614208984375 0.0133382883071899
vn 0 1 -1.22460635382238E-16
v 0.945 1.20614208984375 0.0149459829330444
vn 0 1 -1.22460635382238E-16
v 0.955 1.20994592285156 0.0111421356201172
vn 0 -0.5 0.866025388240814
v 0.955 1.21133825683594 0.0119459829330444
vn 0 -0.5 0.866025388240814
v 0.945 1.21133825683594 0.0119459829330444
vn 0 -0.5 0.866025388240814
v 0.945 1.20994592285156 0.0111421356201172
vn 0 -0.5 0.866025388240814
v 0.951 1.195 -0.0125
vn 0 0 1
v 0.951 1.19147839355469 -0.0119936618804932
vn 0 0.281732559204102 0.959492981433868
v 0.951 1.18824194335937 -0.0105156688690186
vn 0 0.540640830993652 0.841253519058228
v 0.951 1.18555310058594 -0.00818575954437256
vn 0 0.755749583244324 0.654860734939575
v 0.951 1.18362963867187 -0.00519268751144409
vn 0 0.909631967544556 0.415415018796921
v 0.951 1.18262719726563 -0.00177893543243408
vn 0 0.989821434020996 0.142314836382866
v 0.951 1.18262719726563 0.00177893543243408
vn 0 0.989821434020996 -0.142314836382866
v 0.951 1.18362963867187 0.00519268751144409
vn 0 0.909631967544556 -0.415415018796921
v 0.951 1.18555310058594 0.00818575954437256
vn 0 0.755749583244324 -0.654860734939575
v 0.951 1.18824194335937 0.0105156688690186
vn 0 0.540640830993652 -0.841253519058228
v 0.951 1.19147839355469 0.0119936618804932
vn 0 0.281732559204102 -0.959492981433868
v 0.951 1.195 0.0125
vn 0 0 -1
v 0.955 1.195 0.0125
vn 0 0 -1
v 0.955 1.19147839355469 0.0119936618804932
vn 0 0.281732559204102 -0.959492981433868
v 0.955 1.18824194335937 0.0105156688690186
vn 0 0.540640830993652 -0.841253519058228
v 0.955 1.18555310058594 0.00818575954437256
vn 0 0.755749583244324 -0.654860734939575
v 0.955 1.18362963867187 0.00519268751144409
vn 0 0.909631967544556 -0.415415018796921
v 0.955 1.18262719726563 0.00177893543243408
vn 0 0.989821434020996 -0.142314836382866
v 0.955 1.18262719726563 -0.00177893543243408
vn 0 0.989821434020996 0.142314836382866
v 0.955 1.18362963867187 -0.00519268751144409
vn 0 0.909631967544556 0.415415018796921
v 0.955 1.18555310058594 -0.00818575954437256
vn 0 0.755749583244324 0.654860734939575
v 0.955 1.18824194335937 -0.0105156688690186
vn 0 0.540640830993652 0.841253519058228
v 0.955 1.19147839355469 -0.0119936618804932
vn 0 0.281732559204102 0.959492981433868
v 0.955 1.195 -0.0125
vn 0 0 1
v 0.955 1.21214208984375 -0.0133382883071899
vn 0 -0.866025388240814 -0.5
v 0.955 1.21133825683594 -0.0119459829330444
vn 0 -0.866025388240814 -0.5
v 0.945 1.21133825683594 -0.0119459829330444
vn 0 -0.866025388240814 -0.5
v 0.945 1.21214208984375 -0.0133382883071899
vn 0 -0.866025388240814 -0.5
v 0.955 1.21280383300781 0.00219615244865417
vn 0 0.866025388240814 -0.5
v 0.955 1.212 0.000803847551345825
vn 0 0.866025388240814 -0.5
v 0.945 1.212 0.000803847551345825
vn 0 0.866025388240814 -0.5
v 0.945 1.21280383300781 0.00219615244865417
vn 0 0.866025388240814 -0.5
v 0.955 1.195 0.025
vn 0 0 1
v 0.955 1.20019775390625 0.0244536895751953
vn 0 0.207911685109138 0.978147625923157
v 0.955 1.20516845703125 0.0228386363983154
vn 0 0.406736642122269 0.913545429706573
v 0.955 1.20969458007812 0.0202254257202148
vn 0 0.587785243988037 0.80901700258255
v 0.955 1.21357861328125 0.0167282657623291
vn 0 0.743144810199738 0.669130623340607
v 0.955 1.21665063476562 0.0125
vn 0 0.866025388240814 0.5
v 0.955 1.2187763671875 0.00772542476654053
vn 0 0.95105654001236 0.30901700258255
v 0.955 1.21986303710938 0.0026132116317749
vn 0 0.994521915912628 0.104528464376926
v 0.955 1.21986303710938 -0.0026132116317749
vn 0 0.994521915912628 -0.104528464376926
v 0.955 1.2187763671875 -0.00772542476654053
vn 0 0.95105654001236 -0.30901700258255
v 0.955 1.21665063476562 -0.0125
vn 0 0.866025388240814 -0.5
v 0.955 1.21357861328125 -0.0167282657623291
vn 0 0.743144810199738 -0.669130623340607
v 0.955 1.20969458007812 -0.0202254257202148
vn 0 0.587785243988037 -0.80901700258255
v 0.955 1.20516845703125 -0.0228386363983154
vn 0 0.406736642122269 -0.913545429706573
v 0.955 1.20019775390625 -0.0244536895751953
vn 0 0.207911685109138 -0.978147625923157
v 0.955 1.195 -0.025
vn 0 0 -1
v 0.945 1.195 -0.025
vn 0 0 -1
v 0.945 1.20019775390625 -0.0244536895751953
vn 0 0.207911685109138 -0.978147625923157
v 0.945 1.20516845703125 -0.0228386363983154
vn 0 0.406736642122269 -0.913545429706573
v 0.945 1.20969458007812 -0.0202254257202148
vn 0 0.587785243988037 -0.80901700258255
v 0.945 1.21357861328125 -0.0167282657623291
vn 0 0.743144810199738 -0.669130623340607
v 0.945 1.21665063476562 -0.0125
vn 0 0.866025388240814 -0.5
v 0.945 1.2187763671875 -0.00772542476654053
vn 0 0.95105654001236 -0.30901700258255
v 0.945 1.21986303710938 -0.0026132116317749
vn 0 0.994521915912628 -0.104528464376926
v 0.945 1.21986303710938 0.0026132116317749
vn 0 0.994521915912628 0.104528464376926
v 0.945 1.2187763671875 0.00772542476654053
vn 0 0.95105654001236 0.30901700258255
v 0.945 1.21665063476562 0.0125
vn 0 0.866025388240814 0.5
v 0.945 1.21357861328125 0.0167282657623291
vn 0 0.743144810199738 0.669130623340607
v 0.945 1.20969458007812 0.0202254257202148
vn 0 0.587785243988037 0.80901700258255
v 0.945 1.20516845703125 0.0228386363983154
vn 0 0.406736642122269 0.913545429706573
v 0.945 1.20019775390625 0.0244536895751953
vn 0 0.207911685109138 0.978147625923157
v 0.945 1.195 0.025
vn 0 0 1
v 0.955 1.21214208984375 -0.0149459829330444
vn 0 -1 1.22460635382238E-16
v 0.955 1.21214208984375 -0.0133382883071899
vn 0 -1 1.22460635382238E-16
v 0.945 1.21214208984375 -0.0133382883071899
vn 0 -1 1.22460635382238E-16
v 0.945 1.21214208984375 -0.0149459829330444
vn 0 -1 1.22460635382238E-16
v 0.955 1.21419616699219 0.003
vn 0 0.5 -0.866025388240814
v 0.955 1.21280383300781 0.00219615244865417
vn 0 0.5 -0.866025388240814
v 0.945 1.21280383300781 0.00219615244865417
vn 0 0.5 -0.866025388240814
v 0.945 1.21419616699219 0.003
vn 0 0.5 -0.866025388240814
v 0.955 1.18166174316406 -0.0111421356201172
vn 0 -1.22460635382238E-16 -1
v 0.955 1.18005407714844 -0.0111421356201172
vn 0 -1.22460635382238E-16 -1
v 0.945 1.18005407714844 -0.0111421356201172
vn 0 -1.22460635382238E-16 -1
v 0.945 1.18166174316406 -0.0111421356201172
vn 0 -1.22460635382238E-16 -1
v 0.955 1.17785791015625 0.0149459829330444
vn 0 1 -1.22460635382238E-16
v 0.955 1.17785791015625 0.0133382883071899
vn 0 1 -1.22460635382238E-16
v 0.945 1.17785791015625 0.0133382883071899
vn 0 1 -1.22460635382238E-16
v 0.945 1.17785791015625 0.0149459829330444
vn 0 1 -1.22460635382238E-16
v 0.955 1.195 0.0125
vn 0 0 -1
v 0.951 1.195 0.0125
vn 0 0 -1
v 0.951 1.19852160644531 0.0119936618804932
vn 0 -0.281732559204102 -0.959492981433868
v 0.951 1.20175805664062 0.0105156688690186
vn 0 -0.540640830993652 -0.841253519058228
v 0.951 1.20444689941406 0.00818575954437256
vn 0 -0.755749583244324 -0.654860734939575
v 0.951 1.20637036132812 0.00519268751144409
vn 0 -0.909631967544556 -0.415415018796921
v 0.951 1.20737280273438 0.00177893543243408
vn 0 -0.989821434020996 -0.142314836382866
v 0.951 1.20737280273438 -0.00177893543243408
vn 0 -0.989821434020996 0.142314836382866
v 0.951 1.20637036132812 -0.00519268751144409
vn 0 -0.909631967544556 0.415415018796921
v 0.951 1.20444689941406 -0.00818575954437256
vn 0 -0.755749583244324 0.654860734939575
v 0.951 1.20175805664062 -0.0105156688690186
vn 0 -0.540640830993652 0.841253519058228
v 0.951 1.19852160644531 -0.0119936618804932
vn 0 -0.281732559204102 0.959492981433868
v 0.951 1.195 -0.0125
vn 0 0 1
v 0.955 1.195 -0.0125
vn 0 0 1
v 0.955 1.19852160644531 -0.0119936618804932
vn 0 -0.281732559204102 0.959492981433868
v 0.955 1.20175805664062 -0.0105156688690186
vn 0 -0.540640830993652 0.841253519058228
v 0.955 1.20444689941406 -0.00818575954437256
vn 0 -0.755749583244324 0.654860734939575
v 0.955 1.20637036132812 -0.00519268751144409
vn 0 -0.909631967544556 0.415415018796921
v 0.955 1.20737280273438 -0.00177893543243408
vn 0 -0.989821434020996 0.142314836382866
v 0.955 1.20737280273438 0.00177893543243408
vn 0 -0.989821434020996 -0.142314836382866
v 0.955 1.20637036132812 0.00519268751144409
vn 0 -0.909631967544556 -0.415415018796921
v 0.955 1.20444689941406 0.00818575954437256
vn 0 -0.755749583244324 -0.654860734939575
v 0.955 1.20175805664062 0.0105156688690186
vn 0 -0.540640830993652 -0.841253519058228
v 0.955 1.19852160644531 0.0119936618804932
vn 0 -0.281732559204102 -0.959492981433868
v 0.955 1.20614208984375 -0.0149459829330444
vn 0 0.866025388240814 0.5
v 0.955 1.20694592285156 -0.0163382873535156
vn 0 0.866025388240814 0.5
v 0.945 1.20694592285156 -0.0163382873535156
vn 0 0.866025388240814 0.5
v 0.945 1.20614208984375 -0.0149459829330444
vn 0 0.866025388240814 0.5
v 0.955 1.21580383300781 -0.003
vn 0 -0.5 0.866025388240814
v 0.955 1.21719616699219 -0.00219615244865417
vn 0 -0.5 0.866025388240814
v 0.945 1.21719616699219 -0.00219615244865417
vn 0 -0.5 0.866025388240814
v 0.945 1.21580383300781 -0.003
vn 0 -0.5 0.866025388240814
v 0.955 1.18305407714844 -0.0119459829330444
vn 0 -0.5 -0.866025388240814
v 0.955 1.18166174316406 -0.0111421356201172
vn 0 -0.5 -0.866025388240814
v 0.945 1.18166174316406 -0.0111421356201172
vn 0 -0.5 -0.866025388240814
v 0.945 1.18305407714844 -0.0119459829330444
vn 0 -0.5 -0.866025388240814
v 0.955 1.18385791015625 0.0133382883071899
vn 0 -1 1.22460635382238E-16
v 0.955 1.18385791015625 0.0149459829330444
vn 0 -1 1.22460635382238E-16
v 0.945 1.18385791015625 0.0149459829330444
vn 0 -1 1.22460635382238E-16
v 0.945 1.18385791015625 0.0133382883071899
vn 0 -1 1.22460635382238E-16
v 0.955 1.20994592285156 0.0171421356201172
vn 0 -1.22460635382238E-16 -1
v 0.955 1.20833825683594 0.0171421356201172
vn 0 -1.22460635382238E-16 -1
v 0.945 1.20833825683594 0.0171421356201172
vn 0 -1.22460635382238E-16 -1
v 0.945 1.20994592285156 0.0171421356201172
vn 0 -1.22460635382238E-16 -1
v 0.955 1.21419616699219 -0.003
vn 0 -4.17045697775499E-16 1
v 0.955 1.21580383300781 -0.003
vn 0 -4.17045697775499E-16 1
v 0.945 1.21580383300781 -0.003
vn 0 -4.17045697775499E-16 1
v 0.945 1.21419616699219 -0.003
vn 0 -4.17045697775499E-16 1
v 0.955 1.18385791015625 -0.0133382883071899
vn 0 -0.866025388240814 -0.5
v 0.955 1.18305407714844 -0.0119459829330444
vn 0 -0.866025388240814 -0.5
v 0.945 1.18305407714844 -0.0119459829330444
vn 0 -0.866025388240814 -0.5
v 0.945 1.18385791015625 -0.0133382883071899
vn 0 -0.866025388240814 -0.5
v 0.955 1.18305407714844 0.0119459829330444
vn 0 -0.866025388240814 0.5
v 0.955 1.18385791015625 0.0133382883071899
vn 0 -0.866025388240814 0.5
v 0.945 1.18385791015625 0.0133382883071899
vn 0 -0.866025388240814 0.5
v 0.945 1.18305407714844 0.0119459829330444
vn 0 -0.866025388240814 0.5
v 0.955 1.21133825683594 0.0163382873535156
vn 0 -0.5 -0.866025388240814
v 0.955 1.20994592285156 0.0171421356201172
vn 0 -0.5 -0.866025388240814
v 0.945 1.20994592285156 0.0171421356201172
vn 0 -0.5 -0.866025388240814
v 0.945 1.21133825683594 0.0163382873535156
vn 0 -0.5 -0.866025388240814
v 0.955 1.18166174316406 0.0111421356201172
vn 0 -0.5 0.866025388240814
v 0.955 1.18305407714844 0.0119459829330444
vn 0 -0.5 0.866025388240814
v 0.945 1.18305407714844 0.0119459829330444
vn 0 -0.5 0.866025388240814
v 0.945 1.18166174316406 0.0111421356201172
vn 0 -0.5 0.866025388240814
v 0.955 1.20694592285156 -0.0163382873535156
vn 0 0.5 0.866025388240814
v 0.955 1.20833825683594 -0.0171421356201172
vn 0 0.5 0.866025388240814
v 0.945 1.20833825683594 -0.0171421356201172
vn 0 0.5 0.866025388240814
v 0.945 1.20694592285156 -0.0163382873535156
vn 0 0.5 0.866025388240814
v 0.955 1.20833825683594 -0.0111421356201172
vn 0 0.5 -0.866025388240814
v 0.955 1.20694592285156 -0.0119459829330444
vn 0 0.5 -0.866025388240814
v 0.945 1.20694592285156 -0.0119459829330444
vn 0 0.5 -0.866025388240814
v 0.945 1.20833825683594 -0.0111421356201172
vn 0 0.5 -0.866025388240814
v 0.955 1.212 -0.000803847551345825
vn 0 0.866025388240814 0.5
v 0.955 1.21280383300781 -0.00219615244865417
vn 0 0.866025388240814 0.5
v 0.945 1.21280383300781 -0.00219615244865417
vn 0 0.866025388240814 0.5
v 0.945 1.212 -0.000803847551345825
vn 0 0.866025388240814 0.5
v 0.955 1.18166174316406 -0.0171421356201172
vn 0 -0.5 0.866025388240814
v 0.955 1.18305407714844 -0.0163382873535156
vn 0 -0.5 0.866025388240814
v 0.945 1.18305407714844 -0.0163382873535156
vn 0 -0.5 0.866025388240814
v 0.945 1.18166174316406 -0.0171421356201172
vn 0 -0.5 0.866025388240814
v 0.955 1.20994592285156 -0.0111421356201172
vn 0 -1.22460635382238E-16 -1
v 0.955 1.20833825683594 -0.0111421356201172
vn 0 -1.22460635382238E-16 -1
v 0.945 1.20833825683594 -0.0111421356201172
vn 0 -1.22460635382238E-16 -1
v 0.945 1.20994592285156 -0.0111421356201172
vn 0 -1.22460635382238E-16 -1
v 0.955 1.218 0.000803847551345825
vn 0 -0.866025388240814 -0.5
v 0.955 1.21719616699219 0.00219615244865417
vn 0 -0.866025388240814 -0.5
v 0.945 1.21719616699219 0.00219615244865417
vn 0 -0.866025388240814 -0.5
v 0.945 1.218 0.000803847551345825
vn 0 -0.866025388240814 -0.5
v 0.955 1.18005407714844 -0.0171421356201172
vn 0 1.22460635382238E-16 1
v 0.955 1.18166174316406 -0.0171421356201172
vn 0 1.22460635382238E-16 1
v 0.945 1.18166174316406 -0.0171421356201172
vn 0 1.22460635382238E-16 1
v 0.945 1.18005407714844 -0.0171421356201172
vn 0 1.22460635382238E-16 1
v 0.955 1.17866174316406 -0.0119459829330444
vn 0 0.866025388240814 -0.5
v 0.955 1.17785791015625 -0.0133382883071899
vn 0 0.866025388240814 -0.5
v 0.945 1.17785791015625 -0.0133382883071899
vn 0 0.866025388240814 -0.5
v 0.945 1.17866174316406 -0.0119459829330444
vn 0 0.866025388240814 -0.5
v 0.955 1.21133825683594 -0.0119459829330444
vn 0 -0.5 -0.866025388240814
v 0.955 1.20994592285156 -0.0111421356201172
vn 0 -0.5 -0.866025388240814
v 0.945 1.20994592285156 -0.0111421356201172
vn 0 -0.5 -0.866025388240814
v 0.945 1.21133825683594 -0.0119459829330444
vn 0 -0.5 -0.866025388240814
v 0.955 1.218 -0.000803847551345825
vn 0 -1 1.22460635382238E-16
v 0.955 1.218 0.000803847551345825
vn 0 -1 1.22460635382238E-16
v 0.945 1.218 0.000803847551345825
vn 0 -1 1.22460635382238E-16
v 0.945 1.218 -0.000803847551345825
vn 0 -1 1.22460635382238E-16
v 0.955 1.17866174316406 -0.0163382873535156
vn 0 0.5 0.866025388240814
v 0.955 1.18005407714844 -0.0171421356201172
vn 0 0.5 0.866025388240814
v 0.945 1.18005407714844 -0.0171421356201172
vn 0 0.5 0.866025388240814
v 0.945 1.17866174316406 -0.0163382873535156
vn 0 0.5 0.866025388240814
v 0.955 1.18005407714844 -0.0111421356201172
vn 0 0.5 -0.866025388240814
v 0.955 1.17866174316406 -0.0119459829330444
vn 0 0.5 -0.866025388240814
v 0.945 1.17866174316406 -0.0119459829330444
vn 0 0.5 -0.866025388240814
v 0.945 1.18005407714844 -0.0111421356201172
vn 0 0.5 -0.866025388240814
v 0.955 1.18305407714844 0.0163382873535156
vn 0 -0.5 -0.866025388240814
v 0.955 1.18166174316406 0.0171421356201172
vn 0 -0.5 -0.866025388240814
v 0.945 1.18166174316406 0.0171421356201172
vn 0 -0.5 -0.866025388240814
v 0.945 1.18305407714844 0.0163382873535156
vn 0 -0.5 -0.866025388240814
v 0.955 1.20694592285156 0.0163382873535156
vn 0 0.866025388240814 -0.5
v 0.955 1.20614208984375 0.0149459829330444
vn 0 0.866025388240814 -0.5
v 0.945 1.20614208984375 0.0149459829330444
vn 0 0.866025388240814 -0.5
v 0.945 1.20694592285156 0.0163382873535156
vn 0 0.866025388240814 -0.5
v 0.955 1.21719616699219 -0.00219615244865417
vn 0 -0.866025388240814 0.5
v 0.955 1.218 -0.000803847551345825
vn 0 -0.866025388240814 0.5
v 0.945 1.218 -0.000803847551345825
vn 0 -0.866025388240814 0.5
v 0.945 1.21719616699219 -0.00219615244865417
vn 0 -0.866025388240814 0.5
v 0.955 1.18385791015625 0.0149459829330444
vn 0 -0.866025388240814 -0.5
v 0.955 1.18305407714844 0.0163382873535156
vn 0 -0.866025388240814 -0.5
v 0.945 1.18305407714844 0.0163382873535156
vn 0 -0.866025388240814 -0.5
v 0.945 1.18385791015625 0.0149459829330444
vn 0 -0.866025388240814 -0.5
v 0.955 1.20833825683594 0.0171421356201172
vn 0 0.5 -0.866025388240814
v 0.955 1.20694592285156 0.0163382873535156
vn 0 0.5 -0.866025388240814
v 0.945 1.20694592285156 0.0163382873535156
vn 0 0.5 -0.866025388240814
v 0.945 1.20833825683594 0.0171421356201172
vn 0 0.5 -0.866025388240814
v 0.945 1.195 -0.025
vn 0 0 -1
v 0.955 1.195 -0.025
vn 0 0 -1
v 0.955 1.18980224609375 -0.0244536895751953
vn 0 -0.207911685109138 -0.978147625923157
v 0.955 1.18483154296875 -0.0228386363983154
vn 0 -0.406736642122269 -0.913545429706573
v 0.955 1.18030541992187 -0.0202254257202148
vn 0 -0.587785243988037 -0.80901700258255
v 0.955 1.17642138671875 -0.0167282657623291
vn 0 -0.743144810199738 -0.669130623340607
v 0.955 1.17334936523437 -0.0125
vn 0 -0.866025388240814 -0.5
v 0.955 1.1712236328125 -0.00772542476654053
vn 0 -0.95105654001236 -0.30901700258255
v 0.955 1.17013696289063 -0.0026132116317749
vn 0 -0.994521915912628 -0.104528464376926
v 0.955 1.17013696289063 0.0026132116317749
vn 0 -0.994521915912628 0.104528464376926
v 0.955 1.1712236328125 0.00772542476654053
vn 0 -0.95105654001236 0.30901700258255
v 0.955 1.17334936523437 0.0125
vn 0 -0.866025388240814 0.5
v 0.955 1.17642138671875 0.0167282657623291
vn 0 -0.743144810199738 0.669130623340607
v 0.955 1.18030541992187 0.0202254257202148
vn 0 -0.587785243988037 0.80901700258255
v 0.955 1.18483154296875 0.0228386363983154
vn 0 -0.406736642122269 0.913545429706573
v 0.955 1.18980224609375 0.0244536895751953
vn 0 -0.207911685109138 0.978147625923157
v 0.955 1.195 0.025
vn 0 0 1
v 0.945 1.195 0.025
vn 0 0 1
v 0.945 1.18980224609375 0.0244536895751953
vn 0 -0.207911685109138 0.978147625923157
v 0.945 1.18483154296875 0.0228386363983154
vn 0 -0.406736642122269 0.913545429706573
v 0.945 1.18030541992187 0.0202254257202148
vn 0 -0.587785243988037 0.80901700258255
v 0.945 1.17642138671875 0.0167282657623291
vn 0 -0.743144810199738 0.669130623340607
v 0.945 1.17334936523437 0.0125
vn 0 -0.866025388240814 0.5
v 0.945 1.1712236328125 0.00772542476654053
vn 0 -0.95105654001236 0.30901700258255
v 0.945 1.17013696289063 0.0026132116317749
vn 0 -0.994521915912628 0.104528464376926
v 0.945 1.17013696289063 -0.0026132116317749
vn 0 -0.994521915912628 -0.104528464376926
v 0.945 1.1712236328125 -0.00772542476654053
vn 0 -0.95105654001236 -0.30901700258255
v 0.945 1.17334936523437 -0.0125
vn 0 -0.866025388240814 -0.5
v 0.945 1.17642138671875 -0.0167282657623291
vn 0 -0.743144810199738 -0.669130623340607
v 0.945 1.18030541992187 -0.0202254257202148
vn 0 -0.587785243988037 -0.80901700258255
v 0.945 1.18483154296875 -0.0228386363983154
vn 0 -0.406736642122269 -0.913545429706573
v 0.945 1.18980224609375 -0.0244536895751953
vn 0 -0.207911685109138 -0.978147625923157
v 0.955 1.21133825683594 -0.0163382873535156
vn 0 -0.866025388240814 0.5
v 0.955 1.21214208984375 -0.0149459829330444
vn 0 -0.866025388240814 0.5
v 0.945 1.21214208984375 -0.0149459829330444
vn 0 -0.866025388240814 0.5
v 0.945 1.21133825683594 -0.0163382873535156
vn 0 -0.866025388240814 0.5
v 0.955 1.21580383300781 0.003
vn 0 1.47292531196631E-16 -1
v 0.955 1.21419616699219 0.003
vn 0 1.47292531196631E-16 -1
v 0.945 1.21419616699219 0.003
vn 0 1.47292531196631E-16 -1
v 0.945 1.21580383300781 0.003
vn 0 1.47292531196631E-16 -1
v 0.955 1.17866174316406 0.0163382873535156
vn 0 0.866025388240814 -0.5
v 0.955 1.17785791015625 0.0149459829330444
vn 0 0.866025388240814 -0.5
v 0.945 1.17785791015625 0.0149459829330444
vn 0 0.866025388240814 -0.5
v 0.945 1.17866174316406 0.0163382873535156
vn 0 0.866025388240814 -0.5
v 0.955 1.20994592285156 -0.0171421356201172
vn 0 -0.5 0.866025388240814
v 0.955 1.21133825683594 -0.0163382873535156
vn 0 -0.5 0.866025388240814
v 0.945 1.21133825683594 -0.0163382873535156
vn 0 -0.5 0.866025388240814
v 0.945 1.20994592285156 -0.0171421356201172
vn 0 -0.5 0.866025388240814
v 0.955 1.20614208984375 -0.0133382883071899
vn 0 1 -1.22460635382238E-16
v 0.955 1.20614208984375 -0.0149459829330444
vn 0 1 -1.22460635382238E-16
v 0.945 1.20614208984375 -0.0149459829330444
vn 0 1 -1.22460635382238E-16
v 0.945 1.20614208984375 -0.0133382883071899
vn 0 1 -1.22460635382238E-16
v 0.955 1.21280383300781 -0.00219615244865417
vn 0 0.5 0.866025388240814
v 0.955 1.21419616699219 -0.003
vn 0 0.5 0.866025388240814
v 0.945 1.21419616699219 -0.003
vn 0 0.5 0.866025388240814
v 0.945 1.21280383300781 -0.00219615244865417
vn 0 0.5 0.866025388240814
v 0.955 1.21719616699219 0.00219615244865417
vn 0 -0.5 -0.866025388240814
v 0.955 1.21580383300781 0.003
vn 0 -0.5 -0.866025388240814
v 0.945 1.21580383300781 0.003
vn 0 -0.5 -0.866025388240814
v 0.945 1.21719616699219 0.00219615244865417
vn 0 -0.5 -0.866025388240814
v 0.955 1.18385791015625 -0.0149459829330444
vn 0 -1 1.22460635382238E-16
v 0.955 1.18385791015625 -0.0133382883071899
vn 0 -1 1.22460635382238E-16
v 0.945 1.18385791015625 -0.0133382883071899
vn 0 -1 1.22460635382238E-16
v 0.945 1.18385791015625 -0.0149459829330444
vn 0 -1 1.22460635382238E-16
v 0.955 1.17785791015625 -0.0149459829330444
vn 0 0.866025388240814 0.5
v 0.955 1.17866174316406 -0.0163382873535156
vn 0 0.866025388240814 0.5
v 0.945 1.17866174316406 -0.0163382873535156
vn 0 0.866025388240814 0.5
v 0.945 1.17785791015625 -0.0149459829330444
vn 0 0.866025388240814 0.5
v 0.955 1.18005407714844 0.0171421356201172
vn 0 0.5 -0.866025388240814
v 0.955 1.17866174316406 0.0163382873535156
vn 0 0.5 -0.866025388240814
v 0.945 1.17866174316406 0.0163382873535156
vn 0 0.5 -0.866025388240814
v 0.945 1.18005407714844 0.0171421356201172
vn 0 0.5 -0.866025388240814
v 0.955 1.21214208984375 0.0149459829330444
vn 0 -0.866025388240814 -0.5
v 0.955 1.21133825683594 0.0163382873535156
vn 0 -0.866025388240814 -0.5
v 0.945 1.21133825683594 0.0163382873535156
vn 0 -0.866025388240814 -0.5
v 0.945 1.21214208984375 0.0149459829330444
vn 0 -0.866025388240814 -0.5
v 0.955 1.20833825683594 -0.0171421356201172
vn 0 1.22460635382238E-16 1
v 0.955 1.20994592285156 -0.0171421356201172
vn 0 1.22460635382238E-16 1
v 0.945 1.20994592285156 -0.0171421356201172
vn 0 1.22460635382238E-16 1
v 0.945 1.20833825683594 -0.0171421356201172
vn 0 1.22460635382238E-16 1
v 0.955 1.20694592285156 -0.0119459829330444
vn 0 0.866025388240814 -0.5
v 0.955 1.20614208984375 -0.0133382883071899
vn 0 0.866025388240814 -0.5
v 0.945 1.20614208984375 -0.0133382883071899
vn 0 0.866025388240814 -0.5
v 0.945 1.20694592285156 -0.0119459829330444
vn 0 0.866025388240814 -0.5
v 0.955 1.18305407714844 -0.0163382873535156
vn 0 -0.866025388240814 0.5
v 0.955 1.18385791015625 -0.0149459829330444
vn 0 -0.866025388240814 0.5
v 0.945 1.18385791015625 -0.0149459829330444
vn 0 -0.866025388240814 0.5
v 0.945 1.18305407714844 -0.0163382873535156
vn 0 -0.866025388240814 0.5
v 0.955 1.18005407714844 0.0111421356201172
vn 0 1.22460635382238E-16 1
v 0.955 1.18166174316406 0.0111421356201172
vn 0 1.22460635382238E-16 1
v 0.945 1.18166174316406 0.0111421356201172
vn 0 1.22460635382238E-16 1
v 0.945 1.18005407714844 0.0111421356201172
vn 0 1.22460635382238E-16 1
v 0.955 1.18166174316406 0.0171421356201172
vn 0 -1.22460635382238E-16 -1
v 0.955 1.18005407714844 0.0171421356201172
vn 0 -1.22460635382238E-16 -1
v 0.945 1.18005407714844 0.0171421356201172
vn 0 -1.22460635382238E-16 -1
v 0.945 1.18166174316406 0.0171421356201172
vn 0 -1.22460635382238E-16 -1
v 0.955 1.21214208984375 0.0133382883071899
vn 0 -1 1.22460635382238E-16
v 0.955 1.21214208984375 0.0149459829330444
vn 0 -1 1.22460635382238E-16
v 0.945 1.21214208984375 0.0149459829330444
vn 0 -1 1.22460635382238E-16
v 0.945 1.21214208984375 0.0133382883071899
vn 0 -1 1.22460635382238E-16
v 0.955 1.17785791015625 -0.0133382883071899
vn 0 1 -1.22460635382238E-16
v 0.955 1.17785791015625 -0.0149459829330444
vn 0 1 -1.22460635382238E-16
v 0.945 1.17785791015625 -0.0149459829330444
vn 0 1 -1.22460635382238E-16
v 0.945 1.17785791015625 -0.0133382883071899
vn 0 1 -1.22460635382238E-16
v 0.955 1.17866174316406 0.0119459829330444
vn 0 0.5 0.866025388240814
v 0.955 1.18005407714844 0.0111421356201172
vn 0 0.5 0.866025388240814
v 0.945 1.18005407714844 0.0111421356201172
vn 0 0.5 0.866025388240814
v 0.945 1.17866174316406 0.0119459829330444
vn 0 0.5 0.866025388240814
v 0.955 1.21133825683594 0.0119459829330444
vn 0 -0.866025388240814 0.5
v 0.955 1.21214208984375 0.0133382883071899
vn 0 -0.866025388240814 0.5
v 0.945 1.21214208984375 0.0133382883071899
vn 0 -0.866025388240814 0.5
v 0.945 1.21133825683594 0.0119459829330444
vn 0 -0.866025388240814 0.5
v 0.955 1.212 0.000803847551345825
vn 0 1 -1.22460635382238E-16
v 0.955 1.212 -0.000803847551345825
vn 0 1 -1.22460635382238E-16
v 0.945 1.212 -0.000803847551345825
vn 0 1 -1.22460635382238E-16
v 0.945 1.212 0.000803847551345825
vn 0 1 -1.22460635382238E-16
v 0.955 1.17785791015625 0.0133382883071899
vn 0 0.866025388240814 0.5
v 0.955 1.17866174316406 0.0119459829330444
vn 0 0.866025388240814 0.5
v 0.945 1.17866174316406 0.0119459829330444
vn 0 0.866025388240814 0.5
v 0.945 1.17785791015625 0.0133382883071899
vn 0 0.866025388240814 0.5
v 0.945 1.18971398925781 0.0103743000030518
vn 0 -0.30901700258255 0.95105654001236
v 0.945 1.19317858886719 0.0115
vn 0 -0.30901700258255 0.95105654001236
v 0.9435 1.19317858886719 0.0115
vn 0 -0.30901700258255 0.95105654001236
v 0.9435 1.18971398925781 0.0103743000030518
vn 0 -0.30901700258255 0.95105654001236
v 0.945 1.18676696777344 -0.00823309135437012
vn 0 -0.80901700258255 -0.587785243988037
v 0.945 1.18462573242187 -0.00528596973419189
vn 0 -0.80901700258255 -0.587785243988037
v 0.9435 1.18462573242187 -0.00528596973419189
vn 0 -0.80901700258255 -0.587785243988037
v 0.9435 1.18676696777344 -0.00823309135437012
vn 0 -0.80901700258255 -0.587785243988037
v 0.945 1.1835 -0.00182142102718353
vn 0 -1 1.22460635382238E-16
v 0.945 1.1835 0.00182142102718353
vn 0 -1 1.22460635382238E-16
v 0.9435 1.1835 0.00182142102718353
vn 0 -1 1.22460635382238E-16
v 0.9435 1.1835 -0.00182142102718353
vn 0 -1 1.22460635382238E-16
v 0.945 1.18676696777344 0.00823309135437012
vn 0 -0.587785243988037 0.80901700258255
v 0.945 1.18971398925781 0.0103743000030518
vn 0 -0.587785243988037 0.80901700258255
v 0.9435 1.18971398925781 0.0103743000030518
vn 0 -0.587785243988037 0.80901700258255
v 0.9435 1.18676696777344 0.00823309135437012
vn 0 -0.587785243988037 0.80901700258255
v 0.945 1.18462573242187 0.00528596973419189
vn 0 -0.80901700258255 0.587785243988037
v 0.945 1.18676696777344 0.00823309135437012
vn 0 -0.80901700258255 0.587785243988037
v 0.9435 1.18676696777344 0.00823309135437012
vn 0 -0.80901700258255 0.587785243988037
v 0.9435 1.18462573242187 0.00528596973419189
vn 0 -0.80901700258255 0.587785243988037
v 0.945 1.20323303222656 -0.00823309135437012
vn 0 0.587785243988037 -0.80901700258255
v 0.945 1.20028601074219 -0.0103743000030518
vn 0 0.587785243988037 -0.80901700258255
v 0.9435 1.20028601074219 -0.0103743000030518
vn 0 0.587785243988037 -0.80901700258255
v 0.9435 1.20323303222656 -0.00823309135437012
vn 0 0.587785243988037 -0.80901700258255
v 0.945 1.19682141113281 -0.0115
vn 0 -5.98661181900066E-16 -1
v 0.945 1.19317858886719 -0.0115
vn 0 -5.98661181900066E-16 -1
v 0.9435 1.19317858886719 -0.0115
vn 0 -5.98661181900066E-16 -1
v 0.9435 1.19682141113281 -0.0115
vn 0 -5.98661181900066E-16 -1
v 0.945 1.18971398925781 -0.0103743000030518
vn 0 -0.587785243988037 -0.80901700258255
v 0.945 1.18676696777344 -0.00823309135437012
vn 0 -0.587785243988037 -0.80901700258255
v 0.9435 1.18676696777344 -0.00823309135437012
vn 0 -0.587785243988037 -0.80901700258255
v 0.9435 1.18971398925781 -0.0103743000030518
vn 0 -0.587785243988037 -0.80901700258255
v 0.945 1.18462573242187 -0.00528596973419189
vn 0 -0.95105654001236 -0.30901700258255
v 0.945 1.1835 -0.00182142102718353
vn 0 -0.95105654001236 -0.30901700258255
v 0.9435 1.1835 -0.00182142102718353
vn 0 -0.95105654001236 -0.30901700258255
v 0.9435 1.18462573242187 -0.00528596973419189
vn 0 -0.95105654001236 -0.30901700258255
v 0.945 1.20323303222656 0.00823309135437012
vn 0 0.80901700258255 0.587785243988037
v 0.945 1.20537426757812 0.00528596973419189
vn 0 0.80901700258255 0.587785243988037
v 0.9435 1.20537426757812 0.00528596973419189
vn 0 0.80901700258255 0.587785243988037
v 0.9435 1.20323303222656 0.00823309135437012
vn 0 0.80901700258255 0.587785243988037
v 0.945 1.2065 0.00182142102718353
vn 0 1 -1.22460635382238E-16
v 0.945 1.2065 -0.00182142102718353
vn 0 1 -1.22460635382238E-16
v 0.9435 1.2065 -0.00182142102718353
vn 0 1 -1.22460635382238E-16
v 0.9435 1.2065 0.00182142102718353
vn 0 1 -1.22460635382238E-16
v 0.945 1.1835 0.00182142102718353
vn 0 -0.95105654001236 0.30901700258255
v 0.945 1.18462573242187 0.00528596973419189
vn 0 -0.95105654001236 0.30901700258255
v 0.9435 1.18462573242187 0.00528596973419189
vn 0 -0.95105654001236 0.30901700258255
v 0.9435 1.1835 0.00182142102718353
vn 0 -0.95105654001236 0.30901700258255
v 0.945 1.20537426757812 -0.00528596973419189
vn 0 0.80901700258255 -0.587785243988037
v 0.945 1.20323303222656 -0.00823309135437012
vn 0 0.80901700258255 -0.587785243988037
v 0.9435 1.20323303222656 -0.00823309135437012
vn 0 0.80901700258255 -0.587785243988037
v 0.9435 1.20537426757812 -0.00528596973419189
vn 0 0.80901700258255 -0.587785243988037
v 0.945 1.20028601074219 -0.0103743000030518
vn 0 0.30901700258255 -0.95105654001236
v 0.945 1.19682141113281 -0.0115
vn 0 0.30901700258255 -0.95105654001236
v 0.9435 1.19682141113281 -0.0115
vn 0 0.30901700258255 -0.95105654001236
v 0.9435 1.20028601074219 -0.0103743000030518
vn 0 0.30901700258255 -0.95105654001236
v 0.945 1.19317858886719 -0.0115
vn 0 -0.30901700258255 -0.95105654001236
v 0.945 1.18971398925781 -0.0103743000030518
vn 0 -0.30901700258255 -0.95105654001236
v 0.9435 1.18971398925781 -0.0103743000030518
vn 0 -0.30901700258255 -0.95105654001236
v 0.9435 1.19317858886719 -0.0115
vn 0 -0.30901700258255 -0.95105654001236
v 0.945 1.20028601074219 0.0103743000030518
vn 0 0.587785243988037 0.80901700258255
v 0.945 1.20323303222656 0.00823309135437012
vn 0 0.587785243988037 0.80901700258255
v 0.9435 1.20323303222656 0.00823309135437012
vn 0 0.587785243988037 0.80901700258255
v 0.9435 1.20028601074219 0.0103743000030518
vn 0 0.587785243988037 0.80901700258255
v 0.945 1.20537426757812 0.00528596973419189
vn 0 0.95105654001236 0.30901700258255
v 0.945 1.2065 0.00182142102718353
vn 0 0.95105654001236 0.30901700258255
v 0.9435 1.2065 0.00182142102718353
vn 0 0.95105654001236 0.30901700258255
v 0.9435 1.20537426757812 0.00528596973419189
vn 0 0.95105654001236 0.30901700258255
v 0.945 1.2065 -0.00182142102718353
vn 0 0.95105654001236 -0.30901700258255
v 0.945 1.20537426757812 -0.00528596973419189
vn 0 0.95105654001236 -0.30901700258255
v 0.9435 1.20537426757812 -0.00528596973419189
vn 0 0.95105654001236 -0.30901700258255
v 0.9435 1.2065 -0.00182142102718353
vn 0 0.95105654001236 -0.30901700258255
v 0.945 1.19317858886719 0.0115
vn 0 5.98661181900066E-16 1
v 0.945 1.19682141113281 0.0115
vn 0 5.98661181900066E-16 1
v 0.9435 1.19682141113281 0.0115
vn 0 5.98661181900066E-16 1
v 0.9435 1.19317858886719 0.0115
vn 0 5.98661181900066E-16 1
v 0.945 1.19682141113281 0.0115
vn 0 0.30901700258255 0.95105654001236
v 0.945 1.20028601074219 0.0103743000030518
vn 0 0.30901700258255 0.95105654001236
v 0.9435 1.20028601074219 0.0103743000030518
vn 0 0.30901700258255 0.95105654001236
v 0.9435 1.19682141113281 0.0115
vn 0 0.30901700258255 0.95105654001236
v 0.951 1.195 -0.0125
vn 1 0 0
v 0.951 1.19852160644531 -0.0119936618804932
vn 1 0 0
v 0.951 1.20175805664062 -0.0105156688690186
vn 1 0 0
v 0.951 1.20444689941406 -0.00818575954437256
vn 1 0 0
v 0.951 1.20637036132812 -0.00519268751144409
vn 1 0 0
v 0.951 1.20737280273438 -0.00177893543243408
vn 1 0 0
v 0.951 1.20737280273438 0.00177893543243408
vn 1 0 0
v 0.951 1.20637036132812 0.00519268751144409
vn 1 0 0
v 0.951 1.20444689941406 0.00818575954437256
vn 1 0 0
v 0.951 1.20175805664062 0.0105156688690186
vn 1 0 0
v 0.951 1.19852160644531 0.0119936618804932
vn 1 0 0
v 0.951 1.195 0.0125
vn 1 0 0
v 0.951 1.19147839355469 0.0119936618804932
vn 1 0 0
v 0.951 1.18824194335937 0.0105156688690186
vn 1 0 0
v 0.951 1.18555310058594 0.00818575954437256
vn 1 0 0
v 0.951 1.18362963867187 0.00519268751144409
vn 1 0 0
v 0.951 1.18262719726563 0.00177893543243408
vn 1 0 0
v 0.951 1.18262719726563 -0.00177893543243408
vn 1 0 0
v 0.951 1.18362963867187 -0.00519268751144409
vn 1 0 0
v 0.951 1.18555310058594 -0.00818575954437256
vn 1 0 0
v 0.951 1.18824194335937 -0.0105156688690186
vn 1 0 0
v 0.951 1.19147839355469 -0.0119936618804932
vn 1 0 0
v 0.9435 1.18676696777344 0.00823309135437012
vn -1 0 0
v 0.9435 1.18971398925781 0.0103743000030518
vn -1 0 0
v 0.9435 1.19317858886719 0.0115
vn -1 0 0
v 0.9435 1.19682141113281 0.0115
vn -1 0 0
v 0.9435 1.20028601074219 0.0103743000030518
vn -1 0 0
v 0.9435 1.20323303222656 0.00823309135437012
vn -1 0 0
v 0.9435 1.20537426757812 0.00528596973419189
vn -1 0 0
v 0.9435 1.2065 0.00182142102718353
vn -1 0 0
v 0.9435 1.2065 -0.00182142102718353
vn -1 0 0
v 0.9435 1.20537426757812 -0.00528596973419189
vn -1 0 0
v 0.9435 1.20323303222656 -0.00823309135437012
vn -1 0 0
v 0.9435 1.20028601074219 -0.0103743000030518
vn -1 0 0
v 0.9435 1.19682141113281 -0.0115
vn -1 0 0
v 0.9435 1.19317858886719 -0.0115
vn -1 0 0
v 0.9435 1.18971398925781 -0.0103743000030518
vn -1 0 0
v 0.9435 1.18676696777344 -0.00823309135437012
vn -1 0 0
v 0.9435 1.18462573242187 -0.00528596973419189
vn -1 0 0
v 0.9435 1.1835 -0.00182142102718353
vn -1 0 0
v 0.9435 1.1835 0.00182142102718353
vn -1 0 0
v 0.9435 1.18462573242187 0.00528596973419189
vn -1 0 0
usemtl Mat0
f 1//1 2//2 4//4
f 4//4 2//2 3//3
f 5//5 6//6 8//8
f 8//8 6//6 7//7
f 10//10 11//11 9//9
f 9//9 11//11 12//12
f 24//24 13//13 75//75
f 76//76 24//24 75//75
f 76//76 23//23 24//24
f 76//76 77//77 23//23
f 23//23 77//77 22//22
f 22//22 77//77 52//52
f 53//53 22//22 52//52
f 53//53 21//21 22//22
f 53//53 119//119 21//21
f 53//53 54//54 119//119
f 119//119 54//54 55//55
f 118//118 55//55 56//56
f 57//57 118//118 56//56
f 57//57 117//117 118//118
f 57//57 58//58 117//117
f 117//117 58//58 116//116
f 116//116 58//58 59//59
f 60//60 116//116 59//59
f 60//60 67//67 116//116
f 60//60 66//66 67//67
f 60//60 49//49 66//66
f 66//66 49//49 80//80
f 65//65 80//80 81//81
f 64//64 81//81 82//82
f 63//63 82//82 62//62
f 63//63 64//64 82//82
f 15//15 123//123 14//14
f 15//15 16//16 123//123
f 123//123 16//16 122//122
f 122//122 16//16 17//17
f 18//18 122//122 17//17
f 18//18 121//121 122//122
f 18//18 19//19 121//121
f 121//121 19//19 120//120
f 120//120 19//19 20//20
f 21//21 120//120 20//20
f 21//21 119//119 120//120
f 26//26 100//100 25//25
f 26//26 27//27 100//100
f 100//100 27//27 99//99
f 99//99 27//27 28//28
f 98//98 28//28 29//29
f 30//30 98//98 29//29
f 30//30 97//97 98//98
f 30//30 31//31 97//97
f 97//97 31//31 32//32
f 96//96 32//32 94//94
f 73//73 96//96 94//94
f 73//73 95//95 96//96
f 73//73 124//124 95//95
f 73//73 74//74 124//124
f 124//124 74//74 14//14
f 123//123 124//124 14//14
f 94//94 32//32 93//93
f 93//93 32//32 33//33
f 34//34 93//93 33//33
f 34//34 92//92 93//93
f 34//34 35//35 92//92
f 92//92 35//35 91//91
f 91//91 35//35 36//36
f 101//101 36//36 25//25
f 100//100 101//101 25//25
f 39//39 105//105 38//38
f 39//39 40//40 105//105
f 105//105 40//40 104//104
f 104//104 40//40 41//41
f 88//88 41//41 42//42
f 87//87 42//42 43//43
f 86//86 43//43 44//44
f 45//45 86//86 44//44
f 45//45 85//85 86//86
f 45//45 109//109 85//85
f 45//45 108//108 109//109
f 45//45 46//46 108//108
f 108//108 46//46 47//47
f 107//107 47//47 48//48
f 37//37 107//107 48//48
f 37//37 106//106 107//107
f 37//37 38//38 106//106
f 106//106 38//38 105//105
f 80//80 49//49 79//79
f 79//79 49//49 50//50
f 51//51 79//79 50//50
f 51//51 78//78 79//79
f 51//51 52//52 78//78
f 78//78 52//52 77//77
f 72//72 61//61 112//112
f 113//113 72//72 112//112
f 113//113 71//71 72//72
f 113//113 70//70 71//71
f 113//113 114//114 70//70
f 70//70 114//114 69//69
f 69//69 114//114 115//115
f 68//68 115//115 67//67
f 68//68 69//69 115//115
f 64//64 65//65 81//81
f 65//65 66//66 80//80
f 74//74 75//75 14//14
f 14//14 75//75 13//13
f 82//82 83//83 62//62
f 62//62 83//83 111//111
f 112//112 62//62 111//111
f 112//112 61//61 62//62
f 83//83 84//84 111//111
f 111//111 84//84 110//110
f 110//110 84//84 109//109
f 109//109 84//84 85//85
f 86//86 87//87 43//43
f 87//87 88//88 42//42
f 41//41 88//88 104//104
f 104//104 88//88 89//89
f 103//103 89//89 90//90
f 102//102 90//90 101//101
f 102//102 103//103 90//90
f 90//90 91//91 101//101
f 101//101 91//91 36//36
f 96//96 97//97 32//32
f 98//98 99//99 28//28
f 103//103 104//104 89//89
f 107//107 108//108 47//47
f 115//115 116//116 67//67
f 118//118 119//119 55//55
f 183//183 184//184 127//127
f 128//128 183//183 127//127
f 128//128 182//182 183//183
f 128//128 181//181 182//182
f 128//128 129//129 181//181
f 181//181 129//129 180//180
f 180//180 129//129 130//130
f 179//179 130//130 190//190
f 179//179 180//180 130//130
f 127//127 185//185 126//126
f 127//127 184//184 185//185
f 130//130 131//131 190//190
f 190//190 131//131 189//189
f 189//189 131//131 219//219
f 220//220 189//189 219//219
f 220//220 188//188 189//189
f 220//220 221//221 188//188
f 188//188 221//221 187//187
f 187//187 221//221 186//186
f 186//186 221//221 222//222
f 185//185 222//222 223//223
f 126//126 223//223 125//125
f 126//126 185//185 223//223
f 131//131 132//132 219//219
f 219//219 132//132 133//133
f 218//218 133//133 134//134
f 194//194 134//134 193//193
f 194//194 218//218 134//134
f 194//194 217//217 218//218
f 194//194 195//195 217//217
f 217//217 195//195 216//216
f 216//216 195//195 196//196
f 197//197 216//216 196//196
f 197//197 215//215 216//216
f 197//197 198//198 215//215
f 215//215 198//198 234//234
f 234//234 198//198 139//139
f 140//140 234//234 139//139
f 140//140 233//233 234//234
f 140//140 141//141 233//233
f 233//233 141//141 204//204
f 232//232 204//204 205//205
f 231//231 205//205 206//206
f 207//207 231//231 206//206
f 207//207 230//230 231//231
f 207//207 208//208 230//230
f 230//230 208//208 178//178
f 229//229 178//178 167//167
f 168//168 229//229 167//167
f 168//168 228//228 229//229
f 168//168 169//169 228//228
f 228//228 169//169 227//227
f 227//227 169//169 164//164
f 165//165 227//227 164//164
f 165//165 226//226 227//227
f 165//165 166//166 226//226
f 226//226 166//166 155//155
f 225//225 155//155 156//156
f 224//224 156//156 154//154
f 125//125 224//224 154//154
f 125//125 223//223 224//224
f 134//134 135//135 193//193
f 193//193 135//135 192//192
f 192//192 135//135 191//191
f 191//191 135//135 136//136
f 202//202 136//136 137//137
f 201//201 137//137 200//200
f 201//201 202//202 137//137
f 137//137 138//138 200//200
f 200//200 138//138 199//199
f 199//199 138//138 198//198
f 198//198 138//138 139//139
f 141//141 142//142 204//204
f 204//204 142//142 203//203
f 203//203 142//142 214//214
f 214//214 142//142 143//143
f 213//213 143//143 212//212
f 213//213 214//214 143//143
f 143//143 144//144 212//212
f 212//212 144//144 211//211
f 211//211 144//144 145//145
f 210//210 145//145 209//209
f 210//210 211//211 145//145
f 145//145 146//146 209//209
f 209//209 146//146 177//177
f 208//208 177//177 178//178
f 208//208 209//209 177//177
f 172//172 173//173 148//148
f 149//149 172//172 148//148
f 149//149 171//171 172//172
f 149//149 170//170 171//171
f 149//149 163//163 170//170
f 149//149 150//150 163//163
f 163//163 150//150 162//162
f 162//162 150//150 161//161
f 161//161 150//150 151//151
f 160//160 151//151 152//152
f 159//159 152//152 158//158
f 159//159 160//160 152//152
f 148//148 174//174 147//147
f 148//148 173//173 174//174
f 152//152 153//153 158//158
f 158//158 153//153 157//157
f 157//157 153//153 156//156
f 156//156 153//153 154//154
f 160//160 161//161 151//151
f 163//163 164//164 170//170
f 170//170 164//164 169//169
f 174//174 175//175 147//147
f 147//147 175//175 146//146
f 146//146 175//175 176//176
f 177//177 146//146 176//176
f 185//185 186//186 222//222
f 202//202 191//191 136//136
f 218//218 219//219 133//133
f 224//224 225//225 156//156
f 225//225 226//226 155//155
f 229//229 230//230 178//178
f 231//231 232//232 205//205
f 232//232 233//233 204//204
f 235//235 236//236 238//238
f 238//238 236//236 237//237
f 239//239 240//240 242//242
f 242//242 240//240 241//241
f 243//243 244//244 266//266
f 266//266 244//244 265//265
f 265//265 244//244 245//245
f 264//264 245//245 246//246
f 263//263 246//246 247//247
f 262//262 247//247 248//248
f 261//261 248//248 249//249
f 260//260 249//249 250//250
f 259//259 250//250 251//251
f 258//258 251//251 252//252
f 257//257 252//252 253//253
f 256//256 253//253 254//254
f 255//255 256//256 254//254
f 256//256 257//257 253//253
f 257//257 258//258 252//252
f 258//258 259//259 251//251
f 259//259 260//260 250//250
f 260//260 261//261 249//249
f 261//261 262//262 248//248
f 262//262 263//263 247//247
f 263//263 264//264 246//246
f 264//264 265//265 245//245
f 267//267 268//268 270//270
f 270//270 268//268 269//269
f 271//271 272//272 274//274
f 274//274 272//272 273//273
f 275//275 276//276 306//306
f 306//306 276//276 305//305
f 305//305 276//276 277//277
f 304//304 277//277 278//278
f 303//303 278//278 279//279
f 302//302 279//279 280//280
f 301//301 280//280 281//281
f 300//300 281//281 282//282
f 299//299 282//282 283//283
f 298//298 283//283 284//284
f 297//297 284//284 285//285
f 296//296 285//285 286//286
f 295//295 286//286 287//287
f 294//294 287//287 288//288
f 293//293 288//288 289//289
f 292//292 289//289 290//290
f 291//291 292//292 290//290
f 292//292 293//293 289//289
f 293//293 294//294 288//288
f 294//294 295//295 287//287
f 295//295 296//296 286//286
f 296//296 297//297 285//285
f 297//297 298//298 284//284
f 298//298 299//299 283//283
f 299//299 300//300 282//282
f 300//300 301//301 281//281
f 301//301 302//302 280//280
f 302//302 303//303 279//279
f 303//303 304//304 278//278
f 304//304 305//305 277//277
f 307//307 308//308 310//310
f 310//310 308//308 309//309
f 311//311 312//312 314//314
f 314//314 312//312 313//313
f 316//316 317//317 315//315
f 315//315 317//317 318//318
f 319//319 320//320 322//322
f 322//322 320//320 321//321
f 324//324 325//325 323//323
f 323//323 325//325 346//346
f 346//346 325//325 326//326
f 345//345 326//326 327//327
f 344//344 327//327 328//328
f 343//343 328//328 329//329
f 342//342 329//329 330//330
f 341//341 330//330 331//331
f 340//340 331//331 332//332
f 339//339 332//332 333//333
f 338//338 333//333 334//334
f 337//337 334//334 335//335
f 336//336 337//337 335//335
f 337//337 338//338 334//334
f 338//338 339//339 333//333
f 339//339 340//340 332//332
f 340//340 341//341 331//331
f 341//341 342//342 330//330
f 342//342 343//343 329//329
f 343//343 344//344 328//328
f 344//344 345//345 327//327
f 345//345 346//346 326//326
f 347//347 348//348 350//350
f 350//350 348//348 349//349
f 351//351 352//352 354//354
f 354//354 352//352 353//353
f 355//355 356//356 358//358
f 358//358 356//356 357//357
f 359//359 360//360 362//362
f 362//362 360//360 361//361
f 364//364 365//365 363//363
f 363//363 365//365 366//366
f 367//367 368//368 370//370
f 370//370 368//368 369//369
f 371//371 372//372 374//374
f 374//374 372//372 373//373
f 375//375 376//376 378//378
f 378//378 376//376 377//377
f 379//379 380//380 382//382
f 382//382 380//380 381//381
f 383//383 384//384 386//386
f 386//386 384//384 385//385
f 387//387 388//388 390//390
f 390//390 388//388 389//389
f 391//391 392//392 394//394
f 394//394 392//392 393//393
f 395//395 396//396 398//398
f 398//398 396//396 397//397
f 399//399 400//400 402//402
f 402//402 400//400 401//401
f 404//404 405//405 403//403
f 403//403 405//405 406//406
f 407//407 408//408 410//410
f 410//410 408//408 409//409
f 412//412 413//413 411//411
f 411//411 413//413 414//414
f 415//415 416//416 418//418
f 418//418 416//416 417//417
f 419//419 420//420 422//422
f 422//422 420//420 421//421
f 423//423 424//424 426//426
f 426//426 424//424 425//425
f 427//427 428//428 430//430
f 430//430 428//428 429//429
f 431//431 432//432 434//434
f 434//434 432//432 433//433
f 435//435 436//436 438//438
f 438//438 436//436 437//437
f 439//439 440//440 442//442
f 442//442 440//440 441//441
f 443//443 444//444 446//446
f 446//446 444//444 445//445
f 447//447 448//448 450//450
f 450//450 448//448 449//449
f 451//451 452//452 454//454
f 454//454 452//452 453//453
f 456//456 457//457 455//455
f 455//455 457//457 486//486
f 486//486 457//457 458//458
f 485//485 458//458 459//459
f 484//484 459//459 460//460
f 483//483 460//460 461//461
f 482//482 461//461 462//462
f 481//481 462//462 463//463
f 480//480 463//463 464//464
f 479//479 464//464 465//465
f 478//478 465//465 466//466
f 477//477 466//466 467//467
f 476//476 467//467 468//468
f 475//475 468//468 469//469
f 474//474 469//469 470//470
f 473//473 470//470 471//471
f 472//472 473//473 471//471
f 473//473 474//474 470//470
f 474//474 475//475 469//469
f 475//475 476//476 468//468
f 476//476 477//477 467//467
f 477//477 478//478 466//466
f 478//478 479//479 465//465
f 479//479 480//480 464//464
f 480//480 481//481 463//463
f 481//481 482//482 462//462
f 482//482 483//483 461//461
f 483//483 484//484 460//460
f 484//484 485//485 459//459
f 485//485 486//486 458//458
f 487//487 488//488 490//490
f 490//490 488//488 489//489
f 491//491 492//492 494//494
f 494//494 492//492 493//493
f 495//495 496//496 498//498
f 498//498 496//496 497//497
f 499//499 500//500 502//502
f 502//502 500//500 501//501
f 503//503 504//504 506//506
f 506//506 504//504 505//505
f 507//507 508//508 510//510
f 510//510 508//508 509//509
f 511//511 512//512 514//514
f 514//514 512//512 513//513
f 515//515 516//516 518//518
f 518//518 516//516 517//517
f 519//519 520//520 522//522
f 522//522 520//520 521//521
f 523//523 524//524 526//526
f 526//526 524//524 525//525
f 527//527 528//528 530//530
f 530//530 528//528 529//529
f 532//532 533//533 531//531
f 531//531 533//533 534//534
f 535//535 536//536 538//538
f 538//538 536//536 537//537
f 539//539 540//540 542//542
f 542//542 540//540 541//541
f 544//544 545//545 543//543
f 543//543 545//545 546//546
f 548//548 549//549 547//547
f 547//547 549//549 550//550
f 551//551 552//552 554//554
f 554//554 552//552 553//553
f 555//555 556//556 558//558
f 558//558 556//556 557//557
f 559//559 560//560 562//562
f 562//562 560//560 561//561
f 563//563 564//564 566//566
f 566//566 564//564 565//565
f 567//567 568//568 570//570
f 570//570 568//568 569//569
f 571//571 572//572 574//574
f 574//574 572//572 573//573
f 575//575 576//576 578//578
f 578//578 576//576 577//577
f 579//579 580//580 582//582
f 582//582 580//580 581//581
f 583//583 584//584 586//586
f 586//586 584//584 585//585
f 587//587 588//588 590//590
f 590//590 588//588 589//589
f 591//591 592//592 594//594
f 594//594 592//592 593//593
f 595//595 596//596 598//598
f 598//598 596//596 597//597
f 599//599 600//600 602//602
f 602//602 600//600 601//601
f 603//603 604//604 606//606
f 606//606 604//604 605//605
f 607//607 608//608 610//610
f 610//610 608//608 609//609
f 611//611 612//612 614//614
f 614//614 612//612 613//613
f 615//615 616//616 618//618
f 618//618 616//616 617//617
f 619//619 620//620 622//622
f 622//622 620//620 621//621
f 623//623 624//624 626//626
f 626//626 624//624 625//625
f 627//627 628//628 630//630
f 630//630 628//628 629//629
f 631//631 632//632 634//634
f 634//634 632//632 633//633
f 635//635 636//636 638//638
f 638//638 636//636 637//637
f 639//639 640//640 642//642
f 642//642 640//640 641//641
f 643//643 644//644 646//646
f 646//646 644//644 645//645
f 647//647 648//648 650//650
f 650//650 648//648 649//649
f 651//651 652//652 654//654
f 654//654 652//652 653//653
f 660//660 661//661 659//659
f 659//659 661//661 662//662
f 658//658 662//662 663//663
f 657//657 663//663 664//664
f 656//656 664//664 665//665
f 655//655 665//665 666//666
f 676//676 666//666 667//667
f 675//675 667//667 668//668
f 674//674 668//668 669//669
f 673//673 669//669 670//670
f 672//672 670//670 671//671
f 672//672 673//673 670//670
f 656//656 657//657 664//664
f 657//657 658//658 663//663
f 658//658 659//659 662//662
f 673//673 674//674 669//669
f 674//674 675//675 668//668
f 675//675 676//676 667//667
f 676//676 655//655 666//666
f 665//665 655//655 656//656
f 684//684 685//685 683//683
f 683//683 685//685 686//686
f 682//682 686//686 687//687
f 681//681 687//687 688//688
f 680//680 688//688 689//689
f 679//679 689//689 690//690
f 678//678 690//690 691//691
f 677//677 691//691 692//692
f 696//696 692//692 693//693
f 695//695 693//693 694//694
f 695//695 696//696 693//693
f 678//678 679//679 690//690
f 679//679 680//680 689//689
f 680//680 681//681 688//688
f 681//681 682//682 687//687
f 682//682 683//683 686//686
f 696//696 677//677 692//692
f 691//691 677//677 678//678
