mtllib Link2.mtl
v 0.181 1.07990991210937 0.056
vn 0.95105654001236 0.30901700258255 0
v 0.181 1.07990991210937 0.055
vn 0.95105654001236 0.30901700258255 0
v 0.178064331054687 1.08894494628906 0.055
vn 0.95105654001236 0.30901700258255 0
v 0.178064331054687 1.08894494628906 -0.055
vn 0.95105654001236 0.30901700258255 0
v 0.181 1.07990991210937 -0.055
vn 0.95105654001236 0.30901700258255 0
v 0.181 1.07990991210937 -0.056
vn 0.95105654001236 0.30901700258255 0
v 0.17796549987793 1.08924914550781 -0.056
vn 0.95105654001236 0.30901700258255 0
v 0.17796549987793 1.08924914550781 0.056
vn 0.95105654001236 0.30901700258255 0
v 0.181 1.07990991210937 -0.055
vn 1 0 0
v 0.181 1.07009008789062 -0.055
vn 1 0 0
v 0.181 1.07009008789062 -0.056
vn 1 0 0
v 0.181 1.07990991210937 -0.056
vn 1 0 0
v 0.172193542480469 1.05280639648438 -0.056
vn 0 0 -1
v 0.164249130249023 1.04703454589844 -0.056
vn 0 0 -1
v 0.154909912109375 1.044 -0.056
vn 0 0 -1
v 0.145090087890625 1.044 -0.056
vn 0 0 -1
v 0.135750869750977 1.04703454589844 -0.056
vn 0 0 -1
v 0.127806449890137 1.05280639648438 -0.056
vn 0 0 -1
v 0.122034492492676 1.06075085449219 -0.056
vn 0 0 -1
v 0.119 1.07009008789062 -0.056
vn 0 0 -1
v 0.119 1.07990991210937 -0.056
vn 0 0 -1
v 0.122034492492676 1.08924914550781 -0.056
vn 0 0 -1
v 0.127806449890137 1.09719360351563 -0.056
vn 0 0 -1
v 0.135750869750977 1.10296545410156 -0.056
vn 0 0 -1
v 0.145090087890625 1.106 -0.056
vn 0 0 -1
v 0.154909912109375 1.106 -0.056
vn 0 0 -1
v 0.164249130249023 1.10296545410156 -0.056
vn 0 0 -1
v 0.172193542480469 1.09719360351563 -0.056
vn 0 0 -1
v 0.17796549987793 1.08924914550781 -0.056
vn 0 0 -1
v 0.181 1.07990991210937 -0.056
vn 0 0 -1
v 0.181 1.07009008789062 -0.056
vn 0 0 -1
v 0.17796549987793 1.06075085449219 -0.056
vn 0 0 -1
v 0.181 1.07009008789062 -0.055
vn 0 0 -1
v 0.181 1.07990991210937 -0.055
vn 0 0 -1
v 0.178064331054687 1.08894494628906 -0.055
vn 0 0 -1
v 0.201 1.056 -0.055
vn 0 0 -1
v 0.235 0.93 -0.055
vn 0 0 -1
v 0.235 0.548553344726562 -0.055
vn 0 0 -1
v 0.230183151245117 0.555183166503906 -0.055
vn 0 0 -1
v 0.201480743408203 0.576036682128906 -0.055
vn 0 0 -1
v 0.167739059448242 0.587 -0.055
vn 0 0 -1
v 0.132260940551758 0.587 -0.055
vn 0 0 -1
v 0.128 0.585615539550781 -0.055
vn 0 0 -1
v 0.128 1.05266577148438 -0.055
vn 0 0 -1
v 0.135750869750977 1.04703454589844 -0.055
vn 0 0 -1
v 0.145090087890625 1.044 -0.055
vn 0 0 -1
v 0.154909912109375 1.044 -0.055
vn 0 0 -1
v 0.164249130249023 1.04703454589844 -0.055
vn 0 0 -1
v 0.172193542480469 1.05280639648438 -0.055
vn 0 0 -1
v 0.17796549987793 1.06075085449219 -0.055
vn 0 0 -1
v 0.178064331054687 1.08894494628906 -0.055
vn 0.820701658725739 0.571357011795044 0
v 0.178064331054687 1.08894494628906 0.055
vn 0.820701658725739 0.571357011795044 0
v 0.201 1.056 0.055
vn 0.820701658725739 0.571357011795044 0
v 0.201 1.056 -0.055
vn 0.820701658725739 0.571357011795044 0
v 0.172193542480469 1.09719360351563 -0.056
vn 0.80901700258255 0.587785243988037 0
v 0.172193542480469 1.09719360351563 0.056
vn 0.80901700258255 0.587785243988037 0
v 0.17796549987793 1.08924914550781 0.056
vn 0.80901700258255 0.587785243988037 0
v 0.17796549987793 1.08924914550781 -0.056
vn 0.80901700258255 0.587785243988037 0
v 0.181 1.07009008789062 0.056
vn 1 0 0
v 0.181 1.07009008789062 0.055
vn 1 0 0
v 0.181 1.07990991210937 0.055
vn 1 0 0
v 0.181 1.07990991210937 0.056
vn 1 0 0
v 0.128 0.699 0.055
vn 0 0 1
v 0.134 0.699 0.055
vn 0 0 1
v 0.134 0.587 0.055
vn 0 0 1
v 0.167739059448242 0.587 0.055
vn 0 0 1
v 0.201480743408203 0.576036682128906 0.055
vn 0 0 1
v 0.230183151245117 0.555183166503906 0.055
vn 0 0 1
v 0.235 0.548553344726562 0.055
vn 0 0 1
v 0.235 0.93 0.055
vn 0 0 1
v 0.201 1.056 0.055
vn 0 0 1
v 0.178064331054687 1.08894494628906 0.055
vn 0 0 1
v 0.181 1.07990991210937 0.055
vn 0 0 1
v 0.181 1.07009008789062 0.055
vn 0 0 1
v 0.17796549987793 1.06075085449219 0.055
vn 0 0 1
v 0.172193542480469 1.05280639648438 0.055
vn 0 0 1
v 0.164249130249023 1.04703454589844 0.055
vn 0 0 1
v 0.154909912109375 1.044 0.055
vn 0 0 1
v 0.145090087890625 1.044 0.055
vn 0 0 1
v 0.135750869750977 1.04703454589844 0.055
vn 0 0 1
v 0.128 1.05266577148438 0.055
vn 0 0 1
v 0.164249130249023 1.04703454589844 0.056
vn 0 0 1
v 0.172193542480469 1.05280639648438 0.056
vn 0 0 1
v 0.17796549987793 1.06075085449219 0.056
vn 0 0 1
v 0.181 1.07009008789062 0.056
vn 0 0 1
v 0.181 1.07990991210937 0.056
vn 0 0 1
v 0.17796549987793 1.08924914550781 0.056
vn 0 0 1
v 0.172193542480469 1.09719360351563 0.056
vn 0 0 1
v 0.164249130249023 1.10296545410156 0.056
vn 0 0 1
v 0.154909912109375 1.106 0.056
vn 0 0 1
v 0.145090087890625 1.106 0.056
vn 0 0 1
v 0.135750869750977 1.10296545410156 0.056
vn 0 0 1
v 0.127806449890137 1.09719360351563 0.056
vn 0 0 1
v 0.122034492492676 1.08924914550781 0.056
vn 0 0 1
v 0.119 1.07990991210937 0.056
vn 0 0 1
v 0.119 1.07009008789062 0.056
vn 0 0 1
v 0.122034492492676 1.06075085449219 0.056
vn 0 0 1
v 0.127806449890137 1.05280639648438 0.056
vn 0 0 1
v 0.135750869750977 1.04703454589844 0.056
vn 0 0 1
v 0.145090087890625 1.044 0.056
vn 0 0 1
v 0.154909912109375 1.044 0.056
vn 0 0 1
v 0.181 1.07009008789062 -0.055
vn 0.95105654001236 -0.30901700258255 0
v 0.17796549987793 1.06075085449219 -0.055
vn 0.95105654001236 -0.30901700258255 0
v 0.17796549987793 1.06075085449219 -0.056
vn 0.95105654001236 -0.30901700258255 0
v 0.181 1.07009008789062 -0.056
vn 0.95105654001236 -0.30901700258255 0
v 0.164249130249023 1.10296545410156 -0.056
vn 0.587785243988037 0.80901700258255 0
v 0.164249130249023 1.10296545410156 0.056
vn 0.587785243988037 0.80901700258255 0
v 0.172193542480469 1.09719360351563 0.056
vn 0.587785243988037 0.80901700258255 0
v 0.172193542480469 1.09719360351563 -0.056
vn 0.587785243988037 0.80901700258255 0
v 0.135750869750977 1.10296545410156 -0.056
vn -0.30901700258255 0.95105654001236 0
v 0.135750869750977 1.10296545410156 0.056
vn -0.30901700258255 0.95105654001236 0
v 0.145090087890625 1.106 0.056
vn -0.30901700258255 0.95105654001236 0
v 0.145090087890625 1.106 -0.056
vn -0.30901700258255 0.95105654001236 0
v 0.119 1.07990991210937 -0.056
vn -0.95105654001236 0.30901700258255 0
v 0.119 1.07990991210937 0.056
vn -0.95105654001236 0.30901700258255 0
v 0.122034492492676 1.08924914550781 0.056
vn -0.95105654001236 0.30901700258255 0
v 0.122034492492676 1.08924914550781 -0.056
vn -0.95105654001236 0.30901700258255 0
v 0.119 1.07009008789062 -0.056
vn -1 3.17979090662932E-15 0
v 0.119 1.07009008789062 0.056
vn -1 3.17979090662932E-15 0
v 0.119 1.07990991210937 0.056
vn -1 3.17979090662932E-15 0
v 0.119 1.07990991210937 -0.056
vn -1 3.17979090662932E-15 0
v 0.127806449890137 1.05280639648438 -0.056
vn -0.80901700258255 -0.587785243988037 0
v 0.127806449890137 1.05280639648438 0.056
vn -0.80901700258255 -0.587785243988037 0
v 0.122034492492676 1.06075085449219 0.056
vn -0.80901700258255 -0.587785243988037 0
v 0.122034492492676 1.06075085449219 -0.056
vn -0.80901700258255 -0.587785243988037 0
v 0.154909912109375 1.044 -0.055
vn 0 -1 0
v 0.145090087890625 1.044 -0.055
vn 0 -1 0
v 0.145090087890625 1.044 -0.056
vn 0 -1 0
v 0.154909912109375 1.044 -0.056
vn 0 -1 0
v 0.17796549987793 1.06075085449219 -0.055
vn 0.80901700258255 -0.587785243988037 0
v 0.172193542480469 1.05280639648438 -0.055
vn 0.80901700258255 -0.587785243988037 0
v 0.172193542480469 1.05280639648438 -0.056
vn 0.80901700258255 -0.587785243988037 0
v 0.17796549987793 1.06075085449219 -0.056
vn 0.80901700258255 -0.587785243988037 0
v 0.172193542480469 1.05280639648438 -0.055
vn 0.587785243988037 -0.80901700258255 0
v 0.164249130249023 1.04703454589844 -0.055
vn 0.587785243988037 -0.80901700258255 0
v 0.164249130249023 1.04703454589844 -0.056
vn 0.587785243988037 -0.80901700258255 0
v 0.172193542480469 1.05280639648438 -0.056
vn 0.587785243988037 -0.80901700258255 0
v 0.154909912109375 1.106 -0.056
vn 0.30901700258255 0.95105654001236 0
v 0.154909912109375 1.106 0.056
vn 0.30901700258255 0.95105654001236 0
v 0.164249130249023 1.10296545410156 0.056
vn 0.30901700258255 0.95105654001236 0
v 0.164249130249023 1.10296545410156 -0.056
vn 0.30901700258255 0.95105654001236 0
v 0.145090087890625 1.044 -0.055
vn -0.30901700258255 -0.95105654001236 0
v 0.135750869750977 1.04703454589844 -0.055
vn -0.30901700258255 -0.95105654001236 0
v 0.135750869750977 1.04703454589844 -0.056
vn -0.30901700258255 -0.95105654001236 0
v 0.145090087890625 1.044 -0.056
vn -0.30901700258255 -0.95105654001236 0
v 0.145090087890625 1.106 -0.056
vn 0 1 0
v 0.145090087890625 1.106 0.056
vn 0 1 0
v 0.154909912109375 1.106 0.056
vn 0 1 0
v 0.154909912109375 1.106 -0.056
vn 0 1 0
v 0.164249130249023 1.04703454589844 -0.055
vn 0.30901700258255 -0.95105654001236 0
v 0.154909912109375 1.044 -0.055
vn 0.30901700258255 -0.95105654001236 0
v 0.154909912109375 1.044 -0.056
vn 0.30901700258255 -0.95105654001236 0
v 0.164249130249023 1.04703454589844 -0.056
vn 0.30901700258255 -0.95105654001236 0
v 0.127806449890137 1.09719360351563 -0.056
vn -0.587785243988037 0.80901700258255 0
v 0.127806449890137 1.09719360351563 0.056
vn -0.587785243988037 0.80901700258255 0
v 0.135750869750977 1.10296545410156 0.056
vn -0.587785243988037 0.80901700258255 0
v 0.135750869750977 1.10296545410156 -0.056
vn -0.587785243988037 0.80901700258255 0
v 0.122034492492676 1.08924914550781 -0.056
vn -0.80901700258255 0.587785243988037 0
v 0.122034492492676 1.08924914550781 0.056
vn -0.80901700258255 0.587785243988037 0
v 0.127806449890137 1.09719360351563 0.056
vn -0.80901700258255 0.587785243988037 0
v 0.127806449890137 1.09719360351563 -0.056
vn -0.80901700258255 0.587785243988037 0
v 0.122034492492676 1.06075085449219 -0.056
vn -0.95105654001236 -0.30901700258255 0
v 0.122034492492676 1.06075085449219 0.056
vn -0.95105654001236 -0.30901700258255 0
v 0.119 1.07009008789062 0.056
vn -0.95105654001236 -0.30901700258255 0
v 0.119 1.07009008789062 -0.056
vn -0.95105654001236 -0.30901700258255 0
v 0.128 1.05266577148438 -0.055
vn -0.587785243988037 -0.80901700258255 0
v 0.128 1.05266577148438 0.055
vn -0.587785243988037 -0.80901700258255 0
v 0.135750869750977 1.04703454589844 0.055
vn -0.587785243988037 -0.80901700258255 0
v 0.135750869750977 1.04703454589844 0.056
vn -0.587785243988037 -0.80901700258255 0
v 0.127806449890137 1.05280639648438 0.056
vn -0.587785243988037 -0.80901700258255 0
v 0.127806449890137 1.05280639648438 -0.056
vn -0.587785243988037 -0.80901700258255 0
v 0.135750869750977 1.04703454589844 -0.056
vn -0.587785243988037 -0.80901700258255 0
v 0.135750869750977 1.04703454589844 -0.055
vn -0.587785243988037 -0.80901700258255 0
v 0.132260940551758 0.587 -0.0575
vn 0 1 0
v 0.132260940551758 0.587 -0.055
vn 0 1 0
v 0.167739059448242 0.587 -0.055
vn 0 1 0
v 0.167739059448242 0.587 -0.0575
vn 0 1 0
v 0.201480743408203 0.576036682128906 -0.0575
vn 0.587785243988037 0.80901700258255 0
v 0.201480743408203 0.576036682128906 -0.055
vn 0.587785243988037 0.80901700258255 0
v 0.230183151245117 0.555183166503906 -0.055
vn 0.587785243988037 0.80901700258255 0
v 0.230183151245117 0.555183166503906 -0.0575
vn 0.587785243988037 0.80901700258255 0
v 0.128 0.475 0.045
vn -1 1.0810756282934E-16 0
v 0.128 0.562483337402344 0.045
vn -1 1.0810756282934E-16 0
v 0.128 0.562483337402344 0.004
vn -1 1.0810756282934E-16 0
v 0.128 0.699 0.004
vn -1 1.0810756282934E-16 0
v 0.128 0.699 0.055
vn -1 1.0810756282934E-16 0
v 0.128 1.05266577148438 0.055
vn -1 1.0810756282934E-16 0
v 0.128 1.05266577148438 -0.055
vn -1 1.0810756282934E-16 0
v 0.128 0.585615539550781 -0.055
vn -1 1.0810756282934E-16 0
v 0.128 0.585615539550781 -0.045
vn -1 1.0810756282934E-16 0
v 0.128 0.475 -0.045
vn -1 1.0810756282934E-16 0
v 0.167739059448242 0.587 -0.0575
vn 0.30901700258255 0.95105654001236 0
v 0.167739059448242 0.587 -0.055
vn 0.30901700258255 0.95105654001236 0
v 0.201480743408203 0.576036682128906 -0.055
vn 0.30901700258255 0.95105654001236 0
v 0.201480743408203 0.576036682128906 -0.0575
vn 0.30901700258255 0.95105654001236 0
v 0.128 0.585615539550781 -0.045
vn -0.30901700258255 0.95105654001236 0
v 0.128 0.585615539550781 -0.055
vn -0.30901700258255 0.95105654001236 0
v 0.132260940551758 0.587 -0.055
vn -0.30901700258255 0.95105654001236 0
v 0.132260940551758 0.587 -0.0575
vn -0.30901700258255 0.95105654001236 0
v 0.0985192489624023 0.576036682128906 -0.0575
vn -0.30901700258255 0.95105654001236 0
v 0.0985192489624023 0.576036682128906 -0.045
vn -0.30901700258255 0.95105654001236 0
v 0.235 0.548553344726562 -0.055
vn 0.80901700258255 0.587785243988037 0
v 0.235 0.548553344726562 -0.045
vn 0.80901700258255 0.587785243988037 0
v 0.251036666870117 0.526480773925781 -0.045
vn 0.80901700258255 0.587785243988037 0
v 0.251036666870117 0.526480773925781 -0.0575
vn 0.80901700258255 0.587785243988037 0
v 0.230183151245117 0.555183166503906 -0.0575
vn 0.80901700258255 0.587785243988037 0
v 0.230183151245117 0.555183166503906 -0.055
vn 0.80901700258255 0.587785243988037 0
v 0.201 1.056 0.055
vn 0.965467631816864 0.260523021221161 0
v 0.235 0.93 0.055
vn 0.965467631816864 0.260523021221161 0
v 0.235 0.93 -0.055
vn 0.965467631816864 0.260523021221161 0
v 0.201 1.056 -0.055
vn 0.965467631816864 0.260523021221161 0
v 0.235 0.548553344726562 0.055
vn 1 -9.15018987974483E-17 0
v 0.235 0.548553344726562 0.045
vn 1 -9.15018987974483E-17 0
v 0.235 0.475 0.045
vn 1 -9.15018987974483E-17 0
v 0.235 0.475 -0.045
vn 1 -9.15018987974483E-17 0
v 0.235 0.548553344726562 -0.045
vn 1 -9.15018987974483E-17 0
v 0.235 0.548553344726562 -0.055
vn 1 -9.15018987974483E-17 0
v 0.235 0.93 -0.055
vn 1 -9.15018987974483E-17 0
v 0.235 0.93 0.055
vn 1 -9.15018987974483E-17 0
v 0.17796549987793 1.06075085449219 0.056
vn 0.95105654001236 -0.30901700258255 0
v 0.17796549987793 1.06075085449219 0.055
vn 0.95105654001236 -0.30901700258255 0
v 0.181 1.07009008789062 0.055
vn 0.95105654001236 -0.30901700258255 0
v 0.181 1.07009008789062 0.056
vn 0.95105654001236 -0.30901700258255 0
v 0.251036666870117 0.526480773925781 0.045
vn 0.80901700258255 0.587785243988037 0
v 0.235 0.548553344726562 0.045
vn 0.80901700258255 0.587785243988037 0
v 0.235 0.548553344726562 0.055
vn 0.80901700258255 0.587785243988037 0
v 0.230183151245117 0.555183166503906 0.055
vn 0.80901700258255 0.587785243988037 0
v 0.230183151245117 0.555183166503906 0.059
vn 0.80901700258255 0.587785243988037 0
v 0.251036666870117 0.526480773925781 0.059
vn 0.80901700258255 0.587785243988037 0
v 0.172193542480469 1.05280639648438 0.056
vn 0.80901700258255 -0.587785243988037 0
v 0.172193542480469 1.05280639648438 0.055
vn 0.80901700258255 -0.587785243988037 0
v 0.17796549987793 1.06075085449219 0.055
vn 0.80901700258255 -0.587785243988037 0
v 0.17796549987793 1.06075085449219 0.056
vn 0.80901700258255 -0.587785243988037 0
v 0.201480743408203 0.576036682128906 0.059
vn 0.30901700258255 0.95105654001236 0
v 0.201480743408203 0.576036682128906 0.055
vn 0.30901700258255 0.95105654001236 0
v 0.167739059448242 0.587 0.055
vn 0.30901700258255 0.95105654001236 0
v 0.167739059448242 0.587 0.059
vn 0.30901700258255 0.95105654001236 0
v 0.145090087890625 1.044 0.056
vn 0 -1 0
v 0.145090087890625 1.044 0.055
vn 0 -1 0
v 0.154909912109375 1.044 0.055
vn 0 -1 0
v 0.154909912109375 1.044 0.056
vn 0 -1 0
v 0.230183151245117 0.555183166503906 0.059
vn 0.587785243988037 0.80901700258255 0
v 0.230183151245117 0.555183166503906 0.055
vn 0.587785243988037 0.80901700258255 0
v 0.201480743408203 0.576036682128906 0.055
vn 0.587785243988037 0.80901700258255 0
v 0.201480743408203 0.576036682128906 0.059
vn 0.587785243988037 0.80901700258255 0
v 0.128 0.699 0.055
vn 0 -1 0
v 0.128 0.699 0.004
vn 0 -1 0
v 0.134 0.699 0.004
vn 0 -1 0
v 0.134 0.699 0.055
vn 0 -1 0
v 0.135750869750977 1.04703454589844 0.056
vn -0.30901700258255 -0.95105654001236 0
v 0.135750869750977 1.04703454589844 0.055
vn -0.30901700258255 -0.95105654001236 0
v 0.145090087890625 1.044 0.055
vn -0.30901700258255 -0.95105654001236 0
v 0.145090087890625 1.044 0.056
vn -0.30901700258255 -0.95105654001236 0
v 0.154909912109375 1.044 0.056
vn 0.30901700258255 -0.95105654001236 0
v 0.154909912109375 1.044 0.055
vn 0.30901700258255 -0.95105654001236 0
v 0.164249130249023 1.04703454589844 0.055
vn 0.30901700258255 -0.95105654001236 0
v 0.164249130249023 1.04703454589844 0.056
vn 0.30901700258255 -0.95105654001236 0
v 0.164249130249023 1.04703454589844 0.056
vn 0.587785243988037 -0.80901700258255 0
v 0.164249130249023 1.04703454589844 0.055
vn 0.587785243988037 -0.80901700258255 0
v 0.172193542480469 1.05280639648438 0.055
vn 0.587785243988037 -0.80901700258255 0
v 0.172193542480469 1.05280639648438 0.056
vn 0.587785243988037 -0.80901700258255 0
v 0.167739059448242 0.587 0.055
vn 0 1 0
v 0.134 0.587 0.055
vn 0 1 0
v 0.134 0.587 0.059
vn 0 1 0
v 0.167739059448242 0.587 0.059
vn 0 1 0
v 0.134 0.699 0.055
vn -1 -7.7346840048306E-17 0
v 0.134 0.699 0.004
vn -1 -7.7346840048306E-17 0
v 0.134 0.564432861328125 0.004
vn -1 -7.7346840048306E-17 0
v 0.134 0.564432861328125 0.059
vn -1 -7.7346840048306E-17 0
v 0.134 0.587 0.059
vn -1 -7.7346840048306E-17 0
v 0.134 0.587 0.055
vn -1 -7.7346840048306E-17 0
v 0.251036666870117 0.423519256591797 -0.0575
vn 0 0 -1
v 0.230183151245117 0.394816864013672 -0.0575
vn 0 0 -1
v 0.201480743408203 0.373963348388672 -0.0575
vn 0 0 -1
v 0.167739059448242 0.363 -0.0575
vn 0 0 -1
v 0.132260940551758 0.363 -0.0575
vn 0 0 -1
v 0.0985192489624023 0.373963348388672 -0.0575
vn 0 0 -1
v 0.0698168563842773 0.394816864013672 -0.0575
vn 0 0 -1
v 0.0489633407592773 0.423519256591797 -0.0575
vn 0 0 -1
v 0.038 0.457260955810547 -0.0575
vn 0 0 -1
v 0.038 0.492739044189453 -0.0575
vn 0 0 -1
v 0.0489633407592773 0.526480773925781 -0.0575
vn 0 0 -1
v 0.0698168563842773 0.555183166503906 -0.0575
vn 0 0 -1
v 0.0985192489624023 0.576036682128906 -0.0575
vn 0 0 -1
v 0.132260940551758 0.587 -0.0575
vn 0 0 -1
v 0.167739059448242 0.587 -0.0575
vn 0 0 -1
v 0.201480743408203 0.576036682128906 -0.0575
vn 0 0 -1
v 0.230183151245117 0.555183166503906 -0.0575
vn 0 0 -1
v 0.251036666870117 0.526480773925781 -0.0575
vn 0 0 -1
v 0.262 0.492739044189453 -0.0575
vn 0 0 -1
v 0.262 0.457260955810547 -0.0575
vn 0 0 -1
v 0.235 0.475 0.045
vn -1.29698955432999E-16 -1 0
v 0.128 0.475 0.045
vn -1.29698955432999E-16 -1 0
v 0.128 0.475 -0.045
vn -1.29698955432999E-16 -1 0
v 0.235 0.475 -0.045
vn -1.29698955432999E-16 -1 0
v 0.108631538391113 0.556190185546875 0.059
vn -0.30901700258255 0.95105654001236 0
v 0.134 0.564432861328125 0.059
vn -0.30901700258255 0.95105654001236 0
v 0.134 0.564432861328125 0.004
vn -0.30901700258255 0.95105654001236 0
v 0.128 0.562483337402344 0.004
vn -0.30901700258255 0.95105654001236 0
v 0.128 0.562483337402344 0.045
vn -0.30901700258255 0.95105654001236 0
v 0.108631538391113 0.556190185546875 0.045
vn -0.30901700258255 0.95105654001236 0
v 0.128 0.475 0.045
vn 0 0 -1
v 0.235 0.475 0.045
vn 0 0 -1
v 0.235 0.548553344726562 0.045
vn 0 0 -1
v 0.251036666870117 0.526480773925781 0.045
vn 0 0 -1
v 0.262 0.492739044189453 0.045
vn 0 0 -1
v 0.262 0.457260955810547 0.045
vn 0 0 -1
v 0.251036666870117 0.423519256591797 0.045
vn 0 0 -1
v 0.230183151245117 0.394816864013672 0.045
vn 0 0 -1
v 0.216671401977539 0.385 0.045
vn 0 0 -1
v 0.135745407104492 0.385 0.045
vn 0 0 -1
v 0.108631538391113 0.393809814453125 0.045
vn 0 0 -1
v 0.0855671157836914 0.410567108154297 0.045
vn 0 0 -1
v 0.0688098297119141 0.433631530761719 0.045
vn 0 0 -1
v 0.06 0.460745391845703 0.045
vn 0 0 -1
v 0.06 0.489254608154297 0.045
vn 0 0 -1
v 0.0688098297119141 0.516368469238281 0.045
vn 0 0 -1
v 0.0855671157836914 0.539432861328125 0.045
vn 0 0 -1
v 0.108631538391113 0.556190185546875 0.045
vn 0 0 -1
v 0.128 0.562483337402344 0.045
vn 0 0 -1
v 0.128 0.562483337402344 0.004
vn 0 0 1
v 0.134 0.564432861328125 0.004
vn 0 0 1
v 0.134 0.699 0.004
vn 0 0 1
v 0.128 0.699 0.004
vn 0 0 1
v 0.235 0.548553344726562 -0.045
vn 0 0 1
v 0.235 0.475 -0.045
vn 0 0 1
v 0.128 0.475 -0.045
vn 0 0 1
v 0.128 0.585615539550781 -0.045
vn 0 0 1
v 0.0985192489624023 0.576036682128906 -0.045
vn 0 0 1
v 0.0698168563842773 0.555183166503906 -0.045
vn 0 0 1
v 0.0489633407592773 0.526480773925781 -0.045
vn 0 0 1
v 0.038 0.492739044189453 -0.045
vn 0 0 1
v 0.038 0.457260955810547 -0.045
vn 0 0 1
v 0.0489633407592773 0.423519256591797 -0.045
vn 0 0 1
v 0.0698168563842773 0.394816864013672 -0.045
vn 0 0 1
v 0.0985192489624023 0.373963348388672 -0.045
vn 0 0 1
v 0.132260940551758 0.363 -0.045
vn 0 0 1
v 0.167739059448242 0.363 -0.045
vn 0 0 1
v 0.201480743408203 0.373963348388672 -0.045
vn 0 0 1
v 0.230183151245117 0.394816864013672 -0.045
vn 0 0 1
v 0.251036666870117 0.423519256591797 -0.045
vn 0 0 1
v 0.262 0.457260955810547 -0.045
vn 0 0 1
v 0.262 0.492739044189453 -0.045
vn 0 0 1
v 0.251036666870117 0.526480773925781 -0.045
vn 0 0 1
v 0.0698168563842773 0.555183166503906 -0.0575
vn -0.587785243988037 0.80901700258255 0
v 0.0698168563842773 0.555183166503906 -0.045
vn -0.587785243988037 0.80901700258255 0
v 0.0985192489624023 0.576036682128906 -0.045
vn -0.587785243988037 0.80901700258255 0
v 0.0985192489624023 0.576036682128906 -0.0575
vn -0.587785243988037 0.80901700258255 0
v 0.251036666870117 0.526480773925781 -0.0575
vn 0.95105654001236 0.30901700258255 0
v 0.251036666870117 0.526480773925781 -0.045
vn 0.95105654001236 0.30901700258255 0
v 0.262 0.492739044189453 -0.045
vn 0.95105654001236 0.30901700258255 0
v 0.262 0.492739044189453 -0.0575
vn 0.95105654001236 0.30901700258255 0
v 0.134 0.587 0.059
vn 0 0 1
v 0.134 0.564432861328125 0.059
vn 0 0 1
v 0.108631538391113 0.556190185546875 0.059
vn 0 0 1
v 0.0855671157836914 0.539432861328125 0.059
vn 0 0 1
v 0.0688098297119141 0.516368469238281 0.059
vn 0 0 1
v 0.06 0.489254608154297 0.059
vn 0 0 1
v 0.06 0.460745391845703 0.059
vn 0 0 1
v 0.0688098297119141 0.433631530761719 0.059
vn 0 0 1
v 0.0855671157836914 0.410567108154297 0.059
vn 0 0 1
v 0.108631538391113 0.393809814453125 0.059
vn 0 0 1
v 0.135745407104492 0.385 0.059
vn 0 0 1
v 0.216671401977539 0.385 0.059
vn 0 0 1
v 0.230183151245117 0.394816864013672 0.059
vn 0 0 1
v 0.251036666870117 0.423519256591797 0.059
vn 0 0 1
v 0.262 0.457260955810547 0.059
vn 0 0 1
v 0.262 0.492739044189453 0.059
vn 0 0 1
v 0.251036666870117 0.526480773925781 0.059
vn 0 0 1
v 0.230183151245117 0.555183166503906 0.059
vn 0 0 1
v 0.201480743408203 0.576036682128906 0.059
vn 0 0 1
v 0.167739059448242 0.587 0.059
vn 0 0 1
v 0.262 0.492739044189453 0.059
vn 0.95105654001236 0.30901700258255 0
v 0.262 0.492739044189453 0.045
vn 0.95105654001236 0.30901700258255 0
v 0.251036666870117 0.526480773925781 0.045
vn 0.95105654001236 0.30901700258255 0
v 0.251036666870117 0.526480773925781 0.059
vn 0.95105654001236 0.30901700258255 0
v 0.262 0.457260955810547 -0.0575
vn 0.95105654001236 -0.30901700258255 0
v 0.262 0.457260955810547 -0.045
vn 0.95105654001236 -0.30901700258255 0
v 0.251036666870117 0.423519256591797 -0.045
vn 0.95105654001236 -0.30901700258255 0
v 0.251036666870117 0.423519256591797 -0.0575
vn 0.95105654001236 -0.30901700258255 0
v 0.038 0.457260955810547 -0.0575
vn -1 -3.91164738421042E-16 0
v 0.038 0.457260955810547 -0.045
vn -1 -3.91164738421042E-16 0
v 0.038 0.492739044189453 -0.045
vn -1 -3.91164738421042E-16 0
v 0.038 0.492739044189453 -0.0575
vn -1 -3.91164738421042E-16 0
v 0.167739059448242 0.363 -0.0575
vn 0 -1 0
v 0.167739059448242 0.363 -0.045
vn 0 -1 0
v 0.132260940551758 0.363 -0.045
vn 0 -1 0
v 0.132260940551758 0.363 -0.0575
vn 0 -1 0
v 0.230183151245117 0.394816864013672 -0.0575
vn 0.587785243988037 -0.80901700258255 0
v 0.230183151245117 0.394816864013672 -0.045
vn 0.587785243988037 -0.80901700258255 0
v 0.201480743408203 0.373963348388672 -0.045
vn 0.587785243988037 -0.80901700258255 0
v 0.201480743408203 0.373963348388672 -0.0575
vn 0.587785243988037 -0.80901700258255 0
v 0.0489633407592773 0.526480773925781 -0.0575
vn -0.80901700258255 0.587785243988037 0
v 0.0489633407592773 0.526480773925781 -0.045
vn -0.80901700258255 0.587785243988037 0
v 0.0698168563842773 0.555183166503906 -0.045
vn -0.80901700258255 0.587785243988037 0
v 0.0698168563842773 0.555183166503906 -0.0575
vn -0.80901700258255 0.587785243988037 0
v 0.0985192489624023 0.373963348388672 -0.0575
vn -0.587785243988037 -0.80901700258255 0
v 0.0985192489624023 0.373963348388672 -0.045
vn -0.587785243988037 -0.80901700258255 0
v 0.0698168563842773 0.394816864013672 -0.045
vn -0.587785243988037 -0.80901700258255 0
v 0.0698168563842773 0.394816864013672 -0.0575
vn -0.587785243988037 -0.80901700258255 0
v 0.262 0.492739044189453 -0.0575
vn 1 7.82329476842084E-16 0
v 0.262 0.492739044189453 -0.045
vn 1 7.82329476842084E-16 0
v 0.262 0.457260955810547 -0.045
vn 1 7.82329476842084E-16 0
v 0.262 0.457260955810547 -0.0575
vn 1 7.82329476842084E-16 0
v 0.251036666870117 0.423519256591797 -0.0575
vn 0.80901700258255 -0.587785243988037 0
v 0.251036666870117 0.423519256591797 -0.045
vn 0.80901700258255 -0.587785243988037 0
v 0.230183151245117 0.394816864013672 -0.045
vn 0.80901700258255 -0.587785243988037 0
v 0.230183151245117 0.394816864013672 -0.0575
vn 0.80901700258255 -0.587785243988037 0
v 0.038 0.492739044189453 -0.0575
vn -0.95105654001236 0.30901700258255 0
v 0.038 0.492739044189453 -0.045
vn -0.95105654001236 0.30901700258255 0
v 0.0489633407592773 0.526480773925781 -0.045
vn -0.95105654001236 0.30901700258255 0
v 0.0489633407592773 0.526480773925781 -0.0575
vn -0.95105654001236 0.30901700258255 0
v 0.0489633407592773 0.423519256591797 -0.0575
vn -0.95105654001236 -0.30901700258255 0
v 0.0489633407592773 0.423519256591797 -0.045
vn -0.95105654001236 -0.30901700258255 0
v 0.038 0.457260955810547 -0.045
vn -0.95105654001236 -0.30901700258255 0
v 0.038 0.457260955810547 -0.0575
vn -0.95105654001236 -0.30901700258255 0
v 0.132260940551758 0.363 -0.0575
vn -0.30901700258255 -0.95105654001236 0
v 0.132260940551758 0.363 -0.045
vn -0.30901700258255 -0.95105654001236 0
v 0.0985192489624023 0.373963348388672 -0.045
vn -0.30901700258255 -0.95105654001236 0
v 0.0985192489624023 0.373963348388672 -0.0575
vn -0.30901700258255 -0.95105654001236 0
v 0.201480743408203 0.373963348388672 -0.0575
vn 0.30901700258255 -0.95105654001236 0
v 0.201480743408203 0.373963348388672 -0.045
vn 0.30901700258255 -0.95105654001236 0
v 0.167739059448242 0.363 -0.045
vn 0.30901700258255 -0.95105654001236 0
v 0.167739059448242 0.363 -0.0575
vn 0.30901700258255 -0.95105654001236 0
v 0.0698168563842773 0.394816864013672 -0.0575
vn -0.80901700258255 -0.587785243988037 0
v 0.0698168563842773 0.394816864013672 -0.045
vn -0.80901700258255 -0.587785243988037 0
v 0.0489633407592773 0.423519256591797 -0.045
vn -0.80901700258255 -0.587785243988037 0
v 0.0489633407592773 0.423519256591797 -0.0575
vn -0.80901700258255 -0.587785243988037 0
v 0.108631538391113 0.556190185546875 0.059
vn -0.587785243988037 0.80901700258255 0
v 0.108631538391113 0.556190185546875 0.045
vn -0.587785243988037 0.80901700258255 0
v 0.0855671157836914 0.539432861328125 0.045
vn -0.587785243988037 0.80901700258255 0
v 0.0855671157836914 0.539432861328125 0.059
vn -0.587785243988037 0.80901700258255 0
v 0.251036666870117 0.423519256591797 0.059
vn 0.95105654001236 -0.30901700258255 0
v 0.251036666870117 0.423519256591797 0.045
vn 0.95105654001236 -0.30901700258255 0
v 0.262 0.457260955810547 0.045
vn 0.95105654001236 -0.30901700258255 0
v 0.262 0.457260955810547 0.059
vn 0.95105654001236 -0.30901700258255 0
v 0.230183151245117 0.394816864013672 0.059
vn 0.80901700258255 -0.587785243988037 0
v 0.230183151245117 0.394816864013672 0.045
vn 0.80901700258255 -0.587785243988037 0
v 0.251036666870117 0.423519256591797 0.045
vn 0.80901700258255 -0.587785243988037 0
v 0.251036666870117 0.423519256591797 0.059
vn 0.80901700258255 -0.587785243988037 0
v 0.0688098297119141 0.516368469238281 0.059
vn -0.95105654001236 0.30901700258255 0
v 0.0688098297119141 0.516368469238281 0.045
vn -0.95105654001236 0.30901700258255 0
v 0.06 0.489254608154297 0.045
vn -0.95105654001236 0.30901700258255 0
v 0.06 0.489254608154297 0.059
vn -0.95105654001236 0.30901700258255 0
v 0.06 0.460745391845703 0.059
vn -0.95105654001236 -0.30901700258255 0
v 0.06 0.460745391845703 0.045
vn -0.95105654001236 -0.30901700258255 0
v 0.0688098297119141 0.433631530761719 0.045
vn -0.95105654001236 -0.30901700258255 0
v 0.0688098297119141 0.433631530761719 0.059
vn -0.95105654001236 -0.30901700258255 0
v 0.108631538391113 0.393809814453125 0.059
vn -0.30901700258255 -0.95105654001236 0
v 0.108631538391113 0.393809814453125 0.045
vn -0.30901700258255 -0.95105654001236 0
v 0.135745407104492 0.385 0.045
vn -0.30901700258255 -0.95105654001236 0
v 0.135745407104492 0.385 0.059
vn -0.30901700258255 -0.95105654001236 0
v 0.216671401977539 0.385 0.059
vn 0.587785243988037 -0.80901700258255 0
v 0.216671401977539 0.385 0.045
vn 0.587785243988037 -0.80901700258255 0
v 0.230183151245117 0.394816864013672 0.045
vn 0.587785243988037 -0.80901700258255 0
v 0.230183151245117 0.394816864013672 0.059
vn 0.587785243988037 -0.80901700258255 0
v 0.0855671157836914 0.410567108154297 0.059
vn -0.587785243988037 -0.80901700258255 0
v 0.0855671157836914 0.410567108154297 0.045
vn -0.587785243988037 -0.80901700258255 0
v 0.108631538391113 0.393809814453125 0.045
vn -0.587785243988037 -0.80901700258255 0
v 0.108631538391113 0.393809814453125 0.059
vn -0.587785243988037 -0.80901700258255 0
v 0.0855671157836914 0.539432861328125 0.059
vn -0.80901700258255 0.587785243988037 0
v 0.0855671157836914 0.539432861328125 0.045
vn -0.80901700258255 0.587785243988037 0
v 0.0688098297119141 0.516368469238281 0.045
vn -0.80901700258255 0.587785243988037 0
v 0.0688098297119141 0.516368469238281 0.059
vn -0.80901700258255 0.587785243988037 0
v 0.06 0.489254608154297 0.059
vn -1 -2.92069686883315E-15 0
v 0.06 0.489254608154297 0.045
vn -1 -2.92069686883315E-15 0
v 0.06 0.460745391845703 0.045
vn -1 -2.92069686883315E-15 0
v 0.06 0.460745391845703 0.059
vn -1 -2.92069686883315E-15 0
v 0.135745407104492 0.385 0.059
vn 0 -1 0
v 0.135745407104492 0.385 0.045
vn 0 -1 0
v 0.216671401977539 0.385 0.045
vn 0 -1 0
v 0.216671401977539 0.385 0.059
vn 0 -1 0
v 0.0688098297119141 0.433631530761719 0.059
vn -0.80901700258255 -0.587785243988037 0
v 0.0688098297119141 0.433631530761719 0.045
vn -0.80901700258255 -0.587785243988037 0
v 0.0855671157836914 0.410567108154297 0.045
vn -0.80901700258255 -0.587785243988037 0
v 0.0855671157836914 0.410567108154297 0.059
vn -0.80901700258255 -0.587785243988037 0
v 0.262 0.457260955810547 0.059
vn 1 7.82329476842084E-16 0
v 0.262 0.457260955810547 0.045
vn 1 7.82329476842084E-16 0
v 0.262 0.492739044189453 0.045
vn 1 7.82329476842084E-16 0
v 0.262 0.492739044189453 0.059
vn 1 7.82329476842084E-16 0
usemtl Mat0
f 2//2 3//3 1//1
f 1//1 3//3 8//8
f 8//8 3//3 4//4
f 7//7 4//4 6//6
f 7//7 8//8 4//4
f 4//4 5//5 6//6
f 9//9 10//10 12//12
f 12//12 10//10 11//11
f 20//20 21//21 19//19
f 19//19 21//21 22//22
f 18//18 22//22 23//23
f 17//17 23//23 24//24
f 16//16 24//24 25//25
f 15//15 25//25 26//26
f 14//14 26//26 27//27
f 13//13 27//27 28//28
f 32//32 28//28 29//29
f 31//31 29//29 30//30
f 31//31 32//32 29//29
f 14//14 15//15 26//26
f 15//15 16//16 25//25
f 16//16 17//17 24//24
f 17//17 18//18 23//23
f 18//18 19//19 22//22
f 32//32 13//13 28//28
f 14//14 27//27 13//13
f 50//50 33//33 36//36
f 49//49 36//36 48//48
f 49//49 50//50 36//36
f 35//35 36//36 34//34
f 34//34 36//36 33//33
f 36//36 37//37 48//48
f 48//48 37//37 47//47
f 47//47 37//37 46//46
f 46//46 37//37 45//45
f 45//45 37//37 43//43
f 44//44 45//45 43//43
f 38//38 39//39 37//37
f 37//37 39//39 40//40
f 41//41 37//37 40//40
f 41//41 42//42 37//37
f 37//37 42//42 43//43
f 52//52 53//53 51//51
f 51//51 53//53 54//54
f 56//56 57//57 55//55
f 55//55 57//57 58//58
f 60//60 61//61 59//59
f 59//59 61//61 62//62
f 67//67 68//68 64//64
f 66//66 64//64 65//65
f 66//66 67//67 64//64
f 69//69 70//70 68//68
f 68//68 70//70 64//64
f 64//64 70//70 63//63
f 63//63 70//70 80//80
f 81//81 63//63 80//80
f 75//75 76//76 71//71
f 74//74 71//71 73//73
f 74//74 75//75 71//71
f 71//71 72//72 73//73
f 76//76 77//77 71//71
f 71//71 77//77 70//70
f 70//70 77//77 78//78
f 79//79 70//70 78//78
f 79//79 80//80 70//70
f 85//85 86//86 84//84
f 84//84 86//86 87//87
f 83//83 87//87 88//88
f 82//82 88//88 89//89
f 101//101 89//89 90//90
f 100//100 90//90 91//91
f 99//99 91//91 92//92
f 98//98 92//92 93//93
f 97//97 93//93 94//94
f 96//96 94//94 95//95
f 96//96 97//97 94//94
f 83//83 84//84 87//87
f 97//97 98//98 93//93
f 98//98 99//99 92//92
f 99//99 100//100 91//91
f 100//100 101//101 90//90
f 101//101 82//82 89//89
f 88//88 82//82 83//83
f 102//102 103//103 105//105
f 105//105 103//103 104//104
f 107//107 108//108 106//106
f 106//106 108//108 109//109
f 111//111 112//112 110//110
f 110//110 112//112 113//113
f 115//115 116//116 114//114
f 114//114 116//116 117//117
f 119//119 120//120 118//118
f 118//118 120//120 121//121
f 123//123 124//124 122//122
f 122//122 124//124 125//125
f 126//126 127//127 129//129
f 129//129 127//127 128//128
f 130//130 131//131 133//133
f 133//133 131//131 132//132
f 134//134 135//135 137//137
f 137//137 135//135 136//136
f 139//139 140//140 138//138
f 138//138 140//140 141//141
f 142//142 143//143 145//145
f 145//145 143//143 144//144
f 147//147 148//148 146//146
f 146//146 148//148 149//149
f 150//150 151//151 153//153
f 153//153 151//151 152//152
f 155//155 156//156 154//154
f 154//154 156//156 157//157
f 159//159 160//160 158//158
f 158//158 160//160 161//161
f 163//163 164//164 162//162
f 162//162 164//164 165//165
f 168//168 169//169 167//167
f 167//167 169//169 170//170
f 166//166 170//170 171//171
f 172//172 166//166 171//171
f 172//172 173//173 166//166
f 167//167 170//170 166//166
f 175//175 176//176 174//174
f 174//174 176//176 177//177
f 179//179 180//180 178//178
f 178//178 180//180 181//181
f 183//183 184//184 182//182
f 182//182 184//184 191//191
f 191//191 184//184 190//190
f 190//190 184//184 185//185
f 189//189 185//185 188//188
f 189//189 190//190 185//185
f 186//186 187//187 185//185
f 185//185 187//187 188//188
f 193//193 194//194 192//192
f 192//192 194//194 195//195
f 196//196 197//197 201//201
f 201//201 197//197 200//200
f 200//200 197//197 199//199
f 199//199 197//197 198//198
f 203//203 204//204 202//202
f 202//202 204//204 205//205
f 206//206 202//202 205//205
f 206//206 207//207 202//202
f 208//208 209//209 211//211
f 211//211 209//209 210//210
f 212//212 213//213 219//219
f 219//219 213//213 216//216
f 218//218 216//216 217//217
f 218//218 219//219 216//216
f 213//213 214//214 216//216
f 216//216 214//214 215//215
f 221//221 222//222 220//220
f 220//220 222//222 223//223
f 225//225 226//226 224//224
f 224//224 226//226 229//229
f 229//229 226//226 228//228
f 228//228 226//226 227//227
f 231//231 232//232 230//230
f 230//230 232//232 233//233
f 235//235 236//236 234//234
f 234//234 236//236 237//237
f 239//239 240//240 238//238
f 238//238 240//240 241//241
f 243//243 244//244 242//242
f 242//242 244//244 245//245
f 247//247 248//248 246//246
f 246//246 248//248 249//249
f 251//251 252//252 250//250
f 250//250 252//252 253//253
f 255//255 256//256 254//254
f 254//254 256//256 257//257
f 259//259 260//260 258//258
f 258//258 260//260 261//261
f 262//262 263//263 265//265
f 265//265 263//263 264//264
f 266//266 267//267 271//271
f 271//271 267//267 268//268
f 269//269 271//271 268//268
f 269//269 270//270 271//271
f 280//280 281//281 279//279
f 279//279 281//281 282//282
f 278//278 282//282 283//283
f 277//277 283//283 284//284
f 276//276 284//284 285//285
f 275//275 285//285 286//286
f 274//274 286//286 287//287
f 273//273 287//287 288//288
f 272//272 288//288 289//289
f 291//291 289//289 290//290
f 291//291 272//272 289//289
f 273//273 274//274 287//287
f 274//274 275//275 286//286
f 275//275 276//276 285//285
f 276//276 277//277 284//284
f 277//277 278//278 283//283
f 278//278 279//279 282//282
f 273//273 288//288 272//272
f 292//292 293//293 295//295
f 295//295 293//293 294//294
f 301//301 296//296 300//300
f 300//300 296//296 297//297
f 298//298 300//300 297//297
f 298//298 299//299 300//300
f 308//308 309//309 303//303
f 307//307 303//303 306//306
f 307//307 308//308 303//303
f 304//304 305//305 303//303
f 303//303 305//305 306//306
f 309//309 310//310 303//303
f 303//303 310//310 302//302
f 302//302 310//310 311//311
f 312//312 302//302 311//311
f 312//312 313//313 302//302
f 302//302 313//313 314//314
f 315//315 302//302 314//314
f 315//315 316//316 302//302
f 302//302 316//316 317//317
f 318//318 302//302 317//317
f 318//318 319//319 302//302
f 302//302 319//319 320//320
f 321//321 322//322 324//324
f 324//324 322//322 323//323
f 325//325 326//326 344//344
f 344//344 326//326 343//343
f 343//343 326//326 342//342
f 342//342 326//326 341//341
f 341//341 326//326 340//340
f 340//340 326//326 327//327
f 339//339 327//327 338//338
f 339//339 340//340 327//327
f 328//328 329//329 327//327
f 327//327 329//329 330//330
f 331//331 327//327 330//330
f 331//331 332//332 327//327
f 327//327 332//332 333//333
f 334//334 327//327 333//333
f 334//334 335//335 327//327
f 327//327 335//335 336//336
f 337//337 327//327 336//336
f 337//337 338//338 327//327
f 346//346 347//347 345//345
f 345//345 347//347 348//348
f 350//350 351//351 349//349
f 349//349 351//351 352//352
f 353//353 354//354 372//372
f 372//372 354//354 371//371
f 371//371 354//354 370//370
f 370//370 354//354 369//369
f 369//369 354//354 368//368
f 368//368 354//354 363//363
f 367//367 363//363 366//366
f 367//367 368//368 363//363
f 355//355 356//356 354//354
f 354//354 356//356 357//357
f 358//358 354//354 357//357
f 358//358 359//359 354//354
f 354//354 359//359 360//360
f 361//361 354//354 360//360
f 361//361 362//362 354//354
f 354//354 362//362 363//363
f 364//364 365//365 363//363
f 363//363 365//365 366//366
f 374//374 375//375 373//373
f 373//373 375//375 376//376
f 378//378 379//379 377//377
f 377//377 379//379 380//380
f 382//382 383//383 381//381
f 381//381 383//383 384//384
f 386//386 387//387 385//385
f 385//385 387//387 388//388
f 390//390 391//391 389//389
f 389//389 391//391 392//392
f 394//394 395//395 393//393
f 393//393 395//395 396//396
f 398//398 399//399 397//397
f 397//397 399//399 400//400
f 402//402 403//403 401//401
f 401//401 403//403 404//404
f 406//406 407//407 405//405
f 405//405 407//407 408//408
f 410//410 411//411 409//409
f 409//409 411//411 412//412
f 414//414 415//415 413//413
f 413//413 415//415 416//416
f 418//418 419//419 417//417
f 417//417 419//419 420//420
f 422//422 423//423 421//421
f 421//421 423//423 424//424
f 426//426 427//427 425//425
f 425//425 427//427 428//428
f 430//430 431//431 429//429
f 429//429 431//431 432//432
f 434//434 435//435 433//433
f 433//433 435//435 436//436
f 438//438 439//439 437//437
f 437//437 439//439 440//440
f 442//442 443//443 441//441
f 441//441 443//443 444//444
f 446//446 447//447 445//445
f 445//445 447//447 448//448
f 450//450 451//451 449//449
f 449//449 451//451 452//452
f 454//454 455//455 453//453
f 453//453 455//455 456//456
f 458//458 459//459 457//457
f 457//457 459//459 460//460
f 462//462 463//463 461//461
f 461//461 463//463 464//464
f 466//466 467//467 465//465
f 465//465 467//467 468//468
f 470//470 471//471 469//469
f 469//469 471//471 472//472
f 474//474 475//475 473//473
f 473//473 475//475 476//476
f 478//478 479//479 477//477
f 477//477 479//479 480//480
