mtllib Base.mtl
v 0.25425 0 -1.1327608772857E-18
vn 0 -1 0
v 0.2530107421875 0 -0.004625
vn 0 -1 0
v 0.249625 0 -0.00801073455810547
vn 0 -1 0
v 0.245 0 -0.00925
vn 0 -1 0
v 0.240375 0 -0.00801073455810547
vn 0 -1 0
v 0.2369892578125 0 -0.004625
vn 0 -1 0
v 0.23575 0 0
vn 0 -1 0
v 0.2369892578125 0 0.004625
vn 0 -1 0
v 0.240375 0 0.00801073455810547
vn 0 -1 0
v 0.245 0 0.00925
vn 0 -1 0
v 0.249625 0 0.00801073455810547
vn 0 -1 0
v 0.2530107421875 0 0.004625
vn 0 -1 0
v 0.215628890991211 0 0.0439440460205078
vn 0 -1 0
v 0.215628890991211 0 -0.0439440460205078
vn 0 -1 0
v 0.262108825683594 0 -0.0171088371276855
vn 0 -1 0
v 0.26837109375 0 -0.00626226902008057
vn 0 -1 0
v 0.26837109375 0 0.00626226902008057
vn 0 -1 0
v 0.262108825683594 0 0.0171088371276855
vn 0 -1 0
v 0.269 0.012 0.0064307804107666
vn 0.864838540554047 -0.0523359552025795 0.49931475520134
v 0.262569213867188 0.012 0.0175692195892334
vn 0.864838540554047 -0.0523359552025795 0.49931475520134
v 0.262108825683594 0 0.0171088371276855
vn 0.864838540554047 -0.0523359552025795 0.49931475520134
v 0.26837109375 0 0.00626226902008057
vn 0.864838540554047 -0.0523359552025795 0.49931475520134
v 0.262569213867188 0.012 -0.0175692195892334
vn 0.864838540554047 -0.0523359552025795 -0.49931475520134
v 0.269 0.012 -0.0064307804107666
vn 0.864838540554047 -0.0523359552025795 -0.49931475520134
v 0.26837109375 0 -0.00626226902008057
vn 0.864838540554047 -0.0523359552025795 -0.49931475520134
v 0.262108825683594 0 -0.0171088371276855
vn 0.864838540554047 -0.0523359552025795 -0.49931475520134
v 0.215 0.012 -0.0450333213806152
vn 0.49931475520134 -0.0523359552025795 -0.864838540554047
v 0.223550872802734 0.012 -0.0400964775085449
vn 0.49931475520134 -0.0523359552025795 -0.864838540554047
v 0.262569213867188 0.012 -0.0175692195892334
vn 0.49931475520134 -0.0523359552025795 -0.864838540554047
v 0.262108825683594 0 -0.0171088371276855
vn 0.49931475520134 -0.0523359552025795 -0.864838540554047
v 0.215628890991211 0 -0.0439440460205078
vn 0.49931475520134 -0.0523359552025795 -0.864838540554047
v 0.262569213867188 0.012 0.0175692195892334
vn 0.49931475520134 -0.0523359552025795 0.864838540554047
v 0.223550872802734 0.012 0.0400964775085449
vn 0.49931475520134 -0.0523359552025795 0.864838540554047
v 0.215 0.012 0.0450333213806152
vn 0.49931475520134 -0.0523359552025795 0.864838540554047
v 0.215628890991211 0 0.0439440460205078
vn 0.49931475520134 -0.0523359552025795 0.864838540554047
v 0.262108825683594 0 0.0171088371276855
vn 0.49931475520134 -0.0523359552025795 0.864838540554047
v 0.25425 0 -1.1327608772857E-18
vn -1 0 1.22460635382238E-16
v 0.25425 0.038 -1.1327608772857E-18
vn -1 0 1.22460635382238E-16
v 0.2530107421875 0.038 -0.004625
vn -0.866025388240814 0 0.5
v 0.249625 0.038 -0.00801073455810547
vn -0.5 0 0.866025388240814
v 0.245 0.038 -0.00925
vn 0 0 1
v 0.240375 0.038 -0.00801073455810547
vn 0.5 0 0.866025388240814
v 0.2369892578125 0.038 -0.004625
vn 0.866025388240814 0 0.5
v 0.23575 0.038 0
vn 1 0 0
v 0.23575 0 0
vn 1 0 0
v 0.2369892578125 0 -0.004625
vn 0.866025388240814 0 0.5
v 0.240375 0 -0.00801073455810547
vn 0.5 0 0.866025388240814
v 0.245 0 -0.00925
vn 0 0 1
v 0.249625 0 -0.00801073455810547
vn -0.5 0 0.866025388240814
v 0.2530107421875 0 -0.004625
vn -0.866025388240814 0 0.5
v 0.269 0.012 -0.0064307804107666
vn 0.998629510402679 -0.0523359552025795 0
v 0.269 0.012 0.0064307804107666
vn 0.998629510402679 -0.0523359552025795 0
v 0.26837109375 0 0.00626226902008057
vn 0.998629510402679 -0.0523359552025795 0
v 0.26837109375 0 -0.00626226902008057
vn 0.998629510402679 -0.0523359552025795 0
v 0.215 0.012 0.0450333213806152
vn -0.998629510402679 -0.0523359552025795 0
v 0.215 0.012 -0.0450333213806152
vn -0.998629510402679 -0.0523359552025795 0
v 0.215628890991211 0 -0.0439440460205078
vn -0.998629510402679 -0.0523359552025795 0
v 0.215628890991211 0 0.0439440460205078
vn -0.998629510402679 -0.0523359552025795 0
v 0.23575 0.038 0
vn 1 0 0
v 0.2369892578125 0.038 0.004625
vn 0.866025388240814 0 -0.5
v 0.240375 0.038 0.00801073455810547
vn 0.5 0 -0.866025388240814
v 0.245 0.038 0.00925
vn 0 0 -1
v 0.249625 0.038 0.00801073455810547
vn -0.5 0 -0.866025388240814
v 0.2530107421875 0.038 0.004625
vn -0.866025388240814 0 -0.5
v 0.25425 0.038 -1.1327608772857E-18
vn -1 0 1.22460635382238E-16
v 0.25425 0 -1.1327608772857E-18
vn -1 0 1.22460635382238E-16
v 0.2530107421875 0 0.004625
vn -0.866025388240814 0 -0.5
v 0.249625 0 0.00801073455810547
vn -0.5 0 -0.866025388240814
v 0.245 0 0.00925
vn 0 0 -1
v 0.240375 0 0.00801073455810547
vn 0.5 0 -0.866025388240814
v 0.2369892578125 0 0.004625
vn 0.866025388240814 0 -0.5
v 0.23575 0 0
vn 1 0 0
v 0.262569213867188 0.012 0.0175692195892334
vn 0.864838540554047 0.0523359552025795 0.49931475520134
v 0.269 0.012 0.0064307804107666
vn 0.864838540554047 0.0523359552025795 0.49931475520134
v 0.267637390136719 0.038 0.00606567239761353
vn 0.864838540554047 0.0523359552025795 0.49931475520134
v 0.261571716308594 0.038 0.0165717258453369
vn 0.864838540554047 0.0523359552025795 0.49931475520134
v 0.269 0.012 -0.0064307804107666
vn 0.864838540554047 0.0523359552025795 -0.49931475520134
v 0.262569213867188 0.012 -0.0175692195892334
vn 0.864838540554047 0.0523359552025795 -0.49931475520134
v 0.261571716308594 0.038 -0.0165717258453369
vn 0.864838540554047 0.0523359552025795 -0.49931475520134
v 0.267637390136719 0.038 -0.00606567239761353
vn 0.864838540554047 0.0523359552025795 -0.49931475520134
v 0.215 0.012 -0.0450333213806152
vn 0 -1 0
v 0.215 0.012 0.0450333213806152
vn 0 -1 0
v 0.223550872802734 0.012 0.0400964775085449
vn 0 -1 0
v 0.202975433349609 0.012 0.10342115020752
vn 0 -1 0
v 0.161082214355469 0.012 0.161082214355469
vn 0 -1 0
v 0.10342115020752 0.012 0.202975433349609
vn 0 -1 0
v 0.0356364974975586 0.012 0.225
vn 0 -1 0
v -0.175 0.012 0.225
vn 0 -1 0
v -0.175 0.012 0.185562469482422
vn 0 -1 0
v -0.205 0.012 0.178
vn 0 -1 0
v -0.235 0.012 0.178
vn 0 -1 0
v -0.235 0.012 0.225
vn 0 -1 0
v -0.239393402099609 0.012 0.225
vn 0 -1 0
v -0.25 0.012 0.214393402099609
vn 0 -1 0
v -0.25 0.012 0.182
vn 0 -1 0
v -0.398 0.012 0.182
vn 0 -1 0
v -0.398 0.012 -0.182
vn 0 -1 0
v -0.25 0.012 -0.182
vn 0 -1 0
v -0.25 0.012 -0.214393402099609
vn 0 -1 0
v -0.239393402099609 0.012 -0.225
vn 0 -1 0
v -0.235 0.012 -0.225
vn 0 -1 0
v -0.235 0.012 -0.178
vn 0 -1 0
v -0.205 0.012 -0.178
vn 0 -1 0
v -0.175 0.012 -0.185562469482422
vn 0 -1 0
v -0.175 0.012 -0.225
vn 0 -1 0
v 0.0356364974975586 0.012 -0.225
vn 0 -1 0
v 0.10342115020752 0.012 -0.202975433349609
vn 0 -1 0
v 0.161082214355469 0.012 -0.161082214355469
vn 0 -1 0
v 0.202975433349609 0.012 -0.10342115020752
vn 0 -1 0
v 0.223550872802734 0.012 -0.0400964775085449
vn 0 -1 0
v 0.223550872802734 0.012 -0.0400964775085449
vn 0.49931475520134 0.0523359552025795 -0.864838540554047
v 0.222416580200195 0.038 -0.0391779556274414
vn 0.49931475520134 0.0523359552025795 -0.864838540554047
v 0.261571716308594 0.038 -0.0165717258453369
vn 0.49931475520134 0.0523359552025795 -0.864838540554047
v 0.262569213867188 0.012 -0.0175692195892334
vn 0.49931475520134 0.0523359552025795 -0.864838540554047
v 0.222416580200195 0.038 0.0391779556274414
vn 0.49931475520134 0.0523359552025795 0.864838540554047
v 0.223550872802734 0.012 0.0400964775085449
vn 0.49931475520134 0.0523359552025795 0.864838540554047
v 0.262569213867188 0.012 0.0175692195892334
vn 0.49931475520134 0.0523359552025795 0.864838540554047
v 0.261571716308594 0.038 0.0165717258453369
vn 0.49931475520134 0.0523359552025795 0.864838540554047
v 0.25425 0.038 -1.1327608772857E-18
vn 0 1 0
v 0.2530107421875 0.038 0.004625
vn 0 1 0
v 0.249625 0.038 0.00801073455810547
vn 0 1 0
v 0.245 0.038 0.00925
vn 0 1 0
v 0.240375 0.038 0.00801073455810547
vn 0 1 0
v 0.2369892578125 0.038 0.004625
vn 0 1 0
v 0.23575 0.038 0
vn 0 1 0
v 0.2369892578125 0.038 -0.004625
vn 0 1 0
v 0.240375 0.038 -0.00801073455810547
vn 0 1 0
v 0.245 0.038 -0.00925
vn 0 1 0
v 0.249625 0.038 -0.00801073455810547
vn 0 1 0
v 0.2530107421875 0.038 -0.004625
vn 0 1 0
v 0.223637390136719 0.038 0.0354206848144531
vn 0 1 0
v 0.222416580200195 0.038 0.0391779556274414
vn 0 1 0
v 0.261571716308594 0.038 0.0165717258453369
vn 0 1 0
v 0.267637390136719 0.038 0.00606567239761353
vn 0 1 0
v 0.267637390136719 0.038 -0.00606567239761353
vn 0 1 0
v 0.261571716308594 0.038 -0.0165717258453369
vn 0 1 0
v 0.222416580200195 0.038 -0.0391779556274414
vn 0 1 0
v 0.223637390136719 0.038 -0.0354206848144531
vn 0 1 0
v 0.269 0.012 0.0064307804107666
vn 0.998629510402679 0.0523359552025795 0
v 0.269 0.012 -0.0064307804107666
vn 0.998629510402679 0.0523359552025795 0
v 0.267637390136719 0.038 -0.00606567239761353
vn 0.998629510402679 0.0523359552025795 0
v 0.267637390136719 0.038 0.00606567239761353
vn 0.998629510402679 0.0523359552025795 0
v -0.239393402099609 0.012 0.225
vn 1.9444628097606E-15 0.0523359552025795 0.998629510402679
v -0.235 0.012 0.225
vn 1.9444628097606E-15 0.0523359552025795 0.998629510402679
v -0.175 0.012 0.225
vn 1.9444628097606E-15 0.0523359552025795 0.998629510402679
v 0.0356364974975586 0.012 0.225
vn 1.9444628097606E-15 0.0523359552025795 0.998629510402679
v 0.0349475517272949 0.095 0.220650161743164
vn 1.9444628097606E-15 0.0523359552025795 0.998629510402679
v -0.0350499687194824 0.095 0.220650161743164
vn 1.9444628097606E-15 0.0523359552025795 0.998629510402679
v -0.0354206848144531 0.038 0.223637390136719
vn 1.9444628097606E-15 0.0523359552025795 0.998629510402679
v -0.238828994750977 0.038 0.223637390136719
vn 1.9444628097606E-15 0.0523359552025795 0.998629510402679
v 0.202975433349609 0.012 -0.10342115020752
vn 0.807908236980438 0.0523359552025795 -0.586979687213898
v 0.161082214355469 0.012 -0.161082214355469
vn 0.807908236980438 0.0523359552025795 -0.586979687213898
v 0.157968063354492 0.095 -0.157968063354492
vn 0.807908236980438 0.0523359552025795 -0.586979687213898
v 0.199051376342773 0.095 -0.101421745300293
vn 0.807908236980438 0.0523359552025795 -0.586979687213898
v -0.25 0.012 -0.214393402099609
vn -0.998629510402679 0.0523359552025795 0
v -0.25 0.012 -0.182
vn -0.998629510402679 0.0523359552025795 0
v -0.248637390136719 0.038 -0.180637390136719
vn -0.998629510402679 0.0523359552025795 0
v -0.248637390136719 0.038 -0.213828994750977
vn -0.998629510402679 0.0523359552025795 0
v -0.398 0.012 0.182
vn -0.998629510402679 0.0523359552025795 0
v -0.395274780273437 0.064 0.179274795532227
vn -0.998629510402679 0.0523359552025795 0
v -0.395274780273437 0.064 -0.179274795532227
vn -0.998629510402679 0.0523359552025795 0
v -0.398 0.012 -0.182
vn -0.998629510402679 0.0523359552025795 0
v 0.0356364974975586 0.012 0.225
vn 0.308593511581421 0.0523359552025795 0.949753105640411
v 0.10342115020752 0.012 0.202975433349609
vn 0.308593511581421 0.0523359552025795 0.949753105640411
v 0.101421745300293 0.095 0.199051376342773
vn 0.308593511581421 0.0523359552025795 0.949753105640411
v 0.0349475517272949 0.095 0.220650161743164
vn 0.308593511581421 0.0523359552025795 0.949753105640411
v 0.223637390136719 0.038 -0.0354206848144531
vn 0.949753105640411 0.0523359552025795 -0.308593511581421
v 0.222416580200195 0.038 -0.0391779556274414
vn 0.949753105640411 0.0523359552025795 -0.308593511581421
v 0.223550872802734 0.012 -0.0400964775085449
vn 0.949753105640411 0.0523359552025795 -0.308593511581421
v 0.202975433349609 0.012 -0.10342115020752
vn 0.949753105640411 0.0523359552025795 -0.308593511581421
v 0.199051376342773 0.095 -0.101421745300293
vn 0.949753105640411 0.0523359552025795 -0.308593511581421
v 0.220650161743164 0.095 -0.0349475517272949
vn 0.949753105640411 0.0523359552025795 -0.308593511581421
v -0.235 0.012 -0.178
vn -0.998629510402679 -0.0523359552025795 -5.89734831064545E-16
v -0.235 0.012 -0.225
vn -0.998629510402679 -0.0523359552025795 -5.89734831064545E-16
v -0.234371109008789 0 -0.224371109008789
vn -0.998629510402679 -0.0523359552025795 -5.89734831064545E-16
v -0.234371109008789 0 -0.178628890991211
vn -0.998629510402679 -0.0523359552025795 -5.89734831064545E-16
v -0.25 0.012 0.182
vn -0.998629510402679 0.0523359552025795 0
v -0.25 0.012 0.214393402099609
vn -0.998629510402679 0.0523359552025795 0
v -0.248637390136719 0.038 0.213828994750977
vn -0.998629510402679 0.0523359552025795 0
v -0.248637390136719 0.038 0.180637390136719
vn -0.998629510402679 0.0523359552025795 0
v 0.202975433349609 0.012 0.10342115020752
vn 0.949753105640411 0.0523359552025795 0.308593511581421
v 0.223550872802734 0.012 0.0400964775085449
vn 0.949753105640411 0.0523359552025795 0.308593511581421
v 0.222416580200195 0.038 0.0391779556274414
vn 0.949753105640411 0.0523359552025795 0.308593511581421
v 0.223637390136719 0.038 0.0354206848144531
vn 0.949753105640411 0.0523359552025795 0.308593511581421
v 0.220650161743164 0.095 0.0349475517272949
vn 0.949753105640411 0.0523359552025795 0.308593511581421
v 0.199051376342773 0.095 0.101421745300293
vn 0.949753105640411 0.0523359552025795 0.308593511581421
v -0.205 0.012 -0.178
vn 0 -0.0523359552025795 0.998629510402679
v -0.235 0.012 -0.178
vn 0 -0.0523359552025795 0.998629510402679
v -0.234371109008789 0 -0.178628890991211
vn 0 -0.0523359552025795 0.998629510402679
v -0.205078048706055 0 -0.178628890991211
vn 0 -0.0523359552025795 0.998629510402679
v 0.161082214355469 0.012 -0.161082214355469
vn 0.586979687213898 0.0523359552025795 -0.807908236980438
v 0.10342115020752 0.012 -0.202975433349609
vn 0.586979687213898 0.0523359552025795 -0.807908236980438
v 0.101421745300293 0.095 -0.199051376342773
vn 0.586979687213898 0.0523359552025795 -0.807908236980438
v 0.157968063354492 0.095 -0.157968063354492
vn 0.586979687213898 0.0523359552025795 -0.807908236980438
v 0.10342115020752 0.012 -0.202975433349609
vn 0.308593511581421 0.0523359552025795 -0.949753105640411
v 0.0356364974975586 0.012 -0.225
vn 0.308593511581421 0.0523359552025795 -0.949753105640411
v 0.0349475517272949 0.095 -0.220650161743164
vn 0.308593511581421 0.0523359552025795 -0.949753105640411
v 0.101421745300293 0.095 -0.199051376342773
vn 0.308593511581421 0.0523359552025795 -0.949753105640411
v -0.175 0.012 -0.225
vn 0.998629510402679 -0.0523359552025795 1.4056424938808E-15
v -0.175 0.012 -0.185562469482422
vn 0.998629510402679 -0.0523359552025795 1.4056424938808E-15
v -0.175628890991211 0 -0.186052505493164
vn 0.998629510402679 -0.0523359552025795 1.4056424938808E-15
v -0.175628890991211 0 -0.224371109008789
vn 0.998629510402679 -0.0523359552025795 1.4056424938808E-15
v -0.175 0.012 -0.185562469482422
vn 0.244100391864777 -0.0523359552025795 0.968336701393127
v -0.205 0.012 -0.178
vn 0.244100391864777 -0.0523359552025795 0.968336701393127
v -0.205078048706055 0 -0.178628890991211
vn 0.244100391864777 -0.0523359552025795 0.968336701393127
v -0.175628890991211 0 -0.186052505493164
vn 0.244100391864777 -0.0523359552025795 0.968336701393127
v 0.0356364974975586 0.012 -0.225
vn -5.44129571332749E-16 0.0523359552025795 -0.998629510402679
v -0.175 0.012 -0.225
vn -5.44129571332749E-16 0.0523359552025795 -0.998629510402679
v -0.235 0.012 -0.225
vn -5.44129571332749E-16 0.0523359552025795 -0.998629510402679
v -0.239393402099609 0.012 -0.225
vn -5.44129571332749E-16 0.0523359552025795 -0.998629510402679
v -0.238828994750977 0.038 -0.223637390136719
vn -5.44129571332749E-16 0.0523359552025795 -0.998629510402679
v -0.0354206848144531 0.038 -0.223637390136719
vn -5.44129571332749E-16 0.0523359552025795 -0.998629510402679
v -0.0350499687194824 0.095 -0.220650161743164
vn -5.44129571332749E-16 0.0523359552025795 -0.998629510402679
v 0.0349475517272949 0.095 -0.220650161743164
vn -5.44129571332749E-16 0.0523359552025795 -0.998629510402679
v -0.235 0.012 0.178
vn 0 -0.0523359552025795 -0.998629510402679
v -0.205 0.012 0.178
vn 0 -0.0523359552025795 -0.998629510402679
v -0.205078048706055 0 0.178628890991211
vn 0 -0.0523359552025795 -0.998629510402679
v -0.234371109008789 0 0.178628890991211
vn 0 -0.0523359552025795 -0.998629510402679
v -0.175 0.012 0.185562469482422
vn 0.998629510402679 -0.0523359552025795 -1.4056424938808E-15
v -0.175 0.012 0.225
vn 0.998629510402679 -0.0523359552025795 -1.4056424938808E-15
v -0.175628890991211 0 0.224371109008789
vn 0.998629510402679 -0.0523359552025795 -1.4056424938808E-15
v -0.175628890991211 0 0.186052505493164
vn 0.998629510402679 -0.0523359552025795 -1.4056424938808E-15
v 0.10342115020752 0.012 0.202975433349609
vn 0.586979687213898 0.0523359552025795 0.807908236980438
v 0.161082214355469 0.012 0.161082214355469
vn 0.586979687213898 0.0523359552025795 0.807908236980438
v 0.157968063354492 0.095 0.157968063354492
vn 0.586979687213898 0.0523359552025795 0.807908236980438
v 0.101421745300293 0.095 0.199051376342773
vn 0.586979687213898 0.0523359552025795 0.807908236980438
v 0.161082214355469 0.012 0.161082214355469
vn 0.807908236980438 0.0523359552025795 0.586979687213898
v 0.202975433349609 0.012 0.10342115020752
vn 0.807908236980438 0.0523359552025795 0.586979687213898
v 0.199051376342773 0.095 0.101421745300293
vn 0.807908236980438 0.0523359552025795 0.586979687213898
v 0.157968063354492 0.095 0.157968063354492
vn 0.807908236980438 0.0523359552025795 0.586979687213898
v -0.239393402099609 0.012 -0.225
vn -0.706137716770172 0.0523359552025795 -0.706137716770172
v -0.25 0.012 -0.214393402099609
vn -0.706137716770172 0.0523359552025795 -0.706137716770172
v -0.248637390136719 0.038 -0.213828994750977
vn -0.706137716770172 0.0523359552025795 -0.706137716770172
v -0.238828994750977 0.038 -0.223637390136719
vn -0.706137716770172 0.0523359552025795 -0.706137716770172
v -0.395274780273437 0.064 -0.179274795532227
vn 0 0.0523359552025795 -0.998629510402679
v -0.267 0.193 -0.172514190673828
vn 0 0.0523359552025795 -0.998629510402679
v -0.267 0.2 -0.172147338867187
vn 0 0.0523359552025795 -0.998629510402679
v -0.204946380615234 0.2 -0.172147338867187
vn 0 0.0523359552025795 -0.998629510402679
v -0.206 0.038 -0.180637390136719
vn 0 0.0523359552025795 -0.998629510402679
v -0.248637390136719 0.038 -0.180637390136719
vn 0 0.0523359552025795 -0.998629510402679
v -0.25 0.012 -0.182
vn 0 0.0523359552025795 -0.998629510402679
v -0.398 0.012 -0.182
vn 0 0.0523359552025795 -0.998629510402679
v -0.25 0.012 0.214393402099609
vn -0.706137716770172 0.0523359552025795 0.706137716770172
v -0.239393402099609 0.012 0.225
vn -0.706137716770172 0.0523359552025795 0.706137716770172
v -0.238828994750977 0.038 0.223637390136719
vn -0.706137716770172 0.0523359552025795 0.706137716770172
v -0.248637390136719 0.038 0.213828994750977
vn -0.706137716770172 0.0523359552025795 0.706137716770172
v -0.202130813598633 0.193 0.172514190673828
vn 0 0.0523359552025795 0.998629510402679
v -0.267 0.193 0.172514190673828
vn 0 0.0523359552025795 0.998629510402679
v -0.395274780273437 0.064 0.179274795532227
vn 0 0.0523359552025795 0.998629510402679
v -0.398 0.012 0.182
vn 0 0.0523359552025795 0.998629510402679
v -0.25 0.012 0.182
vn 0 0.0523359552025795 0.998629510402679
v -0.248637390136719 0.038 0.180637390136719
vn 0 0.0523359552025795 0.998629510402679
v -0.206 0.038 0.180637390136719
vn 0 0.0523359552025795 0.998629510402679
v -0.205629287719727 0.095 0.177650161743164
vn 0 0.0523359552025795 0.998629510402679
v -0.180206436157227 0.095 0.177650161743164
vn 0 0.0523359552025795 0.998629510402679
v -0.235 0.012 0.225
vn -0.998629510402679 -0.0523359552025795 5.89734831064545E-16
v -0.235 0.012 0.178
vn -0.998629510402679 -0.0523359552025795 5.89734831064545E-16
v -0.234371109008789 0 0.178628890991211
vn -0.998629510402679 -0.0523359552025795 5.89734831064545E-16
v -0.234371109008789 0 0.224371109008789
vn -0.998629510402679 -0.0523359552025795 5.89734831064545E-16
v -0.205 0.012 0.178
vn 0.244100391864777 -0.0523359552025795 -0.968336701393127
v -0.175 0.012 0.185562469482422
vn 0.244100391864777 -0.0523359552025795 -0.968336701393127
v -0.175628890991211 0 0.186052505493164
vn 0.244100391864777 -0.0523359552025795 -0.968336701393127
v -0.205078048706055 0 0.178628890991211
vn 0.244100391864777 -0.0523359552025795 -0.968336701393127
v 0.220650161743164 0.095 0.0349475517272949
vn 0.998629510402679 0.0523359552025795 -3.88892546070253E-16
v 0.223637390136719 0.038 0.0354206848144531
vn 0.998629510402679 0.0523359552025795 -3.88892546070253E-16
v 0.223637390136719 0.038 -0.0354206848144531
vn 0.998629510402679 0.0523359552025795 -3.88892546070253E-16
v 0.220650161743164 0.095 -0.0349475517272949
vn 0.998629510402679 0.0523359552025795 -3.88892546070253E-16
v -0.206 0.038 0.180637390136719
vn -0.244100391864777 0.0523359552025795 0.968336701393127
v -0.0354206848144531 0.038 0.223637390136719
vn -0.244100391864777 0.0523359552025795 0.968336701393127
v -0.0350499687194824 0.095 0.220650161743164
vn -0.244100391864777 0.0523359552025795 0.968336701393127
v -0.205629287719727 0.095 0.177650161743164
vn -0.244100391864777 0.0523359552025795 0.968336701393127
v 0.0425 0.095 -0.076
vn 0 1 0
v 0.0425 0.095 -0.170196807861328
vn 0 1 0
v 0.0804386672973633 0.095 -0.157869781494141
vn 0 1 0
v 0.125286170959473 0.095 -0.125286170959473
vn 0 1 0
v 0.157869781494141 0.095 -0.0804386672973633
vn 0 1 0
v 0.175 0.095 -0.0277172775268555
vn 0 1 0
v 0.175 0.095 0.0277172775268555
vn 0 1 0
v 0.157869781494141 0.095 0.0804386672973633
vn 0 1 0
v 0.125286170959473 0.095 0.125286170959473
vn 0 1 0
v 0.0804386672973633 0.095 0.157869781494141
vn 0 1 0
v 0.0425 0.095 0.170196807861328
vn 0 1 0
v 0.0425 0.095 0.076
vn 0 1 0
v -0.0425 0.095 0.076
vn 0 1 0
v -0.0425 0.095 0.170196807861328
vn 0 1 0
v -0.0804386672973633 0.095 0.157869781494141
vn 0 1 0
v -0.125286170959473 0.095 0.125286170959473
vn 0 1 0
v -0.126038528442383 0.095 0.124250633239746
vn 0 1 0
v -0.180206436157227 0.095 0.177650161743164
vn 0 1 0
v -0.205629287719727 0.095 0.177650161743164
vn 0 1 0
v -0.0350499687194824 0.095 0.220650161743164
vn 0 1 0
v 0.0349475517272949 0.095 0.220650161743164
vn 0 1 0
v 0.101421745300293 0.095 0.199051376342773
vn 0 1 0
v 0.157968063354492 0.095 0.157968063354492
vn 0 1 0
v 0.199051376342773 0.095 0.101421745300293
vn 0 1 0
v 0.220650161743164 0.095 0.0349475517272949
vn 0 1 0
v 0.220650161743164 0.095 -0.0349475517272949
vn 0 1 0
v 0.199051376342773 0.095 -0.101421745300293
vn 0 1 0
v 0.157968063354492 0.095 -0.157968063354492
vn 0 1 0
v 0.101421745300293 0.095 -0.199051376342773
vn 0 1 0
v 0.0349475517272949 0.095 -0.220650161743164
vn 0 1 0
v -0.0350499687194824 0.095 -0.220650161743164
vn 0 1 0
v -0.18538346862793 0.095 -0.182753753662109
vn 0 1 0
v -0.126038528442383 0.095 -0.124250633239746
vn 0 1 0
v -0.125286170959473 0.095 -0.125286170959473
vn 0 1 0
v -0.0804386672973633 0.095 -0.157869781494141
vn 0 1 0
v -0.0425 0.095 -0.170196807861328
vn 0 1 0
v -0.0425 0.095 -0.076
vn 0 1 0
v -0.20075 0.038 0.2
vn 0 1 0
v -0.2019892578125 0.038 0.204625
vn 0 1 0
v -0.205375 0.038 0.2080107421875
vn 0 1 0
v -0.21 0.038 0.20925
vn 0 1 0
v -0.214625 0.038 0.2080107421875
vn 0 1 0
v -0.2180107421875 0.038 0.204625
vn 0 1 0
v -0.21925 0.038 0.2
vn 0 1 0
v -0.2180107421875 0.038 0.195375
vn 0 1 0
v -0.214625 0.038 0.1919892578125
vn 0 1 0
v -0.21 0.038 0.19075
vn 0 1 0
v -0.205375 0.038 0.1919892578125
vn 0 1 0
v -0.2019892578125 0.038 0.195375
vn 0 1 0
v -0.0354206848144531 0.038 0.223637390136719
vn 0 1 0
v -0.206 0.038 0.180637390136719
vn 0 1 0
v -0.248637390136719 0.038 0.180637390136719
vn 0 1 0
v -0.248637390136719 0.038 0.213828994750977
vn 0 1 0
v -0.238828994750977 0.038 0.223637390136719
vn 0 1 0
v -0.175 0.012 0.225
vn 0 -0.0523359552025795 0.998629510402679
v -0.235 0.012 0.225
vn 0 -0.0523359552025795 0.998629510402679
v -0.234371109008789 0 0.224371109008789
vn 0 -0.0523359552025795 0.998629510402679
v -0.175628890991211 0 0.224371109008789
vn 0 -0.0523359552025795 0.998629510402679
v -0.20075 0.038 -0.2
vn 0 1 0
v -0.2019892578125 0.038 -0.195375
vn 0 1 0
v -0.205375 0.038 -0.1919892578125
vn 0 1 0
v -0.21 0.038 -0.19075
vn 0 1 0
v -0.214625 0.038 -0.1919892578125
vn 0 1 0
v -0.2180107421875 0.038 -0.195375
vn 0 1 0
v -0.21925 0.038 -0.2
vn 0 1 0
v -0.2180107421875 0.038 -0.204625
vn 0 1 0
v -0.214625 0.038 -0.2080107421875
vn 0 1 0
v -0.21 0.038 -0.20925
vn 0 1 0
v -0.205375 0.038 -0.2080107421875
vn 0 1 0
v -0.2019892578125 0.038 -0.204625
vn 0 1 0
v -0.248637390136719 0.038 -0.180637390136719
vn 0 1 0
v -0.206 0.038 -0.180637390136719
vn 0 1 0
v -0.0354206848144531 0.038 -0.223637390136719
vn 0 1 0
v -0.238828994750977 0.038 -0.223637390136719
vn 0 1 0
v -0.248637390136719 0.038 -0.213828994750977
vn 0 1 0
v -0.395274780273437 0.064 -0.179274795532227
vn -0.709097146987915 0.705110788345337 0
v -0.395274780273437 0.064 0.179274795532227
vn -0.709097146987915 0.705110788345337 0
v -0.267 0.193 0.172514190673828
vn -0.709097146987915 0.705110788345337 0
v -0.267 0.193 -0.122147338867187
vn -0.709097146987915 0.705110788345337 0
v -0.267 0.193 -0.172514190673828
vn -0.709097146987915 0.705110788345337 0
v -0.235 0.012 -0.225
vn 0 -0.0523359552025795 -0.998629510402679
v -0.175 0.012 -0.225
vn 0 -0.0523359552025795 -0.998629510402679
v -0.175628890991211 0 -0.224371109008789
vn 0 -0.0523359552025795 -0.998629510402679
v -0.234371109008789 0 -0.224371109008789
vn 0 -0.0523359552025795 -0.998629510402679
v -0.20075 0 -0.2
vn 0 -1 0
v -0.2019892578125 0 -0.204625
vn 0 -1 0
v -0.205375 0 -0.2080107421875
vn 0 -1 0
v -0.21 0 -0.20925
vn 0 -1 0
v -0.214625 0 -0.2080107421875
vn 0 -1 0
v -0.2180107421875 0 -0.204625
vn 0 -1 0
v -0.21925 0 -0.2
vn 0 -1 0
v -0.2180107421875 0 -0.195375
vn 0 -1 0
v -0.214625 0 -0.1919892578125
vn 0 -1 0
v -0.21 0 -0.19075
vn 0 -1 0
v -0.205375 0 -0.1919892578125
vn 0 -1 0
v -0.2019892578125 0 -0.195375
vn 0 -1 0
v -0.175628890991211 0 -0.224371109008789
vn 0 -1 0
v -0.175628890991211 0 -0.186052505493164
vn 0 -1 0
v -0.205078048706055 0 -0.178628890991211
vn 0 -1 0
v -0.234371109008789 0 -0.178628890991211
vn 0 -1 0
v -0.234371109008789 0 -0.224371109008789
vn 0 -1 0
v -0.204946380615234 0.2 -0.172147338867187
vn -0.244100391864777 0.0523359552025795 -0.968336701393127
v -0.204 0.2 -0.17238591003418
vn -0.244100391864777 0.0523359552025795 -0.968336701393127
v -0.200174224853516 0.127 -0.177295761108398
vn -0.244100391864777 0.0523359552025795 -0.968336701393127
v -0.191042236328125 0.127 -0.179597778320313
vn -0.244100391864777 0.0523359552025795 -0.968336701393127
v -0.18538346862793 0.095 -0.182753753662109
vn -0.244100391864777 0.0523359552025795 -0.968336701393127
v -0.0350499687194824 0.095 -0.220650161743164
vn -0.244100391864777 0.0523359552025795 -0.968336701393127
v -0.0354206848144531 0.038 -0.223637390136719
vn -0.244100391864777 0.0523359552025795 -0.968336701393127
v -0.206 0.038 -0.180637390136719
vn -0.244100391864777 0.0523359552025795 -0.968336701393127
v -0.20075 0 0.2
vn 0 -1 0
v -0.2019892578125 0 0.195375
vn 0 -1 0
v -0.205375 0 0.1919892578125
vn 0 -1 0
v -0.21 0 0.19075
vn 0 -1 0
v -0.214625 0 0.1919892578125
vn 0 -1 0
v -0.2180107421875 0 0.195375
vn 0 -1 0
v -0.21925 0 0.2
vn 0 -1 0
v -0.2180107421875 0 0.204625
vn 0 -1 0
v -0.214625 0 0.2080107421875
vn 0 -1 0
v -0.21 0 0.20925
vn 0 -1 0
v -0.205375 0 0.2080107421875
vn 0 -1 0
v -0.2019892578125 0 0.204625
vn 0 -1 0
v -0.175628890991211 0 0.224371109008789
vn 0 -1 0
v -0.234371109008789 0 0.224371109008789
vn 0 -1 0
v -0.234371109008789 0 0.178628890991211
vn 0 -1 0
v -0.205078048706055 0 0.178628890991211
vn 0 -1 0
v -0.175628890991211 0 0.186052505493164
vn 0 -1 0
v -0.267 0.2 -0.122147338867187
vn 0 1 0
v -0.204 0.2 -0.122147338867187
vn 0 1 0
v -0.204 0.2 -0.17238591003418
vn 0 1 0
v -0.204946380615234 0.2 -0.172147338867187
vn 0 1 0
v -0.267 0.2 -0.172147338867187
vn 0 1 0
v -0.267 0.193 -0.172514190673828
vn -1 0 0
v -0.267 0.193 -0.122147338867187
vn -1 0 0
v -0.267 0.2 -0.122147338867187
vn -1 0 0
v -0.267 0.2 -0.172147338867187
vn -1 0 0
v -0.126038528442383 0.095 0.124250633239746
vn 0.689139366149902 0.190808996558189 0.699055671691895
v -0.0827822952270508 0.118215614318848 0.0752712478637695
vn 0.689139366149902 0.190808996558189 0.699055671691895
v -0.0901240234375 0.127 0.0801111145019531
vn 0.689139366149902 0.190808996558189 0.699055671691895
v -0.168033294677734 0.127 0.15691520690918
vn 0.689139366149902 0.190808996558189 0.699055671691895
v -0.178150787353516 0.193 0.148874328613281
vn 0.689139366149902 0.190808996558189 0.699055671691895
v -0.202130813598633 0.193 0.172514190673828
vn 0.689139366149902 0.190808996558189 0.699055671691895
v -0.180206436157227 0.095 0.177650161743164
vn 0.689139366149902 0.190808996558189 0.699055671691895
v -0.203633148193359 0.193 -0.11380086517334
vn 0 1 0
v -0.203633148193359 0.193 -0.122147338867187
vn 0 1 0
v -0.267 0.193 -0.122147338867187
vn 0 1 0
v -0.267 0.193 0.172514190673828
vn 0 1 0
v -0.202130813598633 0.193 0.172514190673828
vn 0 1 0
v -0.178150787353516 0.193 0.148874328613281
vn 0 1 0
v -0.208959274291992 0.193 0.106470069885254
vn 0 1 0
v -0.231633148193359 0.193 0.0366870880126953
vn 0 1 0
v -0.231633148193359 0.193 -0.0366870880126953
vn 0 1 0
v -0.208959274291992 0.193 -0.106470069885254
vn 0 1 0
v -0.0804386672973633 0.095 -0.157869781494141
vn -0.201034396886826 0.939692616462708 -0.276700109243393
v -0.125286170959473 0.095 -0.125286170959473
vn -0.201034396886826 0.939692616462708 -0.276700109243393
v -0.078078727722168 0.119 -0.078078727722168
vn -0.201034396886826 0.939692616462708 -0.276700109243393
v -0.0501296272277832 0.119 -0.0983849334716797
vn -0.201034396886826 0.939692616462708 -0.276700109243393
v 0.125286170959473 0.095 -0.125286170959473
vn 0.201034396886826 0.939692616462708 -0.276700109243393
v 0.0804386672973633 0.095 -0.157869781494141
vn 0.201034396886826 0.939692616462708 -0.276700109243393
v 0.0501296272277832 0.119 -0.0983849334716797
vn 0.201034396886826 0.939692616462708 -0.276700109243393
v 0.078078727722168 0.119 -0.078078727722168
vn 0.201034396886826 0.939692616462708 -0.276700109243393
v 0.038723934173584 0.122321701049805 -0.076
vn 1.63268088742549E-16 0 -1
v 0.0425 0.121040260314941 -0.076
vn 1.63268088742549E-16 0 -1
v 0.0425 0.095 -0.076
vn 1.63268088742549E-16 0 -1
v -0.0425 0.095 -0.076
vn 1.63268088742549E-16 0 -1
v -0.0425 0.121040260314941 -0.076
vn 1.63268088742549E-16 0 -1
v -0.038723934173584 0.122321701049805 -0.076
vn 1.63268088742549E-16 0 -1
v -0.0120372171401978 0.127082901000977 -0.076
vn 1.63268088742549E-16 0 -1
v 0.0120372171401978 0.127082901000977 -0.076
vn 1.63268088742549E-16 0 -1
v -0.0827822952270508 0.118215614318848 -0.0752712478637695
vn 0.689139366149902 0.190808996558189 -0.699055671691895
v -0.126038528442383 0.095 -0.124250633239746
vn 0.689139366149902 0.190808996558189 -0.699055671691895
v -0.18538346862793 0.095 -0.182753753662109
vn 0.689139366149902 0.190808996558189 -0.699055671691895
v -0.191042236328125 0.127 -0.179597778320313
vn 0.689139366149902 0.190808996558189 -0.699055671691895
v -0.0901240234375 0.127 -0.0801111145019531
vn 0.689139366149902 0.190808996558189 -0.699055671691895
v -0.125286170959473 0.095 -0.125286170959473
vn -0.276700109243393 0.939692616462708 -0.201034396886826
v -0.126038528442383 0.095 -0.124250633239746
vn -0.276700109243393 0.939692616462708 -0.201034396886826
v -0.0827822952270508 0.118215614318848 -0.0752712478637695
vn -0.276700109243393 0.939692616462708 -0.201034396886826
v -0.100329055786133 0.118215614318848 -0.0511202087402344
vn -0.276700109243393 0.939692616462708 -0.201034396886826
v -0.0983849334716797 0.119 -0.0501296272277832
vn -0.276700109243393 0.939692616462708 -0.201034396886826
v -0.078078727722168 0.119 -0.078078727722168
vn -0.276700109243393 0.939692616462708 -0.201034396886826
v -0.038723934173584 0.122321701049805 0.076
vn 1.63268088742549E-16 0 1
v -0.0425 0.121040260314941 0.076
vn 1.63268088742549E-16 0 1
v -0.0425 0.095 0.076
vn 1.63268088742549E-16 0 1
v 0.0425 0.095 0.076
vn 1.63268088742549E-16 0 1
v 0.0425 0.121040260314941 0.076
vn 1.63268088742549E-16 0 1
v 0.038723934173584 0.122321701049805 0.076
vn 1.63268088742549E-16 0 1
v 0.0120372171401978 0.127082901000977 0.076
vn 1.63268088742549E-16 0 1
v -0.0120372171401978 0.127082901000977 0.076
vn 1.63268088742549E-16 0 1
v 0.0425 0.119 0.100863952636719
vn 0.105690039694309 0.939692616462708 0.325280487537384
v 0.0425 0.095 0.170196807861328
vn 0.105690039694309 0.939692616462708 0.325280487537384
v 0.0804386672973633 0.095 0.157869781494141
vn 0.105690039694309 0.939692616462708 0.325280487537384
v 0.0501296272277832 0.119 0.0983849334716797
vn 0.105690039694309 0.939692616462708 0.325280487537384
v 0.175 0.095 0.0277172775268555
vn 0.342020153999329 0.939692616462708 -1.71246371482076E-16
v 0.175 0.095 -0.0277172775268555
vn 0.342020153999329 0.939692616462708 -1.71246371482076E-16
v 0.109060539245605 0.119 -0.0172734928131104
vn 0.342020153999329 0.939692616462708 -1.71246371482076E-16
v 0.109060539245605 0.119 0.0172734928131104
vn 0.342020153999329 0.939692616462708 -1.71246371482076E-16
v 0.175 0.095 -0.0277172775268555
vn 0.325280487537384 0.939692616462708 -0.105690039694309
v 0.157869781494141 0.095 -0.0804386672973633
vn 0.325280487537384 0.939692616462708 -0.105690039694309
v 0.0983849334716797 0.119 -0.0501296272277832
vn 0.325280487537384 0.939692616462708 -0.105690039694309
v 0.109060539245605 0.119 -0.0172734928131104
vn 0.325280487537384 0.939692616462708 -0.105690039694309
v 0.157869781494141 0.095 -0.0804386672973633
vn 0.276700109243393 0.939692616462708 -0.201034396886826
v 0.125286170959473 0.095 -0.125286170959473
vn 0.276700109243393 0.939692616462708 -0.201034396886826
v 0.078078727722168 0.119 -0.078078727722168
vn 0.276700109243393 0.939692616462708 -0.201034396886826
v 0.0983849334716797 0.119 -0.0501296272277832
vn 0.276700109243393 0.939692616462708 -0.201034396886826
v -0.100329055786133 0.118215614318848 0.0511202087402344
vn -0.276700109243393 0.939692616462708 0.201034396886826
v -0.0827822952270508 0.118215614318848 0.0752712478637695
vn -0.276700109243393 0.939692616462708 0.201034396886826
v -0.126038528442383 0.095 0.124250633239746
vn -0.276700109243393 0.939692616462708 0.201034396886826
v -0.125286170959473 0.095 0.125286170959473
vn -0.276700109243393 0.939692616462708 0.201034396886826
v -0.078078727722168 0.119 0.078078727722168
vn -0.276700109243393 0.939692616462708 0.201034396886826
v -0.0983849334716797 0.119 0.0501296272277832
vn -0.276700109243393 0.939692616462708 0.201034396886826
v -0.125286170959473 0.095 0.125286170959473
vn -0.201034396886826 0.939692616462708 0.276700109243393
v -0.0804386672973633 0.095 0.157869781494141
vn -0.201034396886826 0.939692616462708 0.276700109243393
v -0.0501296272277832 0.119 0.0983849334716797
vn -0.201034396886826 0.939692616462708 0.276700109243393
v -0.078078727722168 0.119 0.078078727722168
vn -0.201034396886826 0.939692616462708 0.276700109243393
v 0.0804386672973633 0.095 0.157869781494141
vn 0.201034396886826 0.939692616462708 0.276700109243393
v 0.125286170959473 0.095 0.125286170959473
vn 0.201034396886826 0.939692616462708 0.276700109243393
v 0.078078727722168 0.119 0.078078727722168
vn 0.201034396886826 0.939692616462708 0.276700109243393
v 0.0501296272277832 0.119 0.0983849334716797
vn 0.201034396886826 0.939692616462708 0.276700109243393
v -0.0425 0.119 0.100863952636719
vn 1 0 -1.15676669098339E-16
v -0.0425 0.095 0.170196807861328
vn 1 0 -1.15676669098339E-16
v -0.0425 0.095 0.076
vn 1 0 -1.15676669098339E-16
v -0.0425 0.121040260314941 0.076
vn 1 0 -1.15676669098339E-16
v -0.0425 0.119 0.0803680572509766
vn 1 0 -1.15676669098339E-16
v 0.0425 0.095 0.170196807861328
vn -1 0 1.15676669098339E-16
v 0.0425 0.119 0.100863952636719
vn -1 0 1.15676669098339E-16
v 0.0425 0.119 0.0803680572509766
vn -1 0 1.15676669098339E-16
v 0.0425 0.121040260314941 0.076
vn -1 0 1.15676669098339E-16
v 0.0425 0.095 0.076
vn -1 0 1.15676669098339E-16
v 0.125286170959473 0.095 0.125286170959473
vn 0.276700109243393 0.939692616462708 0.201034396886826
v 0.157869781494141 0.095 0.0804386672973633
vn 0.276700109243393 0.939692616462708 0.201034396886826
v 0.0983849334716797 0.119 0.0501296272277832
vn 0.276700109243393 0.939692616462708 0.201034396886826
v 0.078078727722168 0.119 0.078078727722168
vn 0.276700109243393 0.939692616462708 0.201034396886826
v -0.0425 0.095 0.170196807861328
vn -0.105690039694309 0.939692616462708 0.325280487537384
v -0.0425 0.119 0.100863952636719
vn -0.105690039694309 0.939692616462708 0.325280487537384
v -0.0501296272277832 0.119 0.0983849334716797
vn -0.105690039694309 0.939692616462708 0.325280487537384
v -0.0804386672973633 0.095 0.157869781494141
vn -0.105690039694309 0.939692616462708 0.325280487537384
v 0.157869781494141 0.095 0.0804386672973633
vn 0.325280487537384 0.939692616462708 0.105690039694309
v 0.175 0.095 0.0277172775268555
vn 0.325280487537384 0.939692616462708 0.105690039694309
v 0.109060539245605 0.119 0.0172734928131104
vn 0.325280487537384 0.939692616462708 0.105690039694309
v 0.0983849334716797 0.119 0.0501296272277832
vn 0.325280487537384 0.939692616462708 0.105690039694309
v -0.0425 0.095 -0.170196807861328
vn 1 0 1.15676669098339E-16
v -0.0425 0.119 -0.100863952636719
vn 1 0 1.15676669098339E-16
v -0.0425 0.119 -0.0803680572509766
vn 1 0 1.15676669098339E-16
v -0.0425 0.121040260314941 -0.076
vn 1 0 1.15676669098339E-16
v -0.0425 0.095 -0.076
vn 1 0 1.15676669098339E-16
v 0.0425 0.095 -0.170196807861328
vn 0.105690039694309 0.939692616462708 -0.325280487537384
v 0.0425 0.119 -0.100863952636719
vn 0.105690039694309 0.939692616462708 -0.325280487537384
v 0.0501296272277832 0.119 -0.0983849334716797
vn 0.105690039694309 0.939692616462708 -0.325280487537384
v 0.0804386672973633 0.095 -0.157869781494141
vn 0.105690039694309 0.939692616462708 -0.325280487537384
v 0.0425 0.119 -0.100863952636719
vn -1 0 -1.15676669098339E-16
v 0.0425 0.095 -0.170196807861328
vn -1 0 -1.15676669098339E-16
v 0.0425 0.095 -0.076
vn -1 0 -1.15676669098339E-16
v 0.0425 0.121040260314941 -0.076
vn -1 0 -1.15676669098339E-16
v 0.0425 0.119 -0.0803680572509766
vn -1 0 -1.15676669098339E-16
v -0.0425 0.119 -0.100863952636719
vn -0.105690039694309 0.939692616462708 -0.325280487537384
v -0.0425 0.095 -0.170196807861328
vn -0.105690039694309 0.939692616462708 -0.325280487537384
v -0.0804386672973633 0.095 -0.157869781494141
vn -0.105690039694309 0.939692616462708 -0.325280487537384
v -0.0501296272277832 0.119 -0.0983849334716797
vn -0.105690039694309 0.939692616462708 -0.325280487537384
v -0.21925 0.038 0.2
vn 1 0 0
v -0.2180107421875 0.038 0.204625
vn 0.866025388240814 0 -0.5
v -0.214625 0.038 0.2080107421875
vn 0.5 0 -0.866025388240814
v -0.21 0.038 0.20925
vn 0 0 -1
v -0.205375 0.038 0.2080107421875
vn -0.5 0 -0.866025388240814
v -0.2019892578125 0.038 0.204625
vn -0.866025388240814 0 -0.5
v -0.20075 0.038 0.2
vn -1 0 0
v -0.20075 0 0.2
vn -1 0 0
v -0.2019892578125 0 0.204625
vn -0.866025388240814 0 -0.5
v -0.205375 0 0.2080107421875
vn -0.5 0 -0.866025388240814
v -0.21 0 0.20925
vn 0 0 -1
v -0.214625 0 0.2080107421875
vn 0.5 0 -0.866025388240814
v -0.2180107421875 0 0.204625
vn 0.866025388240814 0 -0.5
v -0.21925 0 0.2
vn 1 0 0
v -0.20075 0 0.2
vn -1 0 0
v -0.20075 0.038 0.2
vn -1 0 0
v -0.2019892578125 0.038 0.195375
vn -0.866025388240814 0 0.5
v -0.205375 0.038 0.1919892578125
vn -0.5 0 0.866025388240814
v -0.21 0.038 0.19075
vn 0 0 1
v -0.214625 0.038 0.1919892578125
vn 0.5 0 0.866025388240814
v -0.2180107421875 0.038 0.195375
vn 0.866025388240814 0 0.5
v -0.21925 0.038 0.2
vn 1 0 0
v -0.21925 0 0.2
vn 1 0 0
v -0.2180107421875 0 0.195375
vn 0.866025388240814 0 0.5
v -0.214625 0 0.1919892578125
vn 0.5 0 0.866025388240814
v -0.21 0 0.19075
vn 0 0 1
v -0.205375 0 0.1919892578125
vn -0.5 0 0.866025388240814
v -0.2019892578125 0 0.195375
vn -0.866025388240814 0 0.5
v -0.20075 0 -0.2
vn -1 0 0
v -0.20075 0.038 -0.2
vn -1 0 0
v -0.2019892578125 0.038 -0.204625
vn -0.866025388240814 0 0.5
v -0.205375 0.038 -0.2080107421875
vn -0.5 0 0.866025388240814
v -0.21 0.038 -0.20925
vn 0 0 1
v -0.214625 0.038 -0.2080107421875
vn 0.5 0 0.866025388240814
v -0.2180107421875 0.038 -0.204625
vn 0.866025388240814 0 0.5
v -0.21925 0.038 -0.2
vn 1 0 0
v -0.21925 0 -0.2
vn 1 0 0
v -0.2180107421875 0 -0.204625
vn 0.866025388240814 0 0.5
v -0.214625 0 -0.2080107421875
vn 0.5 0 0.866025388240814
v -0.21 0 -0.20925
vn 0 0 1
v -0.205375 0 -0.2080107421875
vn -0.5 0 0.866025388240814
v -0.2019892578125 0 -0.204625
vn -0.866025388240814 0 0.5
v -0.21925 0.038 -0.2
vn 1 0 0
v -0.2180107421875 0.038 -0.195375
vn 0.866025388240814 0 -0.5
v -0.214625 0.038 -0.1919892578125
vn 0.5 0 -0.866025388240814
v -0.21 0.038 -0.19075
vn 0 0 -1
v -0.205375 0.038 -0.1919892578125
vn -0.5 0 -0.866025388240814
v -0.2019892578125 0.038 -0.195375
vn -0.866025388240814 0 -0.5
v -0.20075 0.038 -0.2
vn -1 0 0
v -0.20075 0 -0.2
vn -1 0 0
v -0.2019892578125 0 -0.195375
vn -0.866025388240814 0 -0.5
v -0.205375 0 -0.1919892578125
vn -0.5 0 -0.866025388240814
v -0.21 0 -0.19075
vn 0 0 -1
v -0.214625 0 -0.1919892578125
vn 0.5 0 -0.866025388240814
v -0.2180107421875 0 -0.195375
vn 0.866025388240814 0 -0.5
v -0.21925 0 -0.2
vn 1 0 0
v -0.204 0.2 -0.17238591003418
vn 0.998629510402679 0.0523359552025795 -2.7628375089753E-16
v -0.204 0.2 -0.122147338867187
vn 0.998629510402679 0.0523359552025795 -2.7628375089753E-16
v -0.203633148193359 0.193 -0.122147338867187
vn 0.998629510402679 0.0523359552025795 -2.7628375089753E-16
v -0.203633148193359 0.193 -0.11380086517334
vn 0.998629510402679 0.0523359552025795 -2.7628375089753E-16
v -0.200174224853516 0.127 -0.11267699432373
vn 0.998629510402679 0.0523359552025795 -2.7628375089753E-16
v -0.200174224853516 0.127 -0.177295761108398
vn 0.998629510402679 0.0523359552025795 -2.7628375089753E-16
v -0.0901240234375 0.127 0.0801111145019531
vn 0 1 0
v -0.108253562927246 0.127 0.0551579475402832
vn 0 1 0
v -0.12 0.127 0.0190061321258545
vn 0 1 0
v -0.12 0.127 -0.0190061321258545
vn 0 1 0
v -0.108253562927246 0.127 -0.0551579475402832
vn 0 1 0
v -0.0901240234375 0.127 -0.0801111145019531
vn 0 1 0
v -0.191042236328125 0.127 -0.179597778320313
vn 0 1 0
v -0.200174224853516 0.127 -0.177295761108398
vn 0 1 0
v -0.200174224853516 0.127 -0.11267699432373
vn 0 1 0
v -0.205838943481445 0.127 -0.104880180358887
vn 0 1 0
v -0.228174224853516 0.127 -0.0361392478942871
vn 0 1 0
v -0.228174224853516 0.127 0.0361392478942871
vn 0 1 0
v -0.205838943481445 0.127 0.104880180358887
vn 0 1 0
v -0.168033294677734 0.127 0.15691520690918
vn 0 1 0
v -0.204 0.2 -0.122147338867187
vn 0 0 1
v -0.267 0.2 -0.122147338867187
vn 0 0 1
v -0.267 0.193 -0.122147338867187
vn 0 0 1
v -0.203633148193359 0.193 -0.122147338867187
vn 0 0 1
v -0.208959274291992 0.193 0.106470069885254
vn 0.807908236980438 0.0523359552025795 -0.586979687213898
v -0.178150787353516 0.193 0.148874328613281
vn 0.807908236980438 0.0523359552025795 -0.586979687213898
v -0.168033294677734 0.127 0.15691520690918
vn 0.807908236980438 0.0523359552025795 -0.586979687213898
v -0.205838943481445 0.127 0.104880180358887
vn 0.807908236980438 0.0523359552025795 -0.586979687213898
v -0.0827822952270508 0.118215614318848 0.0752712478637695
vn 0.572061419487 0.70710676908493 -0.41562694311142
v -0.100329055786133 0.118215614318848 0.0511202087402344
vn 0.572061419487 0.70710676908493 -0.41562694311142
v -0.108253562927246 0.127 0.0551579475402832
vn 0.572061419487 0.70710676908493 -0.41562694311142
v -0.0901240234375 0.127 0.0801111145019531
vn 0.572061419487 0.70710676908493 -0.41562694311142
v -0.231633148193359 0.193 -0.0366870880126953
vn 0.998629510402679 0.0523359552025795 0
v -0.231633148193359 0.193 0.0366870880126953
vn 0.998629510402679 0.0523359552025795 0
v -0.228174224853516 0.127 0.0361392478942871
vn 0.998629510402679 0.0523359552025795 0
v -0.228174224853516 0.127 -0.0361392478942871
vn 0.998629510402679 0.0523359552025795 0
v -0.203633148193359 0.193 -0.11380086517334
vn 0.807908236980438 0.0523359552025795 0.586979687213898
v -0.208959274291992 0.193 -0.106470069885254
vn 0.807908236980438 0.0523359552025795 0.586979687213898
v -0.205838943481445 0.127 -0.104880180358887
vn 0.807908236980438 0.0523359552025795 0.586979687213898
v -0.200174224853516 0.127 -0.11267699432373
vn 0.807908236980438 0.0523359552025795 0.586979687213898
v -0.231633148193359 0.193 0.0366870880126953
vn 0.949753105640411 0.0523359552025795 -0.308593511581421
v -0.208959274291992 0.193 0.106470069885254
vn 0.949753105640411 0.0523359552025795 -0.308593511581421
v -0.205838943481445 0.127 0.104880180358887
vn 0.949753105640411 0.0523359552025795 -0.308593511581421
v -0.228174224853516 0.127 0.0361392478942871
vn 0.949753105640411 0.0523359552025795 -0.308593511581421
v -0.208959274291992 0.193 -0.106470069885254
vn 0.949753105640411 0.0523359552025795 0.308593511581421
v -0.231633148193359 0.193 -0.0366870880126953
vn 0.949753105640411 0.0523359552025795 0.308593511581421
v -0.228174224853516 0.127 -0.0361392478942871
vn 0.949753105640411 0.0523359552025795 0.308593511581421
v -0.205838943481445 0.127 -0.104880180358887
vn 0.949753105640411 0.0523359552025795 0.308593511581421
v -0.0644328842163086 0.119 -0.0644328842163086
vn 0 1 0
v -0.0425 0.119 -0.0803680572509766
vn 0 1 0
v -0.0425 0.119 -0.100863952636719
vn 0 1 0
v -0.0501296272277832 0.119 -0.0983849334716797
vn 0 1 0
v -0.078078727722168 0.119 -0.078078727722168
vn 0 1 0
v -0.0983849334716797 0.119 -0.0501296272277832
vn 0 1 0
v -0.109060539245605 0.119 -0.0172734928131104
vn 0 1 0
v -0.109060539245605 0.119 0.0172734928131104
vn 0 1 0
v -0.0983849334716797 0.119 0.0501296272277832
vn 0 1 0
v -0.078078727722168 0.119 0.078078727722168
vn 0 1 0
v -0.0501296272277832 0.119 0.0983849334716797
vn 0 1 0
v -0.0425 0.119 0.100863952636719
vn 0 1 0
v -0.0425 0.119 0.0803680572509766
vn 0 1 0
v -0.0644328842163086 0.119 0.0644328842163086
vn 0 1 0
v -0.0811901702880859 0.119 0.0413684577941895
vn 0 1 0
v -0.09 0.119 0.014254599571228
vn 0 1 0
v -0.09 0.119 -0.014254599571228
vn 0 1 0
v -0.0811901702880859 0.119 -0.0413684577941895
vn 0 1 0
v 0.0501296272277832 0.119 -0.0983849334716797
vn 0 1 0
v 0.0425 0.119 -0.100863952636719
vn 0 1 0
v 0.0425 0.119 -0.0803680572509766
vn 0 1 0
v 0.0644328842163086 0.119 -0.0644328842163086
vn 0 1 0
v 0.0811901702880859 0.119 -0.0413684577941895
vn 0 1 0
v 0.09 0.119 -0.014254599571228
vn 0 1 0
v 0.09 0.119 0.014254599571228
vn 0 1 0
v 0.0811901702880859 0.119 0.0413684577941895
vn 0 1 0
v 0.0644328842163086 0.119 0.0644328842163086
vn 0 1 0
v 0.0425 0.119 0.0803680572509766
vn 0 1 0
v 0.0425 0.119 0.100863952636719
vn 0 1 0
v 0.0501296272277832 0.119 0.0983849334716797
vn 0 1 0
v 0.078078727722168 0.119 0.078078727722168
vn 0 1 0
v 0.0983849334716797 0.119 0.0501296272277832
vn 0 1 0
v 0.109060539245605 0.119 0.0172734928131104
vn 0 1 0
v 0.109060539245605 0.119 -0.0172734928131104
vn 0 1 0
v 0.0983849334716797 0.119 -0.0501296272277832
vn 0 1 0
v 0.078078727722168 0.119 -0.078078727722168
vn 0 1 0
v -0.038723934173584 0.122321701049805 -0.076
vn -0.293892621994019 0.866025388240814 -0.404508501291275
v -0.0425 0.121040260314941 -0.076
vn -0.293892621994019 0.866025388240814 -0.404508501291275
v -0.0425 0.119 -0.0803680572509766
vn -0.293892621994019 0.866025388240814 -0.404508501291275
v -0.0644328842163086 0.119 -0.0644328842163086
vn -0.293892621994019 0.866025388240814 -0.404508501291275
v -0.0507927589416504 0.13 -0.0507927589416504
vn -0.293892621994019 0.866025388240814 -0.404508501291275
v -0.0326109580993652 0.13 -0.0640026092529297
vn -0.293892621994019 0.866025388240814 -0.404508501291275
v 0.0425 0.121040260314941 -0.076
vn 0.293892621994019 0.866025388240814 -0.404508501291275
v 0.038723934173584 0.122321701049805 -0.076
vn 0.293892621994019 0.866025388240814 -0.404508501291275
v 0.0326109580993652 0.13 -0.0640026092529297
vn 0.293892621994019 0.866025388240814 -0.404508501291275
v 0.0507927589416504 0.13 -0.0507927589416504
vn 0.293892621994019 0.866025388240814 -0.404508501291275
v 0.0644328842163086 0.119 -0.0644328842163086
vn 0.293892621994019 0.866025388240814 -0.404508501291275
v 0.0425 0.119 -0.0803680572509766
vn 0.293892621994019 0.866025388240814 -0.404508501291275
v 0.0120372171401978 0.127082901000977 -0.076
vn 0 0.866025388240814 -0.5
v -0.0120372171401978 0.127082901000977 -0.076
vn 0 0.866025388240814 -0.5
v -0.0112369709014893 0.13 -0.0709474411010742
vn 0 0.866025388240814 -0.5
v 0.0112369709014893 0.13 -0.0709474411010742
vn 0 0.866025388240814 -0.5
v -0.0120372171401978 0.127082901000977 -0.076
vn -0.154508501291275 0.866025388240814 -0.47552827000618
v -0.038723934173584 0.122321701049805 -0.076
vn -0.154508501291275 0.866025388240814 -0.47552827000618
v -0.0326109580993652 0.13 -0.0640026092529297
vn -0.154508501291275 0.866025388240814 -0.47552827000618
v -0.0112369709014893 0.13 -0.0709474411010742
vn -0.154508501291275 0.866025388240814 -0.47552827000618
v 0.038723934173584 0.122321701049805 -0.076
vn 0.154508501291275 0.866025388240814 -0.47552827000618
v 0.0120372171401978 0.127082901000977 -0.076
vn 0.154508501291275 0.866025388240814 -0.47552827000618
v 0.0112369709014893 0.13 -0.0709474411010742
vn 0.154508501291275 0.866025388240814 -0.47552827000618
v 0.0326109580993652 0.13 -0.0640026092529297
vn 0.154508501291275 0.866025388240814 -0.47552827000618
v -0.100329055786133 0.118215614318848 -0.0511202087402344
vn 0.572061419487 0.70710676908493 0.41562694311142
v -0.0827822952270508 0.118215614318848 -0.0752712478637695
vn 0.572061419487 0.70710676908493 0.41562694311142
v -0.0901240234375 0.127 -0.0801111145019531
vn 0.572061419487 0.70710676908493 0.41562694311142
v -0.108253562927246 0.127 -0.0551579475402832
vn 0.572061419487 0.70710676908493 0.41562694311142
v -0.0983849334716797 0.119 -0.0501296272277832
vn -0.325280487537384 0.939692616462708 -0.105690039694309
v -0.100329055786133 0.118215614318848 -0.0511202087402344
vn -0.325280487537384 0.939692616462708 -0.105690039694309
v -0.111215614318848 0.118215614318848 -0.0176148223876953
vn -0.325280487537384 0.939692616462708 -0.105690039694309
v -0.109060539245605 0.119 -0.0172734928131104
vn -0.325280487537384 0.939692616462708 -0.105690039694309
v -0.038723934173584 0.122321701049805 0.076
vn -0.154508501291275 0.866025388240814 0.47552827000618
v -0.0120372171401978 0.127082901000977 0.076
vn -0.154508501291275 0.866025388240814 0.47552827000618
v -0.0112369709014893 0.13 0.0709474411010742
vn -0.154508501291275 0.866025388240814 0.47552827000618
v -0.0326109580993652 0.13 0.0640026092529297
vn -0.154508501291275 0.866025388240814 0.47552827000618
v 0.0425 0.121040260314941 0.076
vn 0.293892621994019 0.866025388240814 0.404508501291275
v 0.0425 0.119 0.0803680572509766
vn 0.293892621994019 0.866025388240814 0.404508501291275
v 0.0644328842163086 0.119 0.0644328842163086
vn 0.293892621994019 0.866025388240814 0.404508501291275
v 0.0507927589416504 0.13 0.0507927589416504
vn 0.293892621994019 0.866025388240814 0.404508501291275
v 0.0326109580993652 0.13 0.0640026092529297
vn 0.293892621994019 0.866025388240814 0.404508501291275
v 0.038723934173584 0.122321701049805 0.076
vn 0.293892621994019 0.866025388240814 0.404508501291275
v -0.0120372171401978 0.127082901000977 0.076
vn 2.43391396912836E-16 0.866025388240814 0.5
v 0.0120372171401978 0.127082901000977 0.076
vn 2.43391396912836E-16 0.866025388240814 0.5
v 0.0112369709014893 0.13 0.0709474411010742
vn 2.43391396912836E-16 0.866025388240814 0.5
v -0.0112369709014893 0.13 0.0709474411010742
vn 2.43391396912836E-16 0.866025388240814 0.5
v 0.0120372171401978 0.127082901000977 0.076
vn 0.154508501291275 0.866025388240814 0.47552827000618
v 0.038723934173584 0.122321701049805 0.076
vn 0.154508501291275 0.866025388240814 0.47552827000618
v 0.0326109580993652 0.13 0.0640026092529297
vn 0.154508501291275 0.866025388240814 0.47552827000618
v 0.0112369709014893 0.13 0.0709474411010742
vn 0.154508501291275 0.866025388240814 0.47552827000618
v -0.0425 0.119 0.0803680572509766
vn -0.293892621994019 0.866025388240814 0.404508501291275
v -0.0425 0.121040260314941 0.076
vn -0.293892621994019 0.866025388240814 0.404508501291275
v -0.038723934173584 0.122321701049805 0.076
vn -0.293892621994019 0.866025388240814 0.404508501291275
v -0.0326109580993652 0.13 0.0640026092529297
vn -0.293892621994019 0.866025388240814 0.404508501291275
v -0.0507927589416504 0.13 0.0507927589416504
vn -0.293892621994019 0.866025388240814 0.404508501291275
v -0.0644328842163086 0.119 0.0644328842163086
vn -0.293892621994019 0.866025388240814 0.404508501291275
v -0.109060539245605 0.119 0.0172734928131104
vn -0.325280487537384 0.939692616462708 0.105690039694309
v -0.111215614318848 0.118215614318848 0.0176148223876953
vn -0.325280487537384 0.939692616462708 0.105690039694309
v -0.100329055786133 0.118215614318848 0.0511202087402344
vn -0.325280487537384 0.939692616462708 0.105690039694309
v -0.0983849334716797 0.119 0.0501296272277832
vn -0.325280487537384 0.939692616462708 0.105690039694309
v -0.111215614318848 0.118215614318848 -0.0176148223876953
vn 0.672498524188995 0.70710676908493 0.218508005142212
v -0.100329055786133 0.118215614318848 -0.0511202087402344
vn 0.672498524188995 0.70710676908493 0.218508005142212
v -0.108253562927246 0.127 -0.0551579475402832
vn 0.672498524188995 0.70710676908493 0.218508005142212
v -0.12 0.127 -0.0190061321258545
vn 0.672498524188995 0.70710676908493 0.218508005142212
v -0.100329055786133 0.118215614318848 0.0511202087402344
vn 0.672498524188995 0.70710676908493 -0.218508005142212
v -0.111215614318848 0.118215614318848 0.0176148223876953
vn 0.672498524188995 0.70710676908493 -0.218508005142212
v -0.12 0.127 0.0190061321258545
vn 0.672498524188995 0.70710676908493 -0.218508005142212
v -0.108253562927246 0.127 0.0551579475402832
vn 0.672498524188995 0.70710676908493 -0.218508005142212
v -0.111215614318848 0.118215614318848 0.0176148223876953
vn 0.70710676908493 0.70710676908493 0
v -0.111215614318848 0.118215614318848 -0.0176148223876953
vn 0.70710676908493 0.70710676908493 0
v -0.12 0.127 -0.0190061321258545
vn 0.70710676908493 0.70710676908493 0
v -0.12 0.127 0.0190061321258545
vn 0.70710676908493 0.70710676908493 0
v -0.109060539245605 0.119 -0.0172734928131104
vn -0.342020153999329 0.939692616462708 1.71246371482076E-16
v -0.111215614318848 0.118215614318848 -0.0176148223876953
vn -0.342020153999329 0.939692616462708 1.71246371482076E-16
v -0.111215614318848 0.118215614318848 0.0176148223876953
vn -0.342020153999329 0.939692616462708 1.71246371482076E-16
v -0.109060539245605 0.119 0.0172734928131104
vn -0.342020153999329 0.939692616462708 1.71246371482076E-16
v -0.0644328842163086 0.119 -0.0644328842163086
vn -0.404508501291275 0.866025388240814 -0.293892621994019
v -0.0811901702880859 0.119 -0.0413684577941895
vn -0.404508501291275 0.866025388240814 -0.293892621994019
v -0.0640026092529297 0.13 -0.0326109580993652
vn -0.404508501291275 0.866025388240814 -0.293892621994019
v -0.0507927589416504 0.13 -0.0507927589416504
vn -0.404508501291275 0.866025388240814 -0.293892621994019
v -0.09 0.119 -0.014254599571228
vn -0.5 0.866025388240814 2.43391396912836E-16
v -0.09 0.119 0.014254599571228
vn -0.5 0.866025388240814 2.43391396912836E-16
v -0.0709474411010742 0.13 0.0112369709014893
vn -0.5 0.866025388240814 2.43391396912836E-16
v -0.0709474411010742 0.13 -0.0112369709014893
vn -0.5 0.866025388240814 2.43391396912836E-16
v -0.0811901702880859 0.119 0.0413684577941895
vn -0.404508501291275 0.866025388240814 0.293892621994019
v -0.0644328842163086 0.119 0.0644328842163086
vn -0.404508501291275 0.866025388240814 0.293892621994019
v -0.0507927589416504 0.13 0.0507927589416504
vn -0.404508501291275 0.866025388240814 0.293892621994019
v -0.0640026092529297 0.13 0.0326109580993652
vn -0.404508501291275 0.866025388240814 0.293892621994019
v -0.0811901702880859 0.119 -0.0413684577941895
vn -0.47552827000618 0.866025388240814 -0.154508501291275
v -0.09 0.119 -0.014254599571228
vn -0.47552827000618 0.866025388240814 -0.154508501291275
v -0.0709474411010742 0.13 -0.0112369709014893
vn -0.47552827000618 0.866025388240814 -0.154508501291275
v -0.0640026092529297 0.13 -0.0326109580993652
vn -0.47552827000618 0.866025388240814 -0.154508501291275
v -0.09 0.119 0.014254599571228
vn -0.47552827000618 0.866025388240814 0.154508501291275
v -0.0811901702880859 0.119 0.0413684577941895
vn -0.47552827000618 0.866025388240814 0.154508501291275
v -0.0640026092529297 0.13 0.0326109580993652
vn -0.47552827000618 0.866025388240814 0.154508501291275
v -0.0709474411010742 0.13 0.0112369709014893
vn -0.47552827000618 0.866025388240814 0.154508501291275
v 0.0644328842163086 0.119 0.0644328842163086
vn 0.404508501291275 0.866025388240814 0.293892621994019
v 0.0811901702880859 0.119 0.0413684577941895
vn 0.404508501291275 0.866025388240814 0.293892621994019
v 0.0640026092529297 0.13 0.0326109580993652
vn 0.404508501291275 0.866025388240814 0.293892621994019
v 0.0507927589416504 0.13 0.0507927589416504
vn 0.404508501291275 0.866025388240814 0.293892621994019
v 0.09 0.119 0.014254599571228
vn 0.5 0.866025388240814 -2.43391396912836E-16
v 0.09 0.119 -0.014254599571228
vn 0.5 0.866025388240814 -2.43391396912836E-16
v 0.0709474411010742 0.13 -0.0112369709014893
vn 0.5 0.866025388240814 -2.43391396912836E-16
v 0.0709474411010742 0.13 0.0112369709014893
vn 0.5 0.866025388240814 -2.43391396912836E-16
v 0.0811901702880859 0.119 -0.0413684577941895
vn 0.404508501291275 0.866025388240814 -0.293892621994019
v 0.0644328842163086 0.119 -0.0644328842163086
vn 0.404508501291275 0.866025388240814 -0.293892621994019
v 0.0507927589416504 0.13 -0.0507927589416504
vn 0.404508501291275 0.866025388240814 -0.293892621994019
v 0.0640026092529297 0.13 -0.0326109580993652
vn 0.404508501291275 0.866025388240814 -0.293892621994019
v 0.0811901702880859 0.119 0.0413684577941895
vn 0.47552827000618 0.866025388240814 0.154508501291275
v 0.09 0.119 0.014254599571228
vn 0.47552827000618 0.866025388240814 0.154508501291275
v 0.0709474411010742 0.13 0.0112369709014893
vn 0.47552827000618 0.866025388240814 0.154508501291275
v 0.0640026092529297 0.13 0.0326109580993652
vn 0.47552827000618 0.866025388240814 0.154508501291275
v 0.09 0.119 -0.014254599571228
vn 0.47552827000618 0.866025388240814 -0.154508501291275
v 0.0811901702880859 0.119 -0.0413684577941895
vn 0.47552827000618 0.866025388240814 -0.154508501291275
v 0.0640026092529297 0.13 -0.0326109580993652
vn 0.47552827000618 0.866025388240814 -0.154508501291275
v 0.0709474411010742 0.13 -0.0112369709014893
vn 0.47552827000618 0.866025388240814 -0.154508501291275
v 0.0507927589416504 0.13 0.0507927589416504
vn 0 1 0
v 0.0640026092529297 0.13 0.0326109580993652
vn 0 1 0
v 0.0709474411010742 0.13 0.0112369709014893
vn 0 1 0
v 0.0709474411010742 0.13 -0.0112369709014893
vn 0 1 0
v 0.0640026092529297 0.13 -0.0326109580993652
vn 0 1 0
v 0.0507927589416504 0.13 -0.0507927589416504
vn 0 1 0
v 0.0326109580993652 0.13 -0.0640026092529297
vn 0 1 0
v 0.0112369709014893 0.13 -0.0709474411010742
vn 0 1 0
v -0.0112369709014893 0.13 -0.0709474411010742
vn 0 1 0
v -0.0326109580993652 0.13 -0.0640026092529297
vn 0 1 0
v -0.0507927589416504 0.13 -0.0507927589416504
vn 0 1 0
v -0.0640026092529297 0.13 -0.0326109580993652
vn 0 1 0
v -0.0709474411010742 0.13 -0.0112369709014893
vn 0 1 0
v -0.0709474411010742 0.13 0.0112369709014893
vn 0 1 0
v -0.0640026092529297 0.13 0.0326109580993652
vn 0 1 0
v -0.0507927589416504 0.13 0.0507927589416504
vn 0 1 0
v -0.0326109580993652 0.13 0.0640026092529297
vn 0 1 0
v -0.0112369709014893 0.13 0.0709474411010742
vn 0 1 0
v 0.0112369709014893 0.13 0.0709474411010742
vn 0 1 0
v 0.0326109580993652 0.13 0.0640026092529297
vn 0 1 0
usemtl Mat0
f 3//3 15//15 2//2
f 3//3 4//4 15//15
f 15//15 4//4 14//14
f 14//14 4//4 5//5
f 6//6 14//14 5//5
f 6//6 7//7 14//14
f 14//14 7//7 13//13
f 13//13 7//7 8//8
f 9//9 13//13 8//8
f 9//9 10//10 13//13
f 13//13 10//10 18//18
f 18//18 10//10 11//11
f 12//12 18//18 11//11
f 12//12 17//17 18//18
f 12//12 1//1 17//17
f 17//17 1//1 16//16
f 16//16 1//1 2//2
f 15//15 16//16 2//2
f 19//19 20//20 22//22
f 22//22 20//20 21//21
f 23//23 24//24 26//26
f 26//26 24//24 25//25
f 27//27 28//28 31//31
f 31//31 28//28 30//30
f 30//30 28//28 29//29
f 32//32 33//33 36//36
f 36//36 33//33 35//35
f 35//35 33//33 34//34
f 38//38 39//39 37//37
f 37//37 39//39 50//50
f 50//50 39//39 40//40
f 49//49 40//40 41//41
f 48//48 41//41 42//42
f 47//47 42//42 43//43
f 46//46 43//43 44//44
f 45//45 46//46 44//44
f 46//46 47//47 43//43
f 47//47 48//48 42//42
f 48//48 49//49 41//41
f 49//49 50//50 40//40
f 51//51 52//52 54//54
f 54//54 52//52 53//53
f 56//56 57//57 55//55
f 55//55 57//57 58//58
f 59//59 60//60 72//72
f 72//72 60//60 71//71
f 71//71 60//60 61//61
f 70//70 61//61 62//62
f 69//69 62//62 63//63
f 68//68 63//63 64//64
f 67//67 64//64 65//65
f 66//66 67//67 65//65
f 67//67 68//68 64//64
f 68//68 69//69 63//63
f 69//69 70//70 62//62
f 70//70 71//71 61//61
f 73//73 74//74 76//76
f 76//76 74//74 75//75
f 77//77 78//78 80//80
f 80//80 78//78 79//79
f 85//85 86//86 82//82
f 84//84 82//82 83//83
f 84//84 85//85 82//82
f 86//86 87//87 82//82
f 82//82 87//87 81//81
f 81//81 87//87 106//106
f 107//107 81//81 106//106
f 107//107 108//108 81//81
f 81//81 108//108 109//109
f 110//110 81//81 109//109
f 88//88 89//89 87//87
f 87//87 89//89 106//106
f 106//106 89//89 104//104
f 105//105 106//106 104//104
f 89//89 90//90 104//104
f 104//104 90//90 103//103
f 103//103 90//90 91//91
f 102//102 91//91 95//95
f 98//98 95//95 96//96
f 97//97 98//98 96//96
f 95//95 91//91 94//94
f 94//94 91//91 92//92
f 93//93 94//94 92//92
f 95//95 98//98 102//102
f 102//102 98//98 99//99
f 101//101 99//99 100//100
f 101//101 102//102 99//99
f 102//102 103//103 91//91
f 112//112 113//113 111//111
f 111//111 113//113 114//114
f 115//115 116//116 118//118
f 118//118 116//116 117//117
f 121//121 133//133 120//120
f 121//121 122//122 133//133
f 133//133 122//122 131//131
f 132//132 133//133 131//131
f 122//122 123//123 131//131
f 131//131 123//123 124//124
f 125//125 131//131 124//124
f 125//125 138//138 131//131
f 125//125 126//126 138//138
f 138//138 126//126 127//127
f 128//128 138//138 127//127
f 128//128 136//136 138//138
f 128//128 129//129 136//136
f 136//136 129//129 130//130
f 135//135 130//130 119//119
f 134//134 119//119 120//120
f 133//133 134//134 120//120
f 134//134 135//135 119//119
f 135//135 136//136 130//130
f 136//136 137//137 138//138
f 140//140 141//141 139//139
f 139//139 141//141 142//142
f 143//143 144//144 150//150
f 150//150 144//144 145//145
f 149//149 145//145 146//146
f 147//147 149//149 146//146
f 147//147 148//148 149//149
f 149//149 150//150 145//145
f 151//151 152//152 154//154
f 154//154 152//152 153//153
f 155//155 156//156 158//158
f 158//158 156//156 157//157
f 160//160 161//161 159//159
f 159//159 161//161 162//162
f 163//163 164//164 166//166
f 166//166 164//164 165//165
f 167//167 168//168 172//172
f 172//172 168//168 171//171
f 171//171 168//168 170//170
f 170//170 168//168 169//169
f 174//174 175//175 173//173
f 173//173 175//175 176//176
f 178//178 179//179 177//177
f 177//177 179//179 180//180
f 182//182 183//183 181//181
f 181//181 183//183 186//186
f 186//186 183//183 185//185
f 185//185 183//183 184//184
f 188//188 189//189 187//187
f 187//187 189//189 190//190
f 191//191 192//192 194//194
f 194//194 192//192 193//193
f 195//195 196//196 198//198
f 198//198 196//196 197//197
f 199//199 200//200 202//202
f 202//202 200//200 201//201
f 203//203 204//204 206//206
f 206//206 204//204 205//205
f 214//214 207//207 212//212
f 213//213 214//214 212//212
f 209//209 211//211 208//208
f 209//209 210//210 211//211
f 211//211 212//212 208//208
f 208//208 212//212 207//207
f 215//215 216//216 218//218
f 218//218 216//216 217//217
f 220//220 221//221 219//219
f 219//219 221//221 222//222
f 223//223 224//224 226//226
f 226//226 224//224 225//225
f 227//227 228//228 230//230
f 230//230 228//228 229//229
f 231//231 232//232 234//234
f 234//234 232//232 233//233
f 242//242 235//235 240//240
f 241//241 242//242 240//240
f 237//237 238//238 236//236
f 236//236 238//238 239//239
f 240//240 236//236 239//239
f 240//240 235//235 236//236
f 243//243 244//244 246//246
f 246//246 244//244 245//245
f 255//255 247//247 254//254
f 254//254 247//247 248//248
f 252//252 248//248 249//249
f 250//250 252//252 249//249
f 250//250 251//251 252//252
f 253//253 254//254 252//252
f 252//252 254//254 248//248
f 257//257 258//258 256//256
f 256//256 258//258 259//259
f 261//261 262//262 260//260
f 260//260 262//262 263//263
f 264//264 265//265 267//267
f 267//267 265//265 266//266
f 269//269 270//270 268//268
f 268//268 270//270 271//271
f 308//308 272//272 307//307
f 307//307 272//272 273//273
f 301//301 273//273 300//300
f 301//301 307//307 273//273
f 301//301 302//302 307//307
f 307//307 302//302 306//306
f 306//306 302//302 303//303
f 305//305 303//303 304//304
f 305//305 306//306 303//303
f 273//273 274//274 300//300
f 300//300 274//274 299//299
f 299//299 274//274 275//275
f 298//298 275//275 276//276
f 297//297 276//276 277//277
f 296//296 277//277 278//278
f 279//279 296//296 278//278
f 279//279 295//295 296//296
f 279//279 280//280 295//295
f 295//295 280//280 294//294
f 294//294 280//280 281//281
f 293//293 281//281 282//282
f 292//292 282//282 285//285
f 291//291 285//285 286//286
f 289//289 286//286 287//287
f 288//288 289//289 287//287
f 283//283 284//284 282//282
f 282//282 284//284 285//285
f 290//290 291//291 289//289
f 289//289 291//291 286//286
f 291//291 292//292 285//285
f 292//292 293//293 282//282
f 293//293 294//294 281//281
f 296//296 297//297 277//277
f 297//297 298//298 276//276
f 298//298 299//299 275//275
f 320//320 309//309 321//321
f 322//322 320//320 321//321
f 322//322 319//319 320//320
f 322//322 318//318 319//319
f 322//322 317//317 318//318
f 322//322 323//323 317//317
f 317//317 323//323 316//316
f 316//316 323//323 315//315
f 315//315 323//323 324//324
f 314//314 324//324 325//325
f 313//313 325//325 312//312
f 313//313 314//314 325//325
f 309//309 310//310 321//321
f 321//321 310//310 311//311
f 325//325 311//311 312//312
f 325//325 321//321 311//311
f 314//314 315//315 324//324
f 326//326 327//327 329//329
f 329//329 327//327 328//328
f 341//341 330//330 344//344
f 340//340 344//344 345//345
f 339//339 345//345 338//338
f 339//339 340//340 345//345
f 332//332 343//343 331//331
f 332//332 333//333 343//343
f 343//343 333//333 334//334
f 342//342 334//334 335//335
f 336//336 342//342 335//335
f 336//336 346//346 342//342
f 336//336 337//337 346//346
f 346//346 337//337 345//345
f 345//345 337//337 338//338
f 340//340 341//341 344//344
f 342//342 343//343 334//334
f 343//343 344//344 331//331
f 331//331 344//344 330//330
f 351//351 347//347 350//350
f 350//350 347//347 348//348
f 349//349 350//350 348//348
f 353//353 354//354 352//352
f 352//352 354//354 355//355
f 357//357 368//368 356//356
f 357//357 358//358 368//368
f 368//368 358//358 359//359
f 372//372 359//359 360//360
f 361//361 372//372 360//360
f 361//361 362//362 372//372
f 372//372 362//362 371//371
f 371//371 362//362 363//363
f 364//364 371//371 363//363
f 364//364 370//370 371//371
f 364//364 365//365 370//370
f 370//370 365//365 366//366
f 367//367 370//370 366//366
f 367//367 369//369 370//370
f 367//367 356//356 369//369
f 369//369 356//356 368//368
f 372//372 368//368 359//359
f 374//374 375//375 373//373
f 373//373 375//375 380//380
f 380//380 375//375 377//377
f 379//379 377//377 378//378
f 379//379 380//380 377//377
f 375//375 376//376 377//377
f 383//383 396//396 382//382
f 383//383 384//384 396//396
f 396//396 384//384 385//385
f 395//395 385//385 386//386
f 387//387 395//395 386//386
f 387//387 394//394 395//395
f 387//387 388//388 394//394
f 394//394 388//388 389//389
f 390//390 394//394 389//389
f 390//390 393//393 394//394
f 390//390 391//391 393//393
f 393//393 391//391 392//392
f 381//381 393//393 392//392
f 381//381 397//397 393//393
f 381//381 382//382 397//397
f 397//397 382//382 396//396
f 395//395 396//396 385//385
f 402//402 398//398 401//401
f 401//401 398//398 399//399
f 400//400 401//401 399//399
f 403//403 404//404 406//406
f 406//406 404//404 405//405
f 408//408 409//409 407//407
f 407//407 409//409 410//410
f 413//413 410//410 412//412
f 413//413 407//407 410//410
f 410//410 411//411 412//412
f 414//414 415//415 423//423
f 423//423 415//415 416//416
f 422//422 416//416 421//421
f 422//422 423//423 416//416
f 416//416 417//417 421//421
f 421//421 417//417 420//420
f 420//420 417//417 418//418
f 419//419 420//420 418//418
f 425//425 426//426 424//424
f 424//424 426//426 427//427
f 428//428 429//429 431//431
f 431//431 429//429 430//430
f 433//433 434//434 432//432
f 432//432 434//434 439//439
f 439//439 434//434 435//435
f 438//438 435//435 437//437
f 438//438 439//439 435//435
f 435//435 436//436 437//437
f 440//440 441//441 444//444
f 444//444 441//441 443//443
f 443//443 441//441 442//442
f 446//446 447//447 445//445
f 445//445 447//447 450//450
f 450//450 447//447 449//449
f 449//449 447//447 448//448
f 452//452 453//453 451//451
f 451//451 453//453 458//458
f 458//458 453//453 454//454
f 457//457 454//454 456//456
f 457//457 458//458 454//454
f 454//454 455//455 456//456
f 460//460 461//461 459//459
f 459//459 461//461 462//462
f 464//464 465//465 463//463
f 463//463 465//465 466//466
f 468//468 469//469 467//467
f 467//467 469//469 470//470
f 472//472 473//473 471//471
f 471//471 473//473 474//474
f 475//475 476//476 480//480
f 480//480 476//476 479//479
f 479//479 476//476 478//478
f 478//478 476//476 477//477
f 481//481 482//482 484//484
f 484//484 482//482 483//483
f 486//486 487//487 485//485
f 485//485 487//487 488//488
f 490//490 491//491 489//489
f 489//489 491//491 493//493
f 493//493 491//491 492//492
f 494//494 495//495 498//498
f 498//498 495//495 496//496
f 497//497 498//498 496//496
f 499//499 500//500 502//502
f 502//502 500//500 501//501
f 503//503 504//504 506//506
f 506//506 504//504 505//505
f 507//507 508//508 510//510
f 510//510 508//508 509//509
f 511//511 512//512 515//515
f 515//515 512//512 513//513
f 514//514 515//515 513//513
f 516//516 517//517 519//519
f 519//519 517//517 518//518
f 521//521 522//522 520//520
f 520//520 522//522 524//524
f 524//524 522//522 523//523
f 526//526 527//527 525//525
f 525//525 527//527 528//528
f 529//529 530//530 542//542
f 542//542 530//530 541//541
f 541//541 530//530 531//531
f 540//540 531//531 532//532
f 539//539 532//532 533//533
f 538//538 533//533 534//534
f 537//537 534//534 535//535
f 536//536 537//537 535//535
f 537//537 538//538 534//534
f 538//538 539//539 533//533
f 539//539 540//540 532//532
f 540//540 541//541 531//531
f 544//544 545//545 543//543
f 543//543 545//545 556//556
f 556//556 545//545 546//546
f 555//555 546//546 547//547
f 554//554 547//547 548//548
f 553//553 548//548 549//549
f 552//552 549//549 550//550
f 551//551 552//552 550//550
f 552//552 553//553 549//549
f 553//553 554//554 548//548
f 554//554 555//555 547//547
f 555//555 556//556 546//546
f 558//558 559//559 557//557
f 557//557 559//559 570//570
f 570//570 559//559 560//560
f 569//569 560//560 561//561
f 568//568 561//561 562//562
f 567//567 562//562 563//563
f 566//566 563//563 564//564
f 565//565 566//566 564//564
f 566//566 567//567 563//563
f 567//567 568//568 562//562
f 568//568 569//569 561//561
f 569//569 570//570 560//560
f 571//571 572//572 584//584
f 584//584 572//572 583//583
f 583//583 572//572 573//573
f 582//582 573//573 574//574
f 581//581 574//574 575//575
f 580//580 575//575 576//576
f 579//579 576//576 577//577
f 578//578 579//579 577//577
f 579//579 580//580 576//576
f 580//580 581//581 575//575
f 581//581 582//582 574//574
f 582//582 583//583 573//573
f 586//586 587//587 585//585
f 585//585 587//587 590//590
f 590//590 587//587 589//589
f 589//589 587//587 588//588
f 591//591 592//592 604//604
f 604//604 592//592 603//603
f 603//603 592//592 602//602
f 602//602 592//592 593//593
f 594//594 602//602 593//593
f 594//594 601//601 602//602
f 594//594 595//595 601//601
f 601//601 595//595 600//600
f 600//600 595//595 599//599
f 599//599 595//595 596//596
f 597//597 599//599 596//596
f 597//597 598//598 599//599
f 606//606 607//607 605//605
f 605//605 607//607 608//608
f 609//609 610//610 612//612
f 612//612 610//610 611//611
f 613//613 614//614 616//616
f 616//616 614//614 615//615
f 617//617 618//618 620//620
f 620//620 618//618 619//619
f 622//622 623//623 621//621
f 621//621 623//623 624//624
f 625//625 626//626 628//628
f 628//628 626//626 627//627
f 629//629 630//630 632//632
f 632//632 630//630 631//631
f 635//635 636//636 634//634
f 634//634 636//636 637//637
f 633//633 637//637 638//638
f 650//650 638//638 639//639
f 649//649 639//639 640//640
f 648//648 640//640 647//647
f 648//648 649//649 640//640
f 640//640 641//641 647//647
f 647//647 641//641 646//646
f 646//646 641//641 642//642
f 645//645 642//642 643//643
f 644//644 645//645 643//643
f 645//645 646//646 642//642
f 649//649 650//650 639//639
f 650//650 633//633 638//638
f 637//637 633//633 634//634
f 652//652 653//653 651//651
f 651//651 653//653 668//668
f 668//668 653//653 654//654
f 667//667 654//654 655//655
f 666//666 655//655 656//656
f 665//665 656//656 657//657
f 658//658 665//665 657//657
f 658//658 664//664 665//665
f 658//658 659//659 664//664
f 664//664 659//659 663//663
f 663//663 659//659 660//660
f 662//662 660//660 661//661
f 662//662 663//663 660//660
f 665//665 666//666 656//656
f 666//666 667//667 655//655
f 667//667 668//668 654//654
f 669//669 670//670 674//674
f 674//674 670//670 673//673
f 673//673 670//670 672//672
f 672//672 670//670 671//671
f 676//676 677//677 675//675
f 675//675 677//677 678//678
f 679//679 675//675 678//678
f 679//679 680//680 675//675
f 681//681 682//682 684//684
f 684//684 682//682 683//683
f 686//686 687//687 685//685
f 685//685 687//687 688//688
f 689//689 690//690 692//692
f 692//692 690//690 691//691
f 694//694 695//695 693//693
f 693//693 695//695 696//696
f 698//698 699//699 697//697
f 697//697 699//699 700//700
f 701//701 702//702 704//704
f 704//704 702//702 703//703
f 706//706 707//707 705//705
f 705//705 707//707 708//708
f 709//709 705//705 708//708
f 709//709 710//710 705//705
f 712//712 713//713 711//711
f 711//711 713//713 714//714
f 716//716 717//717 715//715
f 715//715 717//717 718//718
f 719//719 720//720 724//724
f 724//724 720//720 723//723
f 723//723 720//720 722//722
f 722//722 720//720 721//721
f 725//725 726//726 728//728
f 728//728 726//726 727//727
f 729//729 730//730 732//732
f 732//732 730//730 731//731
f 734//734 735//735 733//733
f 733//733 735//735 736//736
f 737//737 738//738 740//740
f 740//740 738//738 739//739
f 742//742 743//743 741//741
f 741//741 743//743 744//744
f 745//745 746//746 748//748
f 748//748 746//746 747//747
f 749//749 750//750 752//752
f 752//752 750//750 751//751
f 754//754 755//755 753//753
f 753//753 755//755 756//756
f 757//757 758//758 760//760
f 760//760 758//758 759//759
f 762//762 763//763 761//761
f 761//761 763//763 764//764
f 765//765 766//766 768//768
f 768//768 766//766 767//767
f 770//770 771//771 769//769
f 769//769 771//771 772//772
f 774//774 775//775 773//773
f 773//773 775//775 776//776
f 777//777 778//778 780//780
f 780//780 778//778 779//779
f 782//782 783//783 781//781
f 781//781 783//783 784//784
f 792//792 793//793 791//791
f 791//791 793//793 794//794
f 790//790 794//794 795//795
f 789//789 795//795 796//796
f 788//788 796//796 797//797
f 787//787 797//797 798//798
f 786//786 798//798 799//799
f 785//785 799//799 800//800
f 804//804 800//800 801//801
f 803//803 801//801 802//802
f 803//803 804//804 801//801
f 786//786 787//787 798//798
f 787//787 788//788 797//797
f 788//788 789//789 796//796
f 789//789 790//790 795//795
f 790//790 791//791 794//794
f 804//804 785//785 800//800
f 799//799 785//785 786//786
